CooperHewitt-Semibold.ufo
<glyph name="exclam" format="1">
  <advance width="250"/>
  <unicode hex="0021"/>
  <outline>
    <contour>
      <point x="44" y="780" type="line"/>
      <point x="80" y="216" type="line"/>
      <point x="170" y="216" type="line"/>
      <point x="206" y="780" type="line"/>
    </contour>
    <contour>
      <point x="196" y="141" type="line"/>
      <point x="54" y="141" type="line"/>
      <point x="54" y="0" type="line"/>
      <point x="196" y="0" type="line"/>
    </contour>
  </outline>
</glyph>
<glyph name="quotedbl" format="1">
  <advance width="413"/>
  <unicode hex="0022"/>
  <outline>
    <contour>
      <point x="54" y="780" type="line"/>
      <point x="75" y="474" type="line"/>
      <point x="175" y="474" type="line"/>
      <point x="184" y="780" type="line"/>
    </contour>
    <contour>
      <point x="229" y="780" type="line"/>
      <point x="238" y="474" type="line"/>
      <point x="337" y="474" type="line"/>
      <point x="359" y="780" type="line"/>
    </contour>
  </outline>
</glyph>
<glyph name="numbersign" format="1">
  <advance width="600"/>
  <unicode hex="0023"/>
  <outline>
    <contour>
      <point x="75" y="459" type="line"/>
      <point x="147" y="459" type="line"/>
      <point x="120" y="321" type="line"/>
      <point x="26" y="321" type="line"/>
      <point x="26" y="206" type="line"/>
      <point x="97" y="206" type="line"/>
      <point x="57" y="0" type="line"/>
      <point x="173" y="0" type="line"/>
      <point x="213" y="206" type="line"/>
      <point x="315" y="206" type="line"/>
      <point x="275" y="0" type="line"/>
      <point x="390" y="0" type="line"/>
      <point x="430" y="206" type="line"/>
      <point x="525" y="206" type="line"/>
      <point x="525" y="321" type="line"/>
      <point x="453" y="321" type="line"/>
      <point x="480" y="459" type="line"/>
      <point x="574" y="459" type="line"/>
      <point x="574" y="574" type="line"/>
      <point x="502" y="574" type="line"/>
      <point x="543" y="780" type="line"/>
      <point x="427" y="780" type="line"/>
      <point x="387" y="574" type="line"/>
      <point x="285" y="574" type="line"/>
      <point x="325" y="780" type="line"/>
      <point x="210" y="780" type="line"/>
      <point x="169" y="574" type="line"/>
      <point x="75" y="574" type="line"/>
    </contour>
    <contour>
      <point x="262" y="459" type="line"/>
      <point x="364" y="459" type="line"/>
      <point x="337" y="321" type="line"/>
      <point x="235" y="321" type="line"/>
    </contour>
  </outline>
</glyph>
<glyph name="dollar" format="1">
  <advance width="600"/>
  <unicode hex="0024"/>
  <outline>
    <contour>
      <point x="459" y="840" type="line"/>
      <point x="357" y="840" type="line"/>
      <point x="330" y="729" type="line"/>
      <point x="320" y="729"/>
      <point x="310" y="730"/>
      <point x="300" y="730" type="curve" smooth="yes"/>
      <point x="153" y="730"/>
      <point x="56" y="659"/>
      <point x="56" y="534" type="curve" smooth="yes"/>
      <point x="56" y="525" type="line" smooth="yes"/>
      <point x="56" y="424"/>
      <point x="112" y="372"/>
      <point x="240" y="350" type="curve"/>
      <point x="204" y="199" type="line"/>
      <point x="189" y="219"/>
      <point x="181" y="245"/>
      <point x="181" y="279" type="curve"/>
      <point x="49" y="279" type="line"/>
      <point x="49" y="273" type="line" smooth="yes"/>
      <point x="49" y="176"/>
      <point x="91" y="106"/>
      <point x="174" y="73" type="curve"/>
      <point x="142" y="-60" type="line"/>
      <point x="244" y="-60" type="line"/>
      <point x="271" y="52" type="line"/>
      <point x="281" y="51"/>
      <point x="292" y="51"/>
      <point x="304" y="51" type="curve" smooth="yes"/>
      <point x="464" y="51"/>
      <point x="551" y="127"/>
      <point x="551" y="252" type="curve" smooth="yes"/>
      <point x="551" y="261" type="line" smooth="yes"/>
      <point x="551" y="370"/>
      <point x="485" y="417"/>
      <point x="363" y="438" type="curve"/>
      <point x="396" y="576" type="line"/>
      <point x="408" y="555"/>
      <point x="414" y="527"/>
      <point x="414" y="493" type="curve"/>
      <point x="545" y="493" type="line"/>
      <point x="545" y="507" type="line" smooth="yes"/>
      <point x="545" y="608"/>
      <point x="508" y="676"/>
      <point x="427" y="709" type="curve"/>
    </contour>
    <contour>
      <point x="306" y="160" type="curve" smooth="yes"/>
      <point x="297" y="160" type="line"/>
      <point x="338" y="334" type="line"/>
      <point x="394" y="320"/>
      <point x="417" y="293"/>
      <point x="417" y="251" type="curve" smooth="yes"/>
      <point x="417" y="246" type="line" smooth="yes"/>
      <point x="417" y="192"/>
      <point x="371" y="160"/>
    </contour>
    <contour>
      <point x="188" y="535" type="curve" smooth="yes"/>
      <point x="188" y="540" type="line" smooth="yes"/>
      <point x="188" y="591"/>
      <point x="236" y="621"/>
      <point x="296" y="621" type="curve" smooth="yes"/>
      <point x="305" y="621" type="line"/>
      <point x="265" y="454" type="line"/>
      <point x="207" y="468"/>
      <point x="188" y="494"/>
    </contour>
  </outline>
</glyph>
<glyph name="ampersand" format="1">
  <advance width="681"/>
  <unicode hex="0026"/>
  <outline>
    <contour>
      <point x="255" y="-13" type="curve" smooth="yes"/>
      <point x="340" y="-13"/>
      <point x="411" y="9"/>
      <point x="469" y="47" type="curve"/>
      <point x="511" y="0" type="line"/>
      <point x="670" y="0" type="line"/>
      <point x="557" y="130" type="line"/>
      <point x="612" y="202"/>
      <point x="641" y="295"/>
      <point x="641" y="392" type="curve" smooth="yes"/>
      <point x="641" y="395" type="line"/>
      <point x="504" y="395" type="line"/>
      <point x="504" y="392" type="line" smooth="yes"/>
      <point x="504" y="329"/>
      <point x="492" y="275"/>
      <point x="471" y="230" type="curve"/>
      <point x="320" y="403" type="line"/>
      <point x="400" y="450"/>
      <point x="479" y="501"/>
      <point x="479" y="608" type="curve" smooth="yes"/>
      <point x="479" y="619" type="line" smooth="yes"/>
      <point x="479" y="714"/>
      <point x="416" y="793"/>
      <point x="273" y="793" type="curve" smooth="yes"/>
      <point x="129" y="793"/>
      <point x="66" y="714"/>
      <point x="66" y="619" type="curve" smooth="yes"/>
      <point x="66" y="608" type="line" smooth="yes"/>
      <point x="66" y="530"/>
      <point x="93" y="484"/>
      <point x="141" y="426" type="curve"/>
      <point x="78" y="381"/>
      <point x="26" y="320"/>
      <point x="26" y="219" type="curve" smooth="yes"/>
      <point x="26" y="208" type="line" smooth="yes"/>
      <point x="26" y="74"/>
      <point x="111" y="-13"/>
    </contour>
    <contour>
      <point x="274" y="101" type="line" smooth="yes"/>
      <point x="197" y="101"/>
      <point x="160" y="147"/>
      <point x="160" y="219" type="curve" smooth="yes"/>
      <point x="160" y="226" type="line" smooth="yes"/>
      <point x="160" y="274"/>
      <point x="183" y="308"/>
      <point x="218" y="337" type="curve"/>
      <point x="393" y="135" type="line"/>
      <point x="361" y="113"/>
      <point x="322" y="101"/>
      <point x="279" y="101" type="curve" smooth="yes"/>
    </contour>
    <contour>
      <point x="198" y="614" type="line" smooth="yes"/>
      <point x="198" y="652"/>
      <point x="223" y="683"/>
      <point x="269" y="683" type="curve" smooth="yes"/>
      <point x="276" y="683" type="line" smooth="yes"/>
      <point x="322" y="683"/>
      <point x="347" y="652"/>
      <point x="347" y="614" type="curve" smooth="yes"/>
      <point x="347" y="607" type="line" smooth="yes"/>
      <point x="347" y="555"/>
      <point x="301" y="522"/>
      <point x="245" y="489" type="curve"/>
      <point x="218" y="524"/>
      <point x="198" y="564"/>
      <point x="198" y="607" type="curve" smooth="yes"/>
    </contour>
  </outline>
</glyph>
<glyph name="quotesingle" format="1">
  <advance width="250"/>
  <unicode hex="0027"/>
  <outline>
    <contour>
      <point x="54" y="780" type="line"/>
      <point x="75" y="474" type="line"/>
      <point x="175" y="474" type="line"/>
      <point x="196" y="780" type="line"/>
    </contour>
  </outline>
</glyph>
<glyph name="parenleft" format="1">
  <advance width="350"/>
  <unicode hex="0028"/>
  <outline>
    <contour>
      <point x="42" y="350" type="line" smooth="yes"/>
      <point x="42" y="119"/>
      <point x="108" y="-3"/>
      <point x="190" y="-120" type="curve"/>
      <point x="326" y="-120" type="line"/>
      <point x="241" y="7"/>
      <point x="173" y="143"/>
      <point x="173" y="350" type="curve" smooth="yes"/>
      <point x="173" y="370" type="line" smooth="yes"/>
      <point x="173" y="577"/>
      <point x="241" y="713"/>
      <point x="326" y="840" type="curve"/>
      <point x="190" y="840" type="line"/>
      <point x="108" y="723"/>
      <point x="42" y="601"/>
      <point x="42" y="370" type="curve" smooth="yes"/>
    </contour>
  </outline>
</glyph>
<glyph name="parenright" format="1">
  <advance width="350"/>
  <unicode hex="0029"/>
  <outline>
    <contour>
      <point x="308" y="370" type="line" smooth="yes"/>
      <point x="308" y="601"/>
      <point x="242" y="723"/>
      <point x="160" y="840" type="curve"/>
      <point x="24" y="840" type="line"/>
      <point x="110" y="713"/>
      <point x="177" y="577"/>
      <point x="177" y="370" type="curve" smooth="yes"/>
      <point x="177" y="350" type="line" smooth="yes"/>
      <point x="177" y="143"/>
      <point x="110" y="7"/>
      <point x="24" y="-120" type="curve"/>
      <point x="160" y="-120" type="line"/>
      <point x="242" y="-3"/>
      <point x="308" y="119"/>
      <point x="308" y="350" type="curve" smooth="yes"/>
    </contour>
  </outline>
</glyph>
<glyph name="asterisk" format="1">
  <advance width="405"/>
  <unicode hex="002A"/>
  <outline>
    <contour>
      <point x="164" y="800" type="line"/>
      <point x="169" y="663" type="line"/>
      <point x="236" y="663" type="line"/>
      <point x="241" y="800" type="line"/>
    </contour>
    <contour>
      <point x="6" y="629" type="line"/>
      <point x="139" y="592" type="line"/>
      <point x="160" y="656" type="line"/>
      <point x="31" y="703" type="line"/>
    </contour>
    <contour>
      <point x="120" y="426" type="line"/>
      <point x="197" y="540" type="line"/>
      <point x="142" y="580" type="line"/>
      <point x="57" y="472" type="line"/>
    </contour>
    <contour>
      <point x="374" y="703" type="line"/>
      <point x="245" y="656" type="line"/>
      <point x="266" y="592" type="line"/>
      <point x="399" y="629" type="line"/>
    </contour>
    <contour>
      <point x="348" y="472" type="line"/>
      <point x="263" y="580" type="line"/>
      <point x="208" y="540" type="line"/>
      <point x="285" y="426" type="line"/>
    </contour>
  </outline>
</glyph>
<glyph name="plus" format="1">
  <advance width="600"/>
  <unicode hex="002B"/>
  <outline>
    <contour>
      <point x="241" y="646" type="line"/>
      <point x="241" y="449" type="line"/>
      <point x="44" y="449" type="line"/>
      <point x="44" y="331" type="line"/>
      <point x="241" y="331" type="line"/>
      <point x="241" y="134" type="line"/>
      <point x="359" y="134" type="line"/>
      <point x="359" y="331" type="line"/>
      <point x="556" y="331" type="line"/>
      <point x="556" y="449" type="line"/>
      <point x="359" y="449" type="line"/>
      <point x="359" y="646" type="line"/>
    </contour>
  </outline>
</glyph>
<glyph name="hyphen" format="1">
  <advance width="345"/>
  <unicode hex="002D"/>
  <outline>
    <contour>
      <point x="40" y="293" type="line"/>
      <point x="305" y="293" type="line"/>
      <point x="305" y="407" type="line"/>
      <point x="40" y="407" type="line"/>
    </contour>
  </outline>
</glyph>
<glyph name="period" format="1">
  <advance width="250"/>
  <unicode hex="002E"/>
  <outline>
    <contour>
      <point x="196" y="141" type="line"/>
      <point x="54" y="141" type="line"/>
      <point x="54" y="0" type="line"/>
      <point x="196" y="0" type="line"/>
    </contour>
  </outline>
</glyph>
<glyph name="slash" format="1">
  <advance width="388"/>
  <unicode hex="002F"/>
  <outline>
    <contour>
      <point x="373" y="840" type="line"/>
      <point x="245" y="840" type="line"/>
      <point x="15" y="-120" type="line"/>
      <point x="143" y="-120" type="line"/>
    </contour>
  </outline>
</glyph>
<glyph name="zero" format="1">
  <advance width="600"/>
  <unicode hex="0030"/>
  <outline>
    <contour>
      <point x="550" y="222" type="curve" smooth="yes"/>
      <point x="550" y="558" type="line" smooth="yes"/>
      <point x="550" y="693"/>
      <point x="470" y="793"/>
      <point x="300" y="793" type="curve" smooth="yes"/>
      <point x="130" y="793"/>
      <point x="50" y="693"/>
      <point x="50" y="558" type="curve" smooth="yes"/>
      <point x="50" y="222" type="line" smooth="yes"/>
      <point x="50" y="87"/>
      <point x="130" y="-13"/>
      <point x="300" y="-13" type="curve" smooth="yes"/>
      <point x="470" y="-13"/>
      <point x="550" y="87"/>
    </contour>
    <contour>
      <point x="417" y="554" type="curve" smooth="yes"/>
      <point x="417" y="226" type="line" smooth="yes"/>
      <point x="417" y="153"/>
      <point x="385" y="104"/>
      <point x="302" y="104" type="curve" smooth="yes"/>
      <point x="298" y="104" type="line" smooth="yes"/>
      <point x="215" y="104"/>
      <point x="183" y="153"/>
      <point x="183" y="226" type="curve" smooth="yes"/>
      <point x="183" y="554" type="line" smooth="yes"/>
      <point x="183" y="627"/>
      <point x="215" y="676"/>
      <point x="298" y="676" type="curve" smooth="yes"/>
      <point x="302" y="676" type="line" smooth="yes"/>
      <point x="385" y="676"/>
      <point x="417" y="627"/>
    </contour>
  </outline>
</glyph>
<glyph name="one" format="1">
  <advance width="600"/>
  <unicode hex="0031"/>
  <outline>
    <contour>
      <point x="558" y="0" type="line"/>
      <point x="558" y="117" type="line"/>
      <point x="376" y="117" type="line"/>
      <point x="376" y="782" type="line"/>
      <point x="280" y="782" type="line"/>
      <point x="37" y="616" type="line"/>
      <point x="102" y="519" type="line"/>
      <point x="244" y="615" type="line"/>
      <point x="244" y="117" type="line"/>
      <point x="62" y="117" type="line"/>
      <point x="62" y="0" type="line"/>
    </contour>
  </outline>
</glyph>
<glyph name="two" format="1">
  <advance width="600"/>
  <unicode hex="0032"/>
  <outline>
    <contour>
      <point x="309" y="117" type="line"/>
      <point x="239" y="116" type="line"/>
      <point x="464" y="361" type="line" smooth="yes"/>
      <point x="526" y="428"/>
      <point x="553" y="474"/>
      <point x="553" y="562" type="curve" smooth="yes"/>
      <point x="553" y="579" type="line" smooth="yes"/>
      <point x="553" y="687"/>
      <point x="480" y="793"/>
      <point x="300" y="793" type="curve" smooth="yes"/>
      <point x="127" y="793"/>
      <point x="47" y="706"/>
      <point x="47" y="541" type="curve" smooth="yes"/>
      <point x="47" y="520" type="line"/>
      <point x="179" y="520" type="line"/>
      <point x="179" y="634"/>
      <point x="222" y="676"/>
      <point x="296" y="676" type="curve" smooth="yes"/>
      <point x="304" y="676" type="line" smooth="yes"/>
      <point x="372" y="676"/>
      <point x="420" y="634"/>
      <point x="420" y="555" type="curve" smooth="yes"/>
      <point x="420" y="545" type="line" smooth="yes"/>
      <point x="420" y="498"/>
      <point x="402" y="468"/>
      <point x="360" y="423" type="curve" smooth="yes"/>
      <point x="47" y="83" type="line"/>
      <point x="47" y="0" type="line"/>
      <point x="553" y="0" type="line"/>
      <point x="553" y="117" type="line"/>
    </contour>
  </outline>
</glyph>
<glyph name="three" format="1">
  <advance width="600"/>
  <unicode hex="0033"/>
  <outline>
    <contour>
      <point x="174" y="250" type="curve"/>
      <point x="42" y="250" type="line"/>
      <point x="42" y="237" type="line" smooth="yes"/>
      <point x="42" y="80"/>
      <point x="127" y="-13"/>
      <point x="300" y="-13" type="curve" smooth="yes"/>
      <point x="475" y="-13"/>
      <point x="558" y="99"/>
      <point x="558" y="206" type="curve" smooth="yes"/>
      <point x="558" y="224" type="line" smooth="yes"/>
      <point x="558" y="313"/>
      <point x="513" y="369"/>
      <point x="454" y="398" type="curve"/>
      <point x="510" y="427"/>
      <point x="553" y="481"/>
      <point x="553" y="567" type="curve" smooth="yes"/>
      <point x="553" y="585" type="line" smooth="yes"/>
      <point x="553" y="687"/>
      <point x="480" y="793"/>
      <point x="300" y="793" type="curve" smooth="yes"/>
      <point x="127" y="793"/>
      <point x="47" y="706"/>
      <point x="47" y="541" type="curve" smooth="yes"/>
      <point x="47" y="520" type="line"/>
      <point x="179" y="520" type="line"/>
      <point x="179" y="634"/>
      <point x="221" y="676"/>
      <point x="295" y="676" type="curve" smooth="yes"/>
      <point x="305" y="676" type="line" smooth="yes"/>
      <point x="373" y="676"/>
      <point x="420" y="634"/>
      <point x="420" y="569" type="curve" smooth="yes"/>
      <point x="420" y="560" type="line" smooth="yes"/>
      <point x="420" y="489"/>
      <point x="374" y="456"/>
      <point x="306" y="456" type="curve" smooth="yes"/>
      <point x="200" y="456" type="line"/>
      <point x="200" y="340" type="line"/>
      <point x="309" y="340" type="line" smooth="yes"/>
      <point x="378" y="340"/>
      <point x="425" y="304"/>
      <point x="425" y="231" type="curve" smooth="yes"/>
      <point x="425" y="219" type="line" smooth="yes"/>
      <point x="425" y="139"/>
      <point x="368" y="104"/>
      <point x="305" y="104" type="curve" smooth="yes"/>
      <point x="295" y="104" type="line" smooth="yes"/>
      <point x="224" y="104"/>
      <point x="174" y="144"/>
    </contour>
  </outline>
</glyph>
<glyph name="four" format="1">
  <advance width="600"/>
  <unicode hex="0034"/>
  <outline>
    <contour>
      <point x="472" y="0" type="line"/>
      <point x="472" y="182" type="line"/>
      <point x="571" y="182" type="line"/>
      <point x="571" y="298" type="line"/>
      <point x="472" y="298" type="line"/>
      <point x="472" y="780" type="line"/>
      <point x="347" y="780" type="line"/>
      <point x="29" y="273" type="line"/>
      <point x="29" y="182" type="line"/>
      <point x="340" y="182" type="line"/>
      <point x="340" y="0" type="line"/>
    </contour>
    <contour>
      <point x="342" y="568" type="line"/>
      <point x="340" y="497" type="line"/>
      <point x="340" y="298" type="line"/>
      <point x="232" y="298" type="line"/>
      <point x="170" y="297" type="line"/>
    </contour>
  </outline>
</glyph>
<glyph name="five" format="1">
  <advance width="600"/>
  <unicode hex="0035"/>
  <outline>
    <contour>
      <point x="42" y="250" type="line"/>
      <point x="42" y="237" type="line" smooth="yes"/>
      <point x="42" y="80"/>
      <point x="127" y="-13"/>
      <point x="300" y="-13" type="curve" smooth="yes"/>
      <point x="462" y="-13"/>
      <point x="558" y="81"/>
      <point x="558" y="237" type="curve" smooth="yes"/>
      <point x="558" y="253" type="line" smooth="yes"/>
      <point x="558" y="409"/>
      <point x="462" y="503"/>
      <point x="306" y="503" type="curve" smooth="yes"/>
      <point x="255" y="503"/>
      <point x="208" y="490"/>
      <point x="170" y="469" type="curve"/>
      <point x="179" y="663" type="line"/>
      <point x="548" y="663" type="line"/>
      <point x="548" y="780" type="line"/>
      <point x="67" y="780" type="line"/>
      <point x="48" y="349" type="line"/>
      <point x="161" y="311" type="line"/>
      <point x="185" y="362"/>
      <point x="241" y="386"/>
      <point x="292" y="386" type="curve" smooth="yes"/>
      <point x="299" y="386" type="line" smooth="yes"/>
      <point x="368" y="386"/>
      <point x="425" y="348"/>
      <point x="425" y="252" type="curve" smooth="yes"/>
      <point x="425" y="238" type="line" smooth="yes"/>
      <point x="425" y="142"/>
      <point x="368" y="104"/>
      <point x="305" y="104" type="curve" smooth="yes"/>
      <point x="295" y="104" type="line" smooth="yes"/>
      <point x="224" y="104"/>
      <point x="174" y="144"/>
      <point x="174" y="250" type="curve"/>
    </contour>
  </outline>
</glyph>
<glyph name="six" format="1">
  <advance width="600"/>
  <unicode hex="0036"/>
  <outline>
    <contour>
      <point x="521" y="793" type="line"/>
      <point x="374" y="793"/>
      <point x="240" y="756"/>
      <point x="154" y="641" type="curve" smooth="yes"/>
      <point x="71" y="530"/>
      <point x="44" y="407"/>
      <point x="44" y="283" type="curve" smooth="yes"/>
      <point x="44" y="270" type="line" smooth="yes"/>
      <point x="44" y="97"/>
      <point x="141" y="-13"/>
      <point x="302" y="-13" type="curve" smooth="yes"/>
      <point x="467" y="-13"/>
      <point x="559" y="78"/>
      <point x="559" y="236" type="curve" smooth="yes"/>
      <point x="559" y="246" type="line" smooth="yes"/>
      <point x="559" y="403"/>
      <point x="468" y="491"/>
      <point x="336" y="491" type="curve" smooth="yes"/>
      <point x="278" y="491"/>
      <point x="232" y="472"/>
      <point x="196" y="444" type="curve"/>
      <point x="209" y="490"/>
      <point x="229" y="531"/>
      <point x="257" y="567" type="curve" smooth="yes"/>
      <point x="318" y="643"/>
      <point x="409" y="674"/>
      <point x="521" y="674" type="curve"/>
    </contour>
    <contour>
      <point x="304" y="375" type="curve" smooth="yes"/>
      <point x="309" y="375" type="line" smooth="yes"/>
      <point x="378" y="375"/>
      <point x="427" y="335"/>
      <point x="427" y="250" type="curve" smooth="yes"/>
      <point x="427" y="231" type="line" smooth="yes"/>
      <point x="427" y="150"/>
      <point x="375" y="104"/>
      <point x="305" y="104" type="curve" smooth="yes"/>
      <point x="299" y="104" type="line" smooth="yes"/>
      <point x="231" y="104"/>
      <point x="176" y="159"/>
      <point x="176" y="260" type="curve" smooth="yes"/>
      <point x="176" y="299" type="line"/>
      <point x="203" y="348"/>
      <point x="252" y="375"/>
    </contour>
  </outline>
</glyph>
<glyph name="seven" format="1">
  <advance width="600"/>
  <unicode hex="0037"/>
  <outline>
    <contour>
      <point x="43" y="500" type="line"/>
      <point x="160" y="500" type="line"/>
      <point x="160" y="663" type="line"/>
      <point x="312" y="663" type="line"/>
      <point x="412" y="665" type="line"/>
      <point x="136" y="0" type="line"/>
      <point x="277" y="0" type="line"/>
      <point x="561" y="698" type="line"/>
      <point x="561" y="780" type="line"/>
      <point x="43" y="780" type="line"/>
    </contour>
  </outline>
</glyph>
<glyph name="eight" format="1">
  <advance width="600"/>
  <unicode hex="0038"/>
  <outline>
    <contour>
      <point x="300" y="-13" type="curve" smooth="yes"/>
      <point x="475" y="-13"/>
      <point x="558" y="98"/>
      <point x="558" y="205" type="curve" smooth="yes"/>
      <point x="558" y="223" type="line" smooth="yes"/>
      <point x="558" y="312"/>
      <point x="512" y="368"/>
      <point x="454" y="398" type="curve"/>
      <point x="510" y="428"/>
      <point x="553" y="482"/>
      <point x="553" y="568" type="curve" smooth="yes"/>
      <point x="553" y="586" type="line" smooth="yes"/>
      <point x="553" y="688"/>
      <point x="480" y="793"/>
      <point x="300" y="793" type="curve" smooth="yes"/>
      <point x="120" y="793"/>
      <point x="47" y="688"/>
      <point x="47" y="586" type="curve" smooth="yes"/>
      <point x="47" y="568" type="line" smooth="yes"/>
      <point x="47" y="482"/>
      <point x="89" y="428"/>
      <point x="146" y="398" type="curve"/>
      <point x="87" y="368"/>
      <point x="42" y="312"/>
      <point x="42" y="223" type="curve" smooth="yes"/>
      <point x="42" y="205" type="line" smooth="yes"/>
      <point x="42" y="98"/>
      <point x="125" y="-13"/>
    </contour>
    <contour>
      <point x="291" y="340" type="curve" smooth="yes"/>
      <point x="309" y="340" type="line" smooth="yes"/>
      <point x="378" y="340"/>
      <point x="425" y="303"/>
      <point x="425" y="230" type="curve" smooth="yes"/>
      <point x="425" y="218" type="line" smooth="yes"/>
      <point x="425" y="138"/>
      <point x="368" y="104"/>
      <point x="305" y="104" type="curve" smooth="yes"/>
      <point x="295" y="104" type="line" smooth="yes"/>
      <point x="232" y="104"/>
      <point x="175" y="138"/>
      <point x="175" y="218" type="curve" smooth="yes"/>
      <point x="175" y="230" type="line" smooth="yes"/>
      <point x="175" y="303"/>
      <point x="222" y="340"/>
    </contour>
    <contour>
      <point x="305" y="676" type="line" smooth="yes"/>
      <point x="373" y="676"/>
      <point x="420" y="635"/>
      <point x="420" y="570" type="curve" smooth="yes"/>
      <point x="420" y="562" type="line" smooth="yes"/>
      <point x="420" y="490"/>
      <point x="374" y="456"/>
      <point x="306" y="456" type="curve" smooth="yes"/>
      <point x="294" y="456" type="line" smooth="yes"/>
      <point x="226" y="456"/>
      <point x="180" y="490"/>
      <point x="180" y="562" type="curve" smooth="yes"/>
      <point x="180" y="570" type="line" smooth="yes"/>
      <point x="180" y="635"/>
      <point x="227" y="676"/>
      <point x="295" y="676" type="curve" smooth="yes"/>
    </contour>
  </outline>
</glyph>
<glyph name="nine" format="1">
  <advance width="600"/>
  <unicode hex="0039"/>
  <outline>
    <contour>
      <point x="79" y="-13" type="line"/>
      <point x="226" y="-13"/>
      <point x="360" y="24"/>
      <point x="446" y="139" type="curve" smooth="yes"/>
      <point x="529" y="250"/>
      <point x="556" y="373"/>
      <point x="556" y="497" type="curve" smooth="yes"/>
      <point x="556" y="510" type="line" smooth="yes"/>
      <point x="556" y="683"/>
      <point x="459" y="793"/>
      <point x="298" y="793" type="curve" smooth="yes"/>
      <point x="133" y="793"/>
      <point x="41" y="702"/>
      <point x="41" y="544" type="curve" smooth="yes"/>
      <point x="41" y="534" type="line" smooth="yes"/>
      <point x="41" y="377"/>
      <point x="132" y="289"/>
      <point x="264" y="289" type="curve" smooth="yes"/>
      <point x="321" y="289"/>
      <point x="368" y="308"/>
      <point x="403" y="336" type="curve"/>
      <point x="390" y="290"/>
      <point x="371" y="248"/>
      <point x="343" y="213" type="curve" smooth="yes"/>
      <point x="282" y="137"/>
      <point x="191" y="106"/>
      <point x="79" y="106" type="curve"/>
    </contour>
    <contour>
      <point x="296" y="405" type="curve" smooth="yes"/>
      <point x="291" y="405" type="line" smooth="yes"/>
      <point x="222" y="405"/>
      <point x="173" y="445"/>
      <point x="173" y="530" type="curve" smooth="yes"/>
      <point x="173" y="549" type="line" smooth="yes"/>
      <point x="173" y="630"/>
      <point x="225" y="676"/>
      <point x="295" y="676" type="curve" smooth="yes"/>
      <point x="301" y="676" type="line" smooth="yes"/>
      <point x="369" y="676"/>
      <point x="424" y="621"/>
      <point x="424" y="520" type="curve" smooth="yes"/>
      <point x="424" y="510" type="line" smooth="yes"/>
      <point x="424" y="500"/>
      <point x="424" y="490"/>
      <point x="423" y="480" type="curve"/>
      <point x="397" y="432"/>
      <point x="348" y="405"/>
    </contour>
  </outline>
</glyph>
<glyph name="colon" format="1">
  <advance width="250"/>
  <unicode hex="003A"/>
  <outline>
    <contour>
      <point x="196" y="461" type="line"/>
      <point x="54" y="461" type="line"/>
      <point x="54" y="319" type="line"/>
      <point x="196" y="319" type="line"/>
    </contour>
    <contour>
      <point x="196" y="141" type="line"/>
      <point x="54" y="141" type="line"/>
      <point x="54" y="0" type="line"/>
      <point x="196" y="0" type="line"/>
    </contour>
  </outline>
</glyph>
<glyph name="semicolon" format="1">
  <advance width="250"/>
  <unicode hex="003B"/>
  <outline>
    <contour>
      <point x="196" y="141" type="line"/>
      <point x="54" y="141" type="line"/>
      <point x="54" y="0" type="line"/>
      <point x="126" y="0" type="line"/>
      <point x="118" y="-46"/>
      <point x="90" y="-67"/>
      <point x="43" y="-67" type="curve"/>
      <point x="43" y="-135" type="line"/>
      <point x="144" y="-135"/>
      <point x="196" y="-79"/>
      <point x="196" y="30" type="curve" smooth="yes"/>
    </contour>
    <contour>
      <point x="196" y="461" type="line"/>
      <point x="54" y="461" type="line"/>
      <point x="54" y="319" type="line"/>
      <point x="196" y="319" type="line"/>
    </contour>
  </outline>
</glyph>
<glyph name="less" format="1">
  <advance width="600"/>
  <unicode hex="003C"/>
  <outline>
    <contour>
      <point x="44" y="454" type="line"/>
      <point x="44" y="326" type="line"/>
      <point x="556" y="111" type="line"/>
      <point x="556" y="241" type="line"/>
      <point x="184" y="390" type="line"/>
      <point x="556" y="539" type="line"/>
      <point x="556" y="669" type="line"/>
    </contour>
  </outline>
</glyph>
<glyph name="equal" format="1">
  <advance width="600"/>
  <unicode hex="003D"/>
  <outline>
    <contour>
      <point x="44" y="437" type="line"/>
      <point x="556" y="437" type="line"/>
      <point x="556" y="555" type="line"/>
      <point x="44" y="555" type="line"/>
    </contour>
    <contour>
      <point x="44" y="225" type="line"/>
      <point x="556" y="225" type="line"/>
      <point x="556" y="343" type="line"/>
      <point x="44" y="343" type="line"/>
    </contour>
  </outline>
</glyph>
<glyph name="greater" format="1">
  <advance width="600"/>
  <unicode hex="003E"/>
  <outline>
    <contour>
      <point x="556" y="454" type="line"/>
      <point x="44" y="669" type="line"/>
      <point x="44" y="539" type="line"/>
      <point x="416" y="390" type="line"/>
      <point x="44" y="241" type="line"/>
      <point x="44" y="111" type="line"/>
      <point x="556" y="326" type="line"/>
    </contour>
  </outline>
</glyph>
<glyph name="question" format="1">
  <advance width="484"/>
  <unicode hex="003F"/>
  <outline>
    <contour>
      <point x="246" y="677" type="curve" smooth="yes"/>
      <point x="311" y="677"/>
      <point x="330" y="639"/>
      <point x="330" y="578" type="curve" smooth="yes"/>
      <point x="330" y="473"/>
      <point x="181" y="409"/>
      <point x="194" y="216" type="curve"/>
      <point x="284" y="216" type="line"/>
      <point x="297" y="408"/>
      <point x="463" y="389"/>
      <point x="463" y="589" type="curve" smooth="yes"/>
      <point x="463" y="697"/>
      <point x="411" y="793"/>
      <point x="246" y="793" type="curve" smooth="yes"/>
      <point x="77" y="793"/>
      <point x="23" y="692"/>
      <point x="23" y="528" type="curve" smooth="yes"/>
      <point x="23" y="513" type="line"/>
      <point x="154" y="513" type="line"/>
      <point x="154" y="622"/>
      <point x="176" y="677"/>
    </contour>
    <contour>
      <point x="310" y="141" type="line"/>
      <point x="168" y="141" type="line"/>
      <point x="168" y="0" type="line"/>
      <point x="310" y="0" type="line"/>
    </contour>
  </outline>
</glyph>
<glyph name="at" format="1">
  <advance width="981"/>
  <unicode hex="0040"/>
  <outline>
    <contour>
      <point x="510" y="-124" type="line" smooth="yes"/>
      <point x="280" y="-124"/>
      <point x="119" y="8"/>
      <point x="119" y="270" type="curve" smooth="yes"/>
      <point x="119" y="310" type="line" smooth="yes"/>
      <point x="119" y="568"/>
      <point x="279" y="704"/>
      <point x="505" y="704" type="curve" smooth="yes"/>
      <point x="511" y="704" type="line" smooth="yes"/>
      <point x="686" y="704"/>
      <point x="860" y="633"/>
      <point x="860" y="395" type="curve" smooth="yes"/>
      <point x="860" y="365" type="line" smooth="yes"/>
      <point x="860" y="195"/>
      <point x="807" y="152"/>
      <point x="689" y="147" type="curve"/>
      <point x="689" y="390" type="line"/>
      <point x="697" y="530" type="line"/>
      <point x="595" y="530" type="line"/>
      <point x="584" y="466" type="line"/>
      <point x="557" y="510"/>
      <point x="511" y="543"/>
      <point x="441" y="543" type="curve" smooth="yes"/>
      <point x="312" y="543"/>
      <point x="252" y="441"/>
      <point x="252" y="310" type="curve" smooth="yes"/>
      <point x="252" y="280" type="line" smooth="yes"/>
      <point x="252" y="149"/>
      <point x="312" y="47"/>
      <point x="441" y="47" type="curve" smooth="yes"/>
      <point x="511" y="47"/>
      <point x="557" y="80"/>
      <point x="584" y="123" type="curve"/>
      <point x="595" y="60" type="line"/>
      <point x="681" y="60" type="line" smooth="yes"/>
      <point x="836" y="60"/>
      <point x="953" y="125"/>
      <point x="953" y="365" type="curve" smooth="yes"/>
      <point x="953" y="395" type="line" smooth="yes"/>
      <point x="953" y="674"/>
      <point x="747" y="793"/>
      <point x="508" y="793" type="curve" smooth="yes"/>
      <point x="229" y="793"/>
      <point x="29" y="619"/>
      <point x="29" y="310" type="curve" smooth="yes"/>
      <point x="29" y="270" type="line" smooth="yes"/>
      <point x="29" y="-39"/>
      <point x="230" y="-213"/>
      <point x="513" y="-213" type="curve" smooth="yes"/>
      <point x="630" y="-213"/>
      <point x="764" y="-190"/>
      <point x="896" y="-86" type="curve"/>
      <point x="845" y="-17" type="line"/>
      <point x="746" y="-90"/>
      <point x="637" y="-124"/>
      <point x="516" y="-124" type="curve" smooth="yes"/>
    </contour>
    <contour>
      <point x="574" y="208" type="line"/>
      <point x="559" y="184"/>
      <point x="525" y="150"/>
      <point x="474" y="150" type="curve" smooth="yes"/>
      <point x="404" y="150"/>
      <point x="373" y="202"/>
      <point x="373" y="280" type="curve" smooth="yes"/>
      <point x="373" y="310" type="line" smooth="yes"/>
      <point x="373" y="388"/>
      <point x="404" y="440"/>
      <point x="474" y="440" type="curve" smooth="yes"/>
      <point x="525" y="440"/>
      <point x="559" y="406"/>
      <point x="574" y="382" type="curve"/>
    </contour>
  </outline>
</glyph>
<glyph name="B" format="1">
  <advance width="617"/>
  <unicode hex="0042"/>
  <outline>
    <contour>
      <point x="61" y="780" type="line"/>
      <point x="61" y="0" type="line"/>
      <point x="310" y="0" type="line" smooth="yes"/>
      <point x="438" y="0"/>
      <point x="566" y="42"/>
      <point x="566" y="219" type="curve" smooth="yes"/>
      <point x="566" y="239" type="line" smooth="yes"/>
      <point x="566" y="328"/>
      <point x="520" y="376"/>
      <point x="459" y="402" type="curve"/>
      <point x="510" y="428"/>
      <point x="546" y="473"/>
      <point x="546" y="550" type="curve" smooth="yes"/>
      <point x="546" y="570" type="line" smooth="yes"/>
      <point x="546" y="741"/>
      <point x="424" y="780"/>
      <point x="300" y="780" type="curve" smooth="yes"/>
    </contour>
    <contour>
      <point x="315" y="341" type="line" smooth="yes"/>
      <point x="373" y="341"/>
      <point x="430" y="315"/>
      <point x="430" y="234" type="curve" smooth="yes"/>
      <point x="430" y="223" type="line" smooth="yes"/>
      <point x="430" y="143"/>
      <point x="373" y="117"/>
      <point x="315" y="117" type="curve" smooth="yes"/>
      <point x="195" y="117" type="line"/>
      <point x="195" y="341" type="line"/>
    </contour>
    <contour>
      <point x="300" y="663" type="line" smooth="yes"/>
      <point x="356" y="663"/>
      <point x="410" y="642"/>
      <point x="410" y="567" type="curve" smooth="yes"/>
      <point x="410" y="554" type="line" smooth="yes"/>
      <point x="410" y="479"/>
      <point x="356" y="458"/>
      <point x="300" y="458" type="curve" smooth="yes"/>
      <point x="195" y="458" type="line"/>
      <point x="195" y="663" type="line"/>
    </contour>
  </outline>
</glyph>
<glyph name="E" format="1">
  <advance width="565"/>
  <unicode hex="0045"/>
  <outline>
    <contour>
      <point x="61" y="780" type="line"/>
      <point x="61" y="0" type="line"/>
      <point x="525" y="0" type="line"/>
      <point x="525" y="117" type="line"/>
      <point x="195" y="117" type="line"/>
      <point x="195" y="340" type="line"/>
      <point x="475" y="340" type="line"/>
      <point x="475" y="456" type="line"/>
      <point x="195" y="456" type="line"/>
      <point x="195" y="663" type="line"/>
      <point x="525" y="663" type="line"/>
      <point x="525" y="780" type="line"/>
    </contour>
  </outline>
</glyph>
<glyph name="F" format="1">
  <advance width="538"/>
  <unicode hex="0046"/>
  <outline>
    <contour>
      <point x="61" y="780" type="line"/>
      <point x="61" y="0" type="line"/>
      <point x="195" y="0" type="line"/>
      <point x="195" y="340" type="line"/>
      <point x="468" y="340" type="line"/>
      <point x="468" y="456" type="line"/>
      <point x="195" y="456" type="line"/>
      <point x="195" y="663" type="line"/>
      <point x="518" y="663" type="line"/>
      <point x="518" y="780" type="line"/>
    </contour>
  </outline>
</glyph>
<glyph name="I" format="1">
  <advance width="266"/>
  <unicode hex="0049"/>
  <outline>
    <contour>
      <point x="200" y="780" type="line"/>
      <point x="66" y="780" type="line"/>
      <point x="66" y="0" type="line"/>
      <point x="200" y="0" type="line"/>
    </contour>
  </outline>
</glyph>
<glyph name="J" format="1">
  <advance width="524"/>
  <unicode hex="004A"/>
  <outline>
    <contour>
      <point x="334" y="780" type="line"/>
      <point x="334" y="256" type="line" smooth="yes"/>
      <point x="334" y="156"/>
      <point x="311" y="104"/>
      <point x="243" y="104" type="curve" smooth="yes"/>
      <point x="174" y="104"/>
      <point x="152" y="156"/>
      <point x="152" y="263" type="curve"/>
      <point x="25" y="263" type="line"/>
      <point x="25" y="240" type="line" smooth="yes"/>
      <point x="25" y="79"/>
      <point x="81" y="-13"/>
      <point x="246" y="-13" type="curve" smooth="yes"/>
      <point x="405" y="-13"/>
      <point x="468" y="81"/>
      <point x="468" y="239" type="curve" smooth="yes"/>
      <point x="468" y="780" type="line"/>
    </contour>
  </outline>
</glyph>
<glyph name="K" format="1">
  <advance width="606"/>
  <unicode hex="004B"/>
  <outline>
    <contour>
      <point x="195" y="780" type="line"/>
      <point x="61" y="780" type="line"/>
      <point x="61" y="0" type="line"/>
      <point x="195" y="0" type="line"/>
      <point x="195" y="230" type="line"/>
      <point x="274" y="342" type="line"/>
      <point x="432" y="0" type="line"/>
      <point x="581" y="0" type="line"/>
      <point x="359" y="463" type="line"/>
      <point x="581" y="780" type="line"/>
      <point x="419" y="780" type="line"/>
      <point x="195" y="435" type="line"/>
    </contour>
  </outline>
</glyph>
<glyph name="L" format="1">
  <advance width="511"/>
  <unicode hex="004C"/>
  <outline>
    <contour>
      <point x="496" y="0" type="line"/>
      <point x="496" y="117" type="line"/>
      <point x="195" y="117" type="line"/>
      <point x="195" y="780" type="line"/>
      <point x="61" y="780" type="line"/>
      <point x="61" y="0" type="line"/>
    </contour>
  </outline>
</glyph>
<glyph name="M" format="1">
  <advance width="849"/>
  <unicode hex="004D"/>
  <outline>
    <contour>
      <point x="658" y="547" type="line"/>
      <point x="654" y="386" type="line"/>
      <point x="654" y="0" type="line"/>
      <point x="788" y="0" type="line"/>
      <point x="788" y="780" type="line"/>
      <point x="591" y="780" type="line"/>
      <point x="424" y="232" type="line"/>
      <point x="258" y="780" type="line"/>
      <point x="61" y="780" type="line"/>
      <point x="61" y="0" type="line"/>
      <point x="195" y="0" type="line"/>
      <point x="195" y="386" type="line"/>
      <point x="191" y="547" type="line"/>
      <point x="357" y="0" type="line"/>
      <point x="491" y="0" type="line"/>
    </contour>
  </outline>
</glyph>
<glyph name="N" format="1">
  <advance width="675"/>
  <unicode hex="004E"/>
  <outline>
    <contour>
      <point x="614" y="780" type="line"/>
      <point x="487" y="780" type="line"/>
      <point x="487" y="407" type="line"/>
      <point x="491" y="242" type="line"/>
      <point x="203" y="780" type="line"/>
      <point x="61" y="780" type="line"/>
      <point x="61" y="0" type="line"/>
      <point x="188" y="0" type="line"/>
      <point x="188" y="373" type="line"/>
      <point x="184" y="538" type="line"/>
      <point x="472" y="0" type="line"/>
      <point x="614" y="0" type="line"/>
    </contour>
  </outline>
</glyph>
<glyph name="P" format="1">
  <advance width="598"/>
  <unicode hex="0050"/>
  <outline>
    <contour>
      <point x="195" y="291" type="line"/>
      <point x="305" y="291" type="line" smooth="yes"/>
      <point x="427" y="291"/>
      <point x="566" y="327"/>
      <point x="566" y="526" type="curve" smooth="yes"/>
      <point x="566" y="546" type="line" smooth="yes"/>
      <point x="566" y="744"/>
      <point x="427" y="780"/>
      <point x="305" y="780" type="curve" smooth="yes"/>
      <point x="61" y="780" type="line"/>
      <point x="61" y="0" type="line"/>
      <point x="195" y="0" type="line"/>
    </contour>
    <contour>
      <point x="195" y="408" type="line"/>
      <point x="195" y="663" type="line"/>
      <point x="310" y="663" type="line" smooth="yes"/>
      <point x="362" y="663"/>
      <point x="430" y="644"/>
      <point x="430" y="541" type="curve" smooth="yes"/>
      <point x="430" y="530" type="line" smooth="yes"/>
      <point x="430" y="427"/>
      <point x="362" y="408"/>
      <point x="310" y="408" type="curve" smooth="yes"/>
    </contour>
  </outline>
</glyph>
<glyph name="Q" format="1">
  <advance width="665"/>
  <unicode hex="0051"/>
  <outline>
    <contour>
      <point x="333" y="-13" type="curve" smooth="yes"/>
      <point x="347" y="-13"/>
      <point x="361" y="-12"/>
      <point x="375" y="-11" type="curve"/>
      <point x="409" y="-100" type="line"/>
      <point x="516" y="-100" type="line"/>
      <point x="471" y="13" type="line"/>
      <point x="572" y="61"/>
      <point x="621" y="174"/>
      <point x="621" y="370" type="curve" smooth="yes"/>
      <point x="621" y="410" type="line" smooth="yes"/>
      <point x="621" y="680"/>
      <point x="528" y="793"/>
      <point x="333" y="793" type="curve" smooth="yes"/>
      <point x="137" y="793"/>
      <point x="44" y="680"/>
      <point x="44" y="410" type="curve" smooth="yes"/>
      <point x="44" y="370" type="line" smooth="yes"/>
      <point x="44" y="100"/>
      <point x="137" y="-13"/>
    </contour>
    <contour>
      <point x="378" y="251" type="line"/>
      <point x="275" y="251" type="line"/>
      <point x="331" y="104" type="line"/>
      <point x="328" y="104" type="line" smooth="yes"/>
      <point x="219" y="104"/>
      <point x="181" y="194"/>
      <point x="181" y="370" type="curve" smooth="yes"/>
      <point x="181" y="410" type="line" smooth="yes"/>
      <point x="181" y="586"/>
      <point x="219" y="676"/>
      <point x="328" y="676" type="curve" smooth="yes"/>
      <point x="337" y="676" type="line" smooth="yes"/>
      <point x="446" y="676"/>
      <point x="484" y="586"/>
      <point x="484" y="410" type="curve" smooth="yes"/>
      <point x="484" y="370" type="line" smooth="yes"/>
      <point x="484" y="253"/>
      <point x="467" y="174"/>
      <point x="424" y="134" type="curve"/>
    </contour>
  </outline>
</glyph>
<glyph name="R" format="1">
  <advance width="611"/>
  <unicode hex="0052"/>
  <outline>
    <contour>
      <point x="195" y="291" type="line"/>
      <point x="309" y="291" type="line"/>
      <point x="421" y="0" type="line"/>
      <point x="566" y="0" type="line"/>
      <point x="439" y="312" type="line"/>
      <point x="510" y="340"/>
      <point x="566" y="401"/>
      <point x="566" y="526" type="curve" smooth="yes"/>
      <point x="566" y="546" type="line" smooth="yes"/>
      <point x="566" y="744"/>
      <point x="427" y="780"/>
      <point x="305" y="780" type="curve" smooth="yes"/>
      <point x="61" y="780" type="line"/>
      <point x="61" y="0" type="line"/>
      <point x="195" y="0" type="line"/>
    </contour>
    <contour>
      <point x="195" y="408" type="line"/>
      <point x="195" y="663" type="line"/>
      <point x="310" y="663" type="line" smooth="yes"/>
      <point x="362" y="663"/>
      <point x="430" y="644"/>
      <point x="430" y="541" type="curve" smooth="yes"/>
      <point x="430" y="530" type="line" smooth="yes"/>
      <point x="430" y="427"/>
      <point x="362" y="408"/>
      <point x="310" y="408" type="curve" smooth="yes"/>
    </contour>
  </outline>
</glyph>
<glyph name="T" format="1">
  <advance width="544"/>
  <unicode hex="0054"/>
  <outline>
    <contour>
      <point x="339" y="663" type="line"/>
      <point x="525" y="663" type="line"/>
      <point x="525" y="780" type="line"/>
      <point x="19" y="780" type="line"/>
      <point x="19" y="663" type="line"/>
      <point x="205" y="663" type="line"/>
      <point x="205" y="0" type="line"/>
      <point x="339" y="0" type="line"/>
    </contour>
  </outline>
</glyph>
<glyph name="V" format="1">
  <advance width="631"/>
  <unicode hex="0056"/>
  <outline>
    <contour>
      <point x="408" y="-4" type="line"/>
      <point x="613" y="780" type="line"/>
      <point x="469" y="780" type="line"/>
      <point x="316" y="149" type="line"/>
      <point x="162" y="780" type="line"/>
      <point x="18" y="780" type="line"/>
      <point x="223" y="-4" type="line"/>
    </contour>
  </outline>
</glyph>
<glyph name="W" format="1">
  <advance width="924"/>
  <unicode hex="0057"/>
  <outline>
    <contour>
      <point x="590" y="-4" type="line"/>
      <point x="764" y="-4" type="line"/>
      <point x="898" y="780" type="line"/>
      <point x="758" y="780" type="line"/>
      <point x="669" y="176" type="line"/>
      <point x="546" y="780" type="line"/>
      <point x="377" y="780" type="line"/>
      <point x="255" y="176" type="line"/>
      <point x="166" y="780" type="line"/>
      <point x="26" y="780" type="line"/>
      <point x="160" y="-4" type="line"/>
      <point x="333" y="-4" type="line"/>
      <point x="462" y="628" type="line"/>
    </contour>
  </outline>
</glyph>
<glyph name="X" format="1">
  <advance width="638"/>
  <unicode hex="0058"/>
  <outline>
    <contour>
      <point x="22" y="0" type="line"/>
      <point x="172" y="0" type="line"/>
      <point x="318" y="312" type="line"/>
      <point x="466" y="0" type="line"/>
      <point x="615" y="0" type="line"/>
      <point x="414" y="406" type="line"/>
      <point x="615" y="780" type="line"/>
      <point x="459" y="780" type="line"/>
      <point x="319" y="499" type="line"/>
      <point x="178" y="780" type="line"/>
      <point x="22" y="780" type="line"/>
      <point x="223" y="405" type="line"/>
    </contour>
  </outline>
</glyph>
<glyph name="Y" format="1">
  <advance width="610"/>
  <unicode hex="0059"/>
  <outline>
    <contour>
      <point x="372" y="238" type="line"/>
      <point x="598" y="780" type="line"/>
      <point x="452" y="780" type="line"/>
      <point x="305" y="403" type="line"/>
      <point x="158" y="780" type="line"/>
      <point x="12" y="780" type="line"/>
      <point x="238" y="238" type="line"/>
      <point x="238" y="0" type="line"/>
      <point x="372" y="0" type="line"/>
    </contour>
  </outline>
</glyph>
<glyph name="bracketleft" format="1">
  <advance width="350"/>
  <unicode hex="005B"/>
  <outline>
    <contour>
      <point x="61" y="840" type="line"/>
      <point x="61" y="-120" type="line"/>
      <point x="315" y="-120" type="line"/>
      <point x="315" y="-5" type="line"/>
      <point x="191" y="-5" type="line"/>
      <point x="191" y="725" type="line"/>
      <point x="315" y="725" type="line"/>
      <point x="315" y="840" type="line"/>
    </contour>
  </outline>
</glyph>
<glyph name="backslash" format="1">
  <advance width="386"/>
  <unicode hex="005C"/>
  <outline>
    <contour>
      <point x="245" y="-120" type="line"/>
      <point x="373" y="-120" type="line"/>
      <point x="143" y="840" type="line"/>
      <point x="15" y="840" type="line"/>
    </contour>
  </outline>
</glyph>
<glyph name="bracketright" format="1">
  <advance width="350"/>
  <unicode hex="005D"/>
  <outline>
    <contour>
      <point x="290" y="-120" type="line"/>
      <point x="290" y="840" type="line"/>
      <point x="36" y="840" type="line"/>
      <point x="36" y="725" type="line"/>
      <point x="159" y="725" type="line"/>
      <point x="159" y="-5" type="line"/>
      <point x="36" y="-5" type="line"/>
      <point x="36" y="-120" type="line"/>
    </contour>
  </outline>
</glyph>
<glyph name="asciicircum" format="1">
  <advance width="600"/>
  <unicode hex="005E"/>
  <outline>
    <contour>
      <point x="364" y="780" type="line"/>
      <point x="236" y="780" type="line"/>
      <point x="21" y="267" type="line"/>
      <point x="151" y="267" type="line"/>
      <point x="300" y="640" type="line"/>
      <point x="449" y="267" type="line"/>
      <point x="579" y="267" type="line"/>
    </contour>
  </outline>
</glyph>
<glyph name="underscore" format="1">
  <advance width="320"/>
  <unicode hex="005F"/>
  <outline>
    <contour>
      <point x="44" y="-169" type="line"/>
      <point x="276" y="-169" type="line"/>
      <point x="276" y="-55" type="line"/>
      <point x="44" y="-55" type="line"/>
    </contour>
  </outline>
</glyph>
<glyph name="grave" format="1">
  <advance width="500"/>
  <unicode hex="0060"/>
  <outline>
    <contour>
      <point x="82" y="780" type="line"/>
      <point x="185" y="601" type="line"/>
      <point x="315" y="601" type="line"/>
      <point x="224" y="780" type="line"/>
    </contour>
  </outline>
</glyph>
<glyph name="b" format="1">
  <advance width="563"/>
  <unicode hex="0062"/>
  <outline>
    <contour>
      <point x="187" y="800" type="line"/>
      <point x="57" y="800" type="line"/>
      <point x="57" y="150" type="line"/>
      <point x="49" y="0" type="line"/>
      <point x="164" y="0" type="line"/>
      <point x="175" y="66" type="line"/>
      <point x="204" y="21"/>
      <point x="252" y="-13"/>
      <point x="328" y="-13" type="curve" smooth="yes"/>
      <point x="473" y="-13"/>
      <point x="526" y="98"/>
      <point x="526" y="249" type="curve" smooth="yes"/>
      <point x="526" y="281" type="line" smooth="yes"/>
      <point x="526" y="433"/>
      <point x="473" y="543"/>
      <point x="328" y="543" type="curve" smooth="yes"/>
      <point x="262" y="543"/>
      <point x="217" y="517"/>
      <point x="187" y="481" type="curve"/>
    </contour>
    <contour>
      <point x="187" y="369" type="line"/>
      <point x="203" y="394"/>
      <point x="236" y="430"/>
      <point x="291" y="430" type="curve" smooth="yes"/>
      <point x="365" y="430"/>
      <point x="396" y="374"/>
      <point x="396" y="281" type="curve" smooth="yes"/>
      <point x="396" y="249" type="line" smooth="yes"/>
      <point x="396" y="156"/>
      <point x="365" y="101"/>
      <point x="291" y="101" type="curve" smooth="yes"/>
      <point x="236" y="101"/>
      <point x="203" y="136"/>
      <point x="187" y="161" type="curve"/>
    </contour>
  </outline>
</glyph>
<glyph name="i" format="1">
  <advance width="250"/>
  <unicode hex="0069"/>
  <outline>
    <contour>
      <point x="60" y="0" type="line"/>
      <point x="190" y="0" type="line"/>
      <point x="190" y="530" type="line"/>
      <point x="60" y="530" type="line"/>
    </contour>
    <contour>
      <point x="196" y="763" type="line"/>
      <point x="54" y="763" type="line"/>
      <point x="54" y="622" type="line"/>
      <point x="196" y="622" type="line"/>
    </contour>
  </outline>
</glyph>
<glyph name="j" format="1">
  <advance width="252"/>
  <unicode hex="006A"/>
  <outline>
    <contour>
      <point x="60" y="-13" type="line" smooth="yes"/>
      <point x="60" y="-84"/>
      <point x="28" y="-100"/>
      <point x="-26" y="-100" type="curve" smooth="yes"/>
      <point x="-45" y="-100"/>
      <point x="-70" y="-95"/>
      <point x="-77" y="-92" type="curve"/>
      <point x="-77" y="-200" type="line"/>
      <point x="-69" y="-204"/>
      <point x="-41" y="-213"/>
      <point x="5" y="-213" type="curve" smooth="yes"/>
      <point x="114" y="-213"/>
      <point x="190" y="-164"/>
      <point x="190" y="-28" type="curve" smooth="yes"/>
      <point x="190" y="530" type="line"/>
      <point x="60" y="530" type="line"/>
    </contour>
    <contour>
      <point x="196" y="763" type="line"/>
      <point x="54" y="763" type="line"/>
      <point x="54" y="622" type="line"/>
      <point x="196" y="622" type="line"/>
    </contour>
  </outline>
</glyph>
<glyph name="n" format="1">
  <advance width="563"/>
  <unicode hex="006E"/>
  <outline>
    <contour>
      <point x="511" y="0" type="line"/>
      <point x="511" y="363" type="line" smooth="yes"/>
      <point x="511" y="459"/>
      <point x="464" y="543"/>
      <point x="348" y="543" type="curve" smooth="yes"/>
      <point x="264" y="543"/>
      <point x="209" y="508"/>
      <point x="176" y="460" type="curve"/>
      <point x="164" y="530" type="line"/>
      <point x="49" y="530" type="line"/>
      <point x="58" y="380" type="line"/>
      <point x="58" y="0" type="line"/>
      <point x="188" y="0" type="line"/>
      <point x="188" y="369" type="line"/>
      <point x="203" y="394"/>
      <point x="237" y="430"/>
      <point x="298" y="430" type="curve" smooth="yes"/>
      <point x="357" y="430"/>
      <point x="382" y="393"/>
      <point x="382" y="342" type="curve" smooth="yes"/>
      <point x="382" y="0" type="line"/>
    </contour>
  </outline>
</glyph>
<glyph name="p" format="1">
  <advance width="563"/>
  <unicode hex="0070"/>
  <outline>
    <contour>
      <point x="328" y="-13" type="curve" smooth="yes"/>
      <point x="473" y="-13"/>
      <point x="526" y="98"/>
      <point x="526" y="249" type="curve" smooth="yes"/>
      <point x="526" y="281" type="line" smooth="yes"/>
      <point x="526" y="433"/>
      <point x="473" y="543"/>
      <point x="328" y="543" type="curve" smooth="yes"/>
      <point x="252" y="543"/>
      <point x="204" y="509"/>
      <point x="175" y="464" type="curve"/>
      <point x="164" y="530" type="line"/>
      <point x="49" y="530" type="line"/>
      <point x="57" y="380" type="line"/>
      <point x="57" y="-200" type="line"/>
      <point x="187" y="-200" type="line"/>
      <point x="187" y="49" type="line"/>
      <point x="217" y="12"/>
      <point x="262" y="-13"/>
    </contour>
    <contour>
      <point x="187" y="369" type="line"/>
      <point x="203" y="394"/>
      <point x="236" y="430"/>
      <point x="291" y="430" type="curve" smooth="yes"/>
      <point x="365" y="430"/>
      <point x="396" y="374"/>
      <point x="396" y="281" type="curve" smooth="yes"/>
      <point x="396" y="249" type="line" smooth="yes"/>
      <point x="396" y="156"/>
      <point x="365" y="101"/>
      <point x="291" y="101" type="curve" smooth="yes"/>
      <point x="236" y="101"/>
      <point x="203" y="136"/>
      <point x="187" y="161" type="curve"/>
    </contour>
  </outline>
</glyph>
<glyph name="q" format="1">
  <advance width="568"/>
  <unicode hex="0071"/>
  <outline>
    <contour>
      <point x="378" y="-200" type="line"/>
      <point x="508" y="-200" type="line"/>
      <point x="508" y="380" type="line"/>
      <point x="516" y="530" type="line"/>
      <point x="401" y="530" type="line"/>
      <point x="390" y="463" type="line"/>
      <point x="361" y="509"/>
      <point x="313" y="543"/>
      <point x="237" y="543" type="curve" smooth="yes"/>
      <point x="92" y="543"/>
      <point x="38" y="433"/>
      <point x="38" y="281" type="curve" smooth="yes"/>
      <point x="38" y="249" type="line" smooth="yes"/>
      <point x="38" y="98"/>
      <point x="92" y="-13"/>
      <point x="237" y="-13" type="curve" smooth="yes"/>
      <point x="303" y="-13"/>
      <point x="348" y="13"/>
      <point x="378" y="50" type="curve"/>
    </contour>
    <contour>
      <point x="378" y="161" type="line"/>
      <point x="362" y="136"/>
      <point x="329" y="101"/>
      <point x="273" y="101" type="curve" smooth="yes"/>
      <point x="200" y="101"/>
      <point x="168" y="156"/>
      <point x="168" y="249" type="curve" smooth="yes"/>
      <point x="168" y="281" type="line" smooth="yes"/>
      <point x="168" y="374"/>
      <point x="200" y="430"/>
      <point x="273" y="430" type="curve" smooth="yes"/>
      <point x="329" y="430"/>
      <point x="362" y="394"/>
      <point x="378" y="369" type="curve"/>
    </contour>
  </outline>
</glyph>
<glyph name="r" format="1">
  <advance width="368"/>
  <unicode hex="0072"/>
  <outline>
    <contour>
      <point x="318" y="543" type="curve" smooth="yes"/>
      <point x="253" y="543"/>
      <point x="205" y="510"/>
      <point x="175" y="466" type="curve"/>
      <point x="164" y="530" type="line"/>
      <point x="49" y="530" type="line"/>
      <point x="58" y="380" type="line"/>
      <point x="58" y="0" type="line"/>
      <point x="188" y="0" type="line"/>
      <point x="188" y="360" type="line"/>
      <point x="204" y="384"/>
      <point x="241" y="416"/>
      <point x="311" y="416" type="curve" smooth="yes"/>
      <point x="333" y="416" type="line"/>
      <point x="333" y="542" type="line"/>
      <point x="330" y="542"/>
      <point x="324" y="543"/>
    </contour>
  </outline>
</glyph>
<glyph name="s" format="1">
  <advance width="526"/>
  <unicode hex="0073"/>
  <outline>
    <contour>
      <point x="263" y="88" type="curve" smooth="yes"/>
      <point x="193" y="88"/>
      <point x="171" y="123"/>
      <point x="171" y="166" type="curve"/>
      <point x="42" y="166" type="line"/>
      <point x="42" y="162" type="line" smooth="yes"/>
      <point x="42" y="66"/>
      <point x="110" y="-13"/>
      <point x="263" y="-13" type="curve" smooth="yes"/>
      <point x="409" y="-13"/>
      <point x="484" y="54"/>
      <point x="484" y="159" type="curve" smooth="yes"/>
      <point x="484" y="166" type="line" smooth="yes"/>
      <point x="484" y="273"/>
      <point x="407" y="304"/>
      <point x="274" y="315" type="curve" smooth="yes"/>
      <point x="196" y="321"/>
      <point x="177" y="340"/>
      <point x="177" y="379" type="curve" smooth="yes"/>
      <point x="177" y="418"/>
      <point x="208" y="442"/>
      <point x="263" y="442" type="curve" smooth="yes"/>
      <point x="327" y="442"/>
      <point x="351" y="410"/>
      <point x="351" y="357" type="curve"/>
      <point x="478" y="357" type="line"/>
      <point x="478" y="362" type="line" smooth="yes"/>
      <point x="478" y="472"/>
      <point x="415" y="543"/>
      <point x="263" y="543" type="curve" smooth="yes"/>
      <point x="138" y="543"/>
      <point x="49" y="489"/>
      <point x="49" y="376" type="curve" smooth="yes"/>
      <point x="49" y="368" type="line" smooth="yes"/>
      <point x="49" y="275"/>
      <point x="106" y="234"/>
      <point x="253" y="222" type="curve" smooth="yes"/>
      <point x="328" y="216"/>
      <point x="354" y="200"/>
      <point x="354" y="154" type="curve" smooth="yes"/>
      <point x="354" y="115"/>
      <point x="325" y="88"/>
    </contour>
  </outline>
</glyph>
<glyph name="v" format="1">
  <advance width="538"/>
  <unicode hex="0076"/>
  <outline>
    <contour>
      <point x="179" y="0" type="line"/>
      <point x="359" y="0" type="line"/>
      <point x="523" y="530" type="line"/>
      <point x="388" y="530" type="line"/>
      <point x="269" y="108" type="line"/>
      <point x="150" y="530" type="line"/>
      <point x="14" y="530" type="line"/>
    </contour>
  </outline>
</glyph>
<glyph name="w" format="1">
  <advance width="750"/>
  <unicode hex="0077"/>
  <outline>
    <contour>
      <point x="375" y="393" type="line"/>
      <point x="464" y="0" type="line"/>
      <point x="629" y="0" type="line"/>
      <point x="728" y="530" type="line"/>
      <point x="600" y="530" type="line"/>
      <point x="543" y="140" type="line"/>
      <point x="453" y="530" type="line"/>
      <point x="297" y="530" type="line"/>
      <point x="207" y="140" type="line"/>
      <point x="150" y="530" type="line"/>
      <point x="23" y="530" type="line"/>
      <point x="121" y="0" type="line"/>
      <point x="286" y="0" type="line"/>
    </contour>
  </outline>
</glyph>
<glyph name="x" format="1">
  <advance width="535"/>
  <unicode hex="0078"/>
  <outline>
    <contour>
      <point x="19" y="530" type="line"/>
      <point x="163" y="271" type="line"/>
      <point x="19" y="0" type="line"/>
      <point x="167" y="0" type="line"/>
      <point x="267" y="204" type="line"/>
      <point x="368" y="0" type="line"/>
      <point x="516" y="0" type="line"/>
      <point x="372" y="271" type="line"/>
      <point x="516" y="530" type="line"/>
      <point x="365" y="530" type="line"/>
      <point x="268" y="339" type="line"/>
      <point x="170" y="530" type="line"/>
    </contour>
  </outline>
</glyph>
<glyph name="y" format="1">
  <advance width="530"/>
  <unicode hex="0079"/>
  <outline>
    <contour>
      <point x="268" y="162" type="line"/>
      <point x="152" y="530" type="line"/>
      <point x="11" y="530" type="line"/>
      <point x="198" y="26" type="line"/>
      <point x="114" y="-200" type="line"/>
      <point x="268" y="-200" type="line"/>
      <point x="338" y="26" type="line"/>
      <point x="525" y="530" type="line"/>
      <point x="385" y="530" type="line"/>
    </contour>
  </outline>
</glyph>
<glyph name="z" format="1">
  <advance width="489"/>
  <unicode hex="007A"/>
  <outline>
    <contour>
      <point x="28" y="89" type="line"/>
      <point x="28" y="0" type="line"/>
      <point x="461" y="0" type="line"/>
      <point x="461" y="114" type="line"/>
      <point x="311" y="114" type="line"/>
      <point x="198" y="111" type="line"/>
      <point x="451" y="441" type="line"/>
      <point x="451" y="530" type="line"/>
      <point x="38" y="530" type="line"/>
      <point x="38" y="416" type="line"/>
      <point x="168" y="416" type="line"/>
      <point x="281" y="419" type="line"/>
    </contour>
  </outline>
</glyph>
<glyph name="braceleft" format="1">
  <advance width="350"/>
  <unicode hex="007B"/>
  <outline>
    <contour>
      <point x="315" y="840" type="line"/>
      <point x="290" y="840" type="line" smooth="yes"/>
      <point x="182" y="840"/>
      <point x="102" y="799"/>
      <point x="102" y="674" type="curve" smooth="yes"/>
      <point x="102" y="501" type="line" smooth="yes"/>
      <point x="102" y="438"/>
      <point x="77" y="418"/>
      <point x="24" y="418" type="curve"/>
      <point x="24" y="302" type="line"/>
      <point x="75" y="302"/>
      <point x="100" y="283"/>
      <point x="102" y="226" type="curve" smooth="yes"/>
      <point x="102" y="46" type="line" smooth="yes"/>
      <point x="102" y="-79"/>
      <point x="182" y="-120"/>
      <point x="290" y="-120" type="curve" smooth="yes"/>
      <point x="315" y="-120" type="line"/>
      <point x="315" y="-5" type="line"/>
      <point x="261" y="-5"/>
      <point x="233" y="18"/>
      <point x="233" y="86" type="curve" smooth="yes"/>
      <point x="233" y="248" type="line" smooth="yes"/>
      <point x="233" y="304"/>
      <point x="211" y="339"/>
      <point x="174" y="360" type="curve"/>
      <point x="211" y="380"/>
      <point x="233" y="415"/>
      <point x="233" y="472" type="curve" smooth="yes"/>
      <point x="233" y="634" type="line" smooth="yes"/>
      <point x="233" y="702"/>
      <point x="261" y="725"/>
      <point x="315" y="725" type="curve"/>
    </contour>
  </outline>
</glyph>
<glyph name="braceright" format="1">
  <advance width="350"/>
  <unicode hex="007D"/>
  <outline>
    <contour>
      <point x="36" y="-120" type="line"/>
      <point x="60" y="-120" type="line" smooth="yes"/>
      <point x="168" y="-120"/>
      <point x="248" y="-79"/>
      <point x="248" y="46" type="curve" smooth="yes"/>
      <point x="248" y="226" type="line" smooth="yes"/>
      <point x="250" y="283"/>
      <point x="275" y="302"/>
      <point x="326" y="302" type="curve"/>
      <point x="326" y="418" type="line"/>
      <point x="275" y="418"/>
      <point x="250" y="436"/>
      <point x="248" y="494" type="curve" smooth="yes"/>
      <point x="248" y="674" type="line" smooth="yes"/>
      <point x="248" y="799"/>
      <point x="168" y="840"/>
      <point x="60" y="840" type="curve" smooth="yes"/>
      <point x="36" y="840" type="line"/>
      <point x="36" y="725" type="line"/>
      <point x="89" y="725"/>
      <point x="117" y="702"/>
      <point x="117" y="634" type="curve" smooth="yes"/>
      <point x="117" y="472" type="line" smooth="yes"/>
      <point x="117" y="415"/>
      <point x="138" y="380"/>
      <point x="175" y="360" type="curve"/>
      <point x="138" y="339"/>
      <point x="117" y="304"/>
      <point x="117" y="248" type="curve" smooth="yes"/>
      <point x="117" y="86" type="line" smooth="yes"/>
      <point x="117" y="18"/>
      <point x="89" y="-5"/>
      <point x="36" y="-5" type="curve"/>
    </contour>
  </outline>
</glyph>
<glyph name="asciitilde" format="1">
  <advance width="600"/>
  <unicode hex="007E"/>
  <outline>
    <contour>
      <point x="182" y="473" type="curve" smooth="yes"/>
      <point x="111" y="473"/>
      <point x="60" y="428"/>
      <point x="31" y="384" type="curve"/>
      <point x="94" y="320" type="line"/>
      <point x="111" y="340"/>
      <point x="144" y="371"/>
      <point x="186" y="371" type="curve" smooth="yes"/>
      <point x="263" y="371"/>
      <point x="314" y="303"/>
      <point x="418" y="303" type="curve" smooth="yes"/>
      <point x="489" y="303"/>
      <point x="540" y="348"/>
      <point x="569" y="392" type="curve"/>
      <point x="506" y="456" type="line"/>
      <point x="489" y="436"/>
      <point x="456" y="405"/>
      <point x="414" y="405" type="curve" smooth="yes"/>
      <point x="337" y="405"/>
      <point x="286" y="473"/>
    </contour>
  </outline>
</glyph>
<glyph name="exclamdown" format="1">
  <advance width="250"/>
  <unicode hex="00A1"/>
  <outline>
    <contour>
      <point x="206" y="-200" type="line"/>
      <point x="170" y="314" type="line"/>
      <point x="80" y="314" type="line"/>
      <point x="44" y="-200" type="line"/>
    </contour>
    <contour>
      <point x="54" y="389" type="line"/>
      <point x="196" y="389" type="line"/>
      <point x="196" y="530" type="line"/>
      <point x="54" y="530" type="line"/>
    </contour>
  </outline>
</glyph>
<glyph name="cent" format="1">
  <advance width="600"/>
  <unicode hex="00A2"/>
  <outline>
    <contour>
      <point x="454" y="840" type="line"/>
      <point x="352" y="840" type="line"/>
      <point x="325" y="730" type="line"/>
      <point x="309" y="730" type="line" smooth="yes"/>
      <point x="130" y="730"/>
      <point x="46" y="619"/>
      <point x="46" y="407" type="curve" smooth="yes"/>
      <point x="46" y="373" type="line" smooth="yes"/>
      <point x="46" y="227"/>
      <point x="86" y="129"/>
      <point x="171" y="83" type="curve"/>
      <point x="137" y="-60" type="line"/>
      <point x="239" y="-60" type="line"/>
      <point x="266" y="54" type="line"/>
      <point x="280" y="53"/>
      <point x="294" y="52"/>
      <point x="309" y="52" type="curve" smooth="yes"/>
      <point x="474" y="52"/>
      <point x="554" y="133"/>
      <point x="554" y="275" type="curve" smooth="yes"/>
      <point x="554" y="291" type="line"/>
      <point x="424" y="291" type="line"/>
      <point x="424" y="217"/>
      <point x="393" y="167"/>
      <point x="314" y="167" type="curve" smooth="yes"/>
      <point x="293" y="167" type="line"/>
      <point x="393" y="584" type="line"/>
      <point x="415" y="560"/>
      <point x="424" y="521"/>
      <point x="424" y="470" type="curve"/>
      <point x="554" y="470" type="line"/>
      <point x="554" y="497" type="line" smooth="yes"/>
      <point x="554" y="606"/>
      <point x="511" y="680"/>
      <point x="423" y="712" type="curve"/>
    </contour>
    <contour>
      <point x="180" y="373" type="curve" smooth="yes"/>
      <point x="180" y="407" type="line" smooth="yes"/>
      <point x="180" y="535"/>
      <point x="213" y="607"/>
      <point x="298" y="613" type="curve"/>
      <point x="205" y="227" type="line"/>
      <point x="187" y="261"/>
      <point x="180" y="310"/>
    </contour>
  </outline>
</glyph>
<glyph name="sterling" format="1">
  <advance width="600"/>
  <unicode hex="00A3"/>
  <outline>
    <contour>
      <point x="324" y="677" type="curve" smooth="yes"/>
      <point x="394" y="677"/>
      <point x="423" y="610"/>
      <point x="423" y="500" type="curve"/>
      <point x="554" y="500" type="line"/>
      <point x="554" y="516" type="line" smooth="yes"/>
      <point x="554" y="692"/>
      <point x="493" y="793"/>
      <point x="324" y="793" type="curve" smooth="yes"/>
      <point x="159" y="793"/>
      <point x="100" y="691"/>
      <point x="100" y="581" type="curve" smooth="yes"/>
      <point x="100" y="525"/>
      <point x="108" y="476"/>
      <point x="120" y="429" type="curve"/>
      <point x="47" y="429" type="line"/>
      <point x="47" y="314" type="line"/>
      <point x="155" y="314" type="line"/>
      <point x="176" y="252"/>
      <point x="196" y="189"/>
      <point x="204" y="116" type="curve"/>
      <point x="47" y="116" type="line"/>
      <point x="47" y="0" type="line"/>
      <point x="553" y="0" type="line"/>
      <point x="553" y="116" type="line"/>
      <point x="319" y="116" type="line"/>
      <point x="315" y="188"/>
      <point x="301" y="254"/>
      <point x="286" y="314" type="curve"/>
      <point x="438" y="314" type="line"/>
      <point x="438" y="429" type="line"/>
      <point x="255" y="429" type="line"/>
      <point x="242" y="479"/>
      <point x="232" y="526"/>
      <point x="232" y="570" type="curve" smooth="yes"/>
      <point x="232" y="635"/>
      <point x="259" y="677"/>
    </contour>
  </outline>
</glyph>
<glyph name="yen" format="1">
  <advance width="600"/>
  <unicode hex="00A5"/>
  <outline>
    <contour>
      <point x="42" y="365" type="line"/>
      <point x="191" y="365" type="line"/>
      <point x="228" y="280" type="line"/>
      <point x="42" y="280" type="line"/>
      <point x="42" y="165" type="line"/>
      <point x="233" y="165" type="line"/>
      <point x="233" y="0" type="line"/>
      <point x="367" y="0" type="line"/>
      <point x="367" y="165" type="line"/>
      <point x="558" y="165" type="line"/>
      <point x="558" y="280" type="line"/>
      <point x="372" y="280" type="line"/>
      <point x="409" y="365" type="line"/>
      <point x="558" y="365" type="line"/>
      <point x="558" y="480" type="line"/>
      <point x="459" y="480" type="line"/>
      <point x="590" y="780" type="line"/>
      <point x="443" y="780" type="line"/>
      <point x="300" y="412" type="line"/>
      <point x="157" y="780" type="line"/>
      <point x="10" y="780" type="line"/>
      <point x="141" y="480" type="line"/>
      <point x="42" y="480" type="line"/>
    </contour>
  </outline>
</glyph>
<glyph name="brokenbar" format="1">
  <advance width="243"/>
  <unicode hex="00A6"/>
  <outline>
    <contour>
      <point x="57" y="387" type="line"/>
      <point x="185" y="387" type="line"/>
      <point x="185" y="840" type="line"/>
      <point x="57" y="840" type="line"/>
    </contour>
    <contour>
      <point x="57" y="-120" type="line"/>
      <point x="185" y="-120" type="line"/>
      <point x="185" y="333" type="line"/>
      <point x="57" y="333" type="line"/>
    </contour>
  </outline>
</glyph>
<glyph name="section" format="1">
  <advance width="538"/>
  <unicode hex="00A7"/>
  <outline>
    <contour>
      <point x="503" y="392" type="curve" smooth="yes"/>
      <point x="503" y="400" type="line" smooth="yes"/>
      <point x="503" y="513"/>
      <point x="426" y="548"/>
      <point x="293" y="559" type="curve" smooth="yes"/>
      <point x="215" y="565"/>
      <point x="196" y="590"/>
      <point x="196" y="629" type="curve" smooth="yes"/>
      <point x="196" y="668"/>
      <point x="227" y="692"/>
      <point x="282" y="692" type="curve" smooth="yes"/>
      <point x="346" y="692"/>
      <point x="369" y="659"/>
      <point x="369" y="607" type="curve"/>
      <point x="497" y="607" type="line"/>
      <point x="497" y="611" type="line" smooth="yes"/>
      <point x="497" y="722"/>
      <point x="434" y="793"/>
      <point x="282" y="793" type="curve" smooth="yes"/>
      <point x="157" y="793"/>
      <point x="67" y="739"/>
      <point x="67" y="626" type="curve" smooth="yes"/>
      <point x="67" y="618" type="line" smooth="yes"/>
      <point x="67" y="574"/>
      <point x="80" y="540"/>
      <point x="109" y="514" type="curve"/>
      <point x="60" y="489"/>
      <point x="34" y="447"/>
      <point x="34" y="388" type="curve" smooth="yes"/>
      <point x="34" y="380" type="line" smooth="yes"/>
      <point x="34" y="267"/>
      <point x="112" y="232"/>
      <point x="245" y="221" type="curve" smooth="yes"/>
      <point x="323" y="215"/>
      <point x="342" y="190"/>
      <point x="342" y="151" type="curve" smooth="yes"/>
      <point x="342" y="112"/>
      <point x="311" y="88"/>
      <point x="256" y="88" type="curve" smooth="yes"/>
      <point x="192" y="88"/>
      <point x="168" y="121"/>
      <point x="168" y="173" type="curve"/>
      <point x="41" y="173" type="line"/>
      <point x="41" y="169" type="line" smooth="yes"/>
      <point x="41" y="58"/>
      <point x="103" y="-13"/>
      <point x="256" y="-13" type="curve" smooth="yes"/>
      <point x="381" y="-13"/>
      <point x="470" y="41"/>
      <point x="470" y="154" type="curve" smooth="yes"/>
      <point x="470" y="162" type="line" smooth="yes"/>
      <point x="470" y="205"/>
      <point x="456" y="240"/>
      <point x="428" y="265" type="curve"/>
      <point x="477" y="290"/>
      <point x="503" y="332"/>
    </contour>
    <contour>
      <point x="372" y="390" type="curve" smooth="yes"/>
      <point x="372" y="345"/>
      <point x="340" y="314"/>
      <point x="273" y="314" type="curve" smooth="yes"/>
      <point x="271" y="314" type="line"/>
      <point x="196" y="318"/>
      <point x="165" y="339"/>
      <point x="165" y="390" type="curve" smooth="yes"/>
      <point x="165" y="435"/>
      <point x="197" y="466"/>
      <point x="265" y="466" type="curve" smooth="yes"/>
      <point x="267" y="466" type="line"/>
      <point x="342" y="462"/>
      <point x="372" y="441"/>
    </contour>
  </outline>
</glyph>
<glyph name="dieresis" format="1">
  <advance width="500"/>
  <unicode hex="00A8"/>
  <outline>
    <contour>
      <point x="221" y="763" type="line"/>
      <point x="79" y="763" type="line"/>
      <point x="79" y="622" type="line"/>
      <point x="221" y="622" type="line"/>
    </contour>
    <contour>
      <point x="421" y="763" type="line"/>
      <point x="279" y="763" type="line"/>
      <point x="279" y="622" type="line"/>
      <point x="421" y="622" type="line"/>
    </contour>
  </outline>
</glyph>
<glyph name="copyright" format="1">
  <advance width="920"/>
  <unicode hex="00A9"/>
  <outline>
    <contour>
      <point x="57" y="390" type="curve" smooth="yes"/>
      <point x="57" y="168"/>
      <point x="238" y="-13"/>
      <point x="460" y="-13" type="curve" smooth="yes"/>
      <point x="682" y="-13"/>
      <point x="863" y="168"/>
      <point x="863" y="390" type="curve" smooth="yes"/>
      <point x="863" y="612"/>
      <point x="682" y="793"/>
      <point x="460" y="793" type="curve" smooth="yes"/>
      <point x="238" y="793"/>
      <point x="57" y="612"/>
    </contour>
    <contour>
      <point x="109" y="390" type="curve" smooth="yes"/>
      <point x="109" y="584"/>
      <point x="266" y="741"/>
      <point x="460" y="741" type="curve" smooth="yes"/>
      <point x="654" y="741"/>
      <point x="811" y="584"/>
      <point x="811" y="390" type="curve" smooth="yes"/>
      <point x="811" y="196"/>
      <point x="654" y="39"/>
      <point x="460" y="39" type="curve" smooth="yes"/>
      <point x="266" y="39"/>
      <point x="109" y="196"/>
    </contour>
    <contour>
      <point x="463" y="246" type="curve" smooth="yes"/>
      <point x="391" y="246"/>
      <point x="365" y="304"/>
      <point x="365" y="375" type="curve" smooth="yes"/>
      <point x="365" y="405" type="line" smooth="yes"/>
      <point x="365" y="476"/>
      <point x="391" y="534"/>
      <point x="463" y="534" type="curve" smooth="yes"/>
      <point x="524" y="534"/>
      <point x="549" y="497"/>
      <point x="549" y="449" type="curve"/>
      <point x="661" y="449" type="line"/>
      <point x="661" y="468" type="line" smooth="yes"/>
      <point x="661" y="558"/>
      <point x="600" y="638"/>
      <point x="460" y="638" type="curve" smooth="yes"/>
      <point x="308" y="638"/>
      <point x="246" y="531"/>
      <point x="246" y="405" type="curve" smooth="yes"/>
      <point x="246" y="375" type="line" smooth="yes"/>
      <point x="246" y="249"/>
      <point x="308" y="142"/>
      <point x="460" y="142" type="curve" smooth="yes"/>
      <point x="600" y="142"/>
      <point x="661" y="221"/>
      <point x="661" y="304" type="curve" smooth="yes"/>
      <point x="661" y="322" type="line"/>
      <point x="549" y="322" type="line"/>
      <point x="549" y="284"/>
      <point x="526" y="246"/>
    </contour>
  </outline>
</glyph>
<glyph name="ordfeminine" format="1">
  <advance width="416"/>
  <unicode hex="00AA"/>
  <outline>
    <contour>
      <point x="285" y="387" type="line"/>
      <point x="387" y="387" type="line"/>
      <point x="380" y="499" type="line"/>
      <point x="380" y="642" type="line" smooth="yes"/>
      <point x="380" y="737"/>
      <point x="341" y="793"/>
      <point x="213" y="793" type="curve" smooth="yes"/>
      <point x="84" y="793"/>
      <point x="46" y="727"/>
      <point x="46" y="659" type="curve" smooth="yes"/>
      <point x="46" y="652" type="line"/>
      <point x="154" y="652" type="line"/>
      <point x="154" y="680"/>
      <point x="165" y="706"/>
      <point x="210" y="706" type="curve" smooth="yes"/>
      <point x="252" y="706"/>
      <point x="265" y="686"/>
      <point x="266" y="644" type="curve"/>
      <point x="173" y="630" type="line" smooth="yes"/>
      <point x="91" y="617"/>
      <point x="31" y="589"/>
      <point x="31" y="503" type="curve" smooth="yes"/>
      <point x="31" y="496" type="line" smooth="yes"/>
      <point x="31" y="432"/>
      <point x="65" y="378"/>
      <point x="153" y="378" type="curve" smooth="yes"/>
      <point x="210" y="378"/>
      <point x="250" y="400"/>
      <point x="277" y="431" type="curve"/>
    </contour>
    <contour>
      <point x="385" y="191" type="line"/>
      <point x="385" y="290" type="line"/>
      <point x="42" y="290" type="line"/>
      <point x="42" y="191" type="line"/>
    </contour>
    <contour>
      <point x="193" y="470" type="curve" smooth="yes"/>
      <point x="158" y="470"/>
      <point x="145" y="490"/>
      <point x="145" y="512" type="curve" smooth="yes"/>
      <point x="145" y="517" type="line" smooth="yes"/>
      <point x="145" y="542"/>
      <point x="162" y="560"/>
      <point x="195" y="566" type="curve" smooth="yes"/>
      <point x="266" y="577" type="line"/>
      <point x="266" y="502" type="line"/>
      <point x="253" y="488"/>
      <point x="228" y="470"/>
    </contour>
  </outline>
</glyph>
<glyph name="guillemotleft" format="1">
  <advance width="550"/>
  <unicode hex="00AB"/>
  <outline>
    <contour>
      <point x="263" y="551" type="line"/>
      <point x="50" y="402" type="line"/>
      <point x="50" y="278" type="line"/>
      <point x="263" y="129" type="line"/>
      <point x="263" y="246" type="line"/>
      <point x="141" y="340" type="line"/>
      <point x="263" y="434" type="line"/>
    </contour>
    <contour>
      <point x="500" y="551" type="line"/>
      <point x="288" y="402" type="line"/>
      <point x="288" y="278" type="line"/>
      <point x="500" y="129" type="line"/>
      <point x="500" y="246" type="line"/>
      <point x="378" y="340" type="line"/>
      <point x="500" y="434" type="line"/>
    </contour>
  </outline>
</glyph>
<glyph name="logicalnot" format="1">
  <advance width="600"/>
  <unicode hex="00AC"/>
  <outline>
    <contour>
      <point x="44" y="452" type="line"/>
      <point x="439" y="452" type="line"/>
      <point x="439" y="200" type="line"/>
      <point x="556" y="200" type="line"/>
      <point x="556" y="570" type="line"/>
      <point x="44" y="570" type="line"/>
    </contour>
  </outline>
</glyph>
<glyph name="uni00AD" format="1">
  <advance width="345"/>
  <unicode hex="00AD"/>
  <outline>
    <contour>
      <point x="40" y="293" type="line"/>
      <point x="305" y="293" type="line"/>
      <point x="305" y="407" type="line"/>
      <point x="40" y="407" type="line"/>
    </contour>
  </outline>
</glyph>
<glyph name="registered" format="1">
  <advance width="330"/>
  <unicode hex="00AE"/>
  <outline>
    <contour>
      <point x="17" y="665" type="curve" smooth="yes"/>
      <point x="17" y="584"/>
      <point x="84" y="517"/>
      <point x="165" y="517" type="curve" smooth="yes"/>
      <point x="246" y="517"/>
      <point x="313" y="584"/>
      <point x="313" y="665" type="curve" smooth="yes"/>
      <point x="313" y="746"/>
      <point x="246" y="813"/>
      <point x="165" y="813" type="curve" smooth="yes"/>
      <point x="84" y="813"/>
      <point x="17" y="746"/>
    </contour>
    <contour>
      <point x="41" y="665" type="curve" smooth="yes"/>
      <point x="41" y="733"/>
      <point x="97" y="789"/>
      <point x="165" y="789" type="curve" smooth="yes"/>
      <point x="233" y="789"/>
      <point x="289" y="733"/>
      <point x="289" y="665" type="curve" smooth="yes"/>
      <point x="289" y="597"/>
      <point x="233" y="541"/>
      <point x="165" y="541" type="curve" smooth="yes"/>
      <point x="97" y="541"/>
      <point x="41" y="597"/>
    </contour>
    <contour>
      <point x="238" y="690" type="curve" smooth="yes"/>
      <point x="238" y="696" type="line" smooth="yes"/>
      <point x="238" y="737"/>
      <point x="209" y="751"/>
      <point x="178" y="751" type="curve" smooth="yes"/>
      <point x="92" y="751" type="line"/>
      <point x="92" y="579" type="line"/>
      <point x="141" y="579" type="line"/>
      <point x="141" y="635" type="line"/>
      <point x="164" y="635" type="line"/>
      <point x="187" y="579" type="line"/>
      <point x="238" y="579" type="line"/>
      <point x="209" y="640" type="line"/>
      <point x="226" y="648"/>
      <point x="238" y="663"/>
    </contour>
    <contour>
      <point x="189" y="694" type="curve" smooth="yes"/>
      <point x="189" y="692" type="line" smooth="yes"/>
      <point x="189" y="677"/>
      <point x="180" y="672"/>
      <point x="167" y="672" type="curve" smooth="yes"/>
      <point x="141" y="672" type="line"/>
      <point x="141" y="714" type="line"/>
      <point x="167" y="714" type="line" smooth="yes"/>
      <point x="180" y="714"/>
      <point x="189" y="709"/>
    </contour>
  </outline>
</glyph>
<glyph name="macron" format="1">
  <advance width="500"/>
  <unicode hex="00AF"/>
  <outline>
    <contour>
      <point x="111" y="633" type="line"/>
      <point x="389" y="633" type="line"/>
      <point x="389" y="748" type="line"/>
      <point x="111" y="748" type="line"/>
    </contour>
  </outline>
</glyph>
<glyph name="degree" format="1">
  <advance width="400"/>
  <unicode hex="00B0"/>
  <outline>
    <contour>
      <point x="277" y="629" type="line" smooth="yes"/>
      <point x="277" y="583"/>
      <point x="244" y="555"/>
      <point x="202" y="555" type="curve" smooth="yes"/>
      <point x="198" y="555" type="line" smooth="yes"/>
      <point x="156" y="555"/>
      <point x="123" y="583"/>
      <point x="123" y="629" type="curve" smooth="yes"/>
      <point x="123" y="635" type="line" smooth="yes"/>
      <point x="123" y="681"/>
      <point x="156" y="709"/>
      <point x="198" y="709" type="curve" smooth="yes"/>
      <point x="202" y="709" type="line" smooth="yes"/>
      <point x="244" y="709"/>
      <point x="277" y="681"/>
      <point x="277" y="635" type="curve" smooth="yes"/>
    </contour>
    <contour>
      <point x="359" y="634" type="line" smooth="yes"/>
      <point x="359" y="732"/>
      <point x="291" y="793"/>
      <point x="200" y="793" type="curve" smooth="yes"/>
      <point x="109" y="793"/>
      <point x="41" y="732"/>
      <point x="41" y="634" type="curve" smooth="yes"/>
      <point x="41" y="630" type="line" smooth="yes"/>
      <point x="41" y="532"/>
      <point x="109" y="472"/>
      <point x="200" y="472" type="curve" smooth="yes"/>
      <point x="291" y="472"/>
      <point x="359" y="532"/>
      <point x="359" y="630" type="curve" smooth="yes"/>
    </contour>
  </outline>
</glyph>
<glyph name="plusminus" format="1">
  <advance width="600"/>
  <unicode hex="00B1"/>
  <outline>
    <contour>
      <point x="241" y="665" type="line"/>
      <point x="241" y="548" type="line"/>
      <point x="44" y="548" type="line"/>
      <point x="44" y="430" type="line"/>
      <point x="241" y="430" type="line"/>
      <point x="241" y="313" type="line"/>
      <point x="359" y="313" type="line"/>
      <point x="359" y="430" type="line"/>
      <point x="556" y="430" type="line"/>
      <point x="556" y="548" type="line"/>
      <point x="359" y="548" type="line"/>
      <point x="359" y="665" type="line"/>
    </contour>
    <contour>
      <point x="44" y="144" type="line"/>
      <point x="556" y="144" type="line"/>
      <point x="556" y="261" type="line"/>
      <point x="44" y="261" type="line"/>
    </contour>
  </outline>
</glyph>
<glyph name="twosuperior" format="1">
  <advance width="300"/>
  <unicode hex="00B2"/>
  <outline>
    <contour>
      <point x="281" y="476" type="line"/>
      <point x="157" y="476" type="line"/>
      <point x="238" y="565" type="line" smooth="yes"/>
      <point x="264" y="595"/>
      <point x="281" y="618"/>
      <point x="281" y="666" type="curve" smooth="yes"/>
      <point x="281" y="677" type="line" smooth="yes"/>
      <point x="281" y="723"/>
      <point x="252" y="787"/>
      <point x="150" y="787" type="curve" smooth="yes"/>
      <point x="61" y="787"/>
      <point x="19" y="745"/>
      <point x="19" y="659" type="curve" smooth="yes"/>
      <point x="19" y="650" type="line"/>
      <point x="119" y="650" type="line"/>
      <point x="119" y="688"/>
      <point x="132" y="700"/>
      <point x="147" y="700" type="curve" smooth="yes"/>
      <point x="152" y="700" type="line" smooth="yes"/>
      <point x="168" y="700"/>
      <point x="181" y="688"/>
      <point x="181" y="658" type="curve" smooth="yes"/>
      <point x="181" y="653" type="line" smooth="yes"/>
      <point x="181" y="634"/>
      <point x="173" y="625"/>
      <point x="161" y="612" type="curve" smooth="yes"/>
      <point x="19" y="453" type="line"/>
      <point x="19" y="390" type="line"/>
      <point x="281" y="390" type="line"/>
    </contour>
  </outline>
</glyph>
<glyph name="threesuperior" format="1">
  <advance width="300"/>
  <unicode hex="00B3"/>
  <outline>
    <contour>
      <point x="116" y="515" type="curve"/>
      <point x="16" y="515" type="line"/>
      <point x="16" y="507" type="line" smooth="yes"/>
      <point x="16" y="427"/>
      <point x="61" y="382"/>
      <point x="150" y="382" type="curve" smooth="yes"/>
      <point x="252" y="382"/>
      <point x="283" y="453"/>
      <point x="283" y="496" type="curve" smooth="yes"/>
      <point x="283" y="506" type="line" smooth="yes"/>
      <point x="283" y="546"/>
      <point x="264" y="573"/>
      <point x="240" y="589" type="curve"/>
      <point x="263" y="605"/>
      <point x="281" y="632"/>
      <point x="281" y="672" type="curve" smooth="yes"/>
      <point x="281" y="682" type="line" smooth="yes"/>
      <point x="281" y="723"/>
      <point x="252" y="787"/>
      <point x="150" y="787" type="curve" smooth="yes"/>
      <point x="61" y="787"/>
      <point x="19" y="745"/>
      <point x="19" y="659" type="curve" smooth="yes"/>
      <point x="19" y="650" type="line"/>
      <point x="119" y="650" type="line"/>
      <point x="119" y="688"/>
      <point x="132" y="700"/>
      <point x="147" y="700" type="curve" smooth="yes"/>
      <point x="152" y="700" type="line" smooth="yes"/>
      <point x="168" y="700"/>
      <point x="181" y="688"/>
      <point x="181" y="671" type="curve" smooth="yes"/>
      <point x="181" y="665" type="line" smooth="yes"/>
      <point x="181" y="644"/>
      <point x="172" y="633"/>
      <point x="151" y="633" type="curve" smooth="yes"/>
      <point x="100" y="633" type="line"/>
      <point x="100" y="545" type="line"/>
      <point x="152" y="545" type="line" smooth="yes"/>
      <point x="173" y="545"/>
      <point x="184" y="534"/>
      <point x="184" y="513" type="curve" smooth="yes"/>
      <point x="184" y="508" type="line" smooth="yes"/>
      <point x="184" y="481"/>
      <point x="169" y="469"/>
      <point x="152" y="469" type="curve" smooth="yes"/>
      <point x="147" y="469" type="line" smooth="yes"/>
      <point x="132" y="469"/>
      <point x="116" y="478"/>
    </contour>
  </outline>
</glyph>
<glyph name="acute" format="1">
  <advance width="500"/>
  <unicode hex="00B4"/>
  <outline>
    <contour>
      <point x="276" y="780" type="line"/>
      <point x="185" y="601" type="line"/>
      <point x="315" y="601" type="line"/>
      <point x="418" y="780" type="line"/>
    </contour>
  </outline>
</glyph>
<glyph name="paragraph" format="1">
  <advance width="538"/>
  <unicode hex="00B6"/>
  <outline>
    <contour>
      <point x="236" y="0" type="line"/>
      <point x="300" y="0" type="line"/>
      <point x="300" y="663" type="line"/>
      <point x="346" y="663" type="line"/>
      <point x="346" y="0" type="line"/>
      <point x="480" y="0" type="line"/>
      <point x="480" y="780" type="line"/>
      <point x="288" y="780" type="line" smooth="yes"/>
      <point x="166" y="780"/>
      <point x="27" y="744"/>
      <point x="27" y="546" type="curve" smooth="yes"/>
      <point x="27" y="526" type="line" smooth="yes"/>
      <point x="27" y="355"/>
      <point x="129" y="304"/>
      <point x="236" y="293" type="curve"/>
    </contour>
    <contour>
      <point x="163" y="530" type="curve" smooth="yes"/>
      <point x="163" y="541" type="line" smooth="yes"/>
      <point x="163" y="614"/>
      <point x="197" y="645"/>
      <point x="236" y="656" type="curve"/>
      <point x="236" y="414" type="line"/>
      <point x="197" y="425"/>
      <point x="163" y="456"/>
    </contour>
  </outline>
</glyph>
<glyph name="periodcentered" format="1">
  <advance width="250"/>
  <unicode hex="00B7"/>
  <outline>
    <contour>
      <point x="196" y="421" type="line"/>
      <point x="54" y="421" type="line"/>
      <point x="54" y="279" type="line"/>
      <point x="196" y="279" type="line"/>
    </contour>
  </outline>
</glyph>
<glyph name="cedilla" format="1">
  <advance width="602"/>
  <unicode hex="00B8"/>
  <outline>
    <contour>
      <point x="150" y="-190" type="line"/>
      <point x="169" y="-203"/>
      <point x="207" y="-214"/>
      <point x="252" y="-214" type="curve" smooth="yes"/>
      <point x="326" y="-214"/>
      <point x="366" y="-186"/>
      <point x="366" y="-129" type="curve" smooth="yes"/>
      <point x="366" y="-73"/>
      <point x="319" y="-47"/>
      <point x="266" y="-45" type="curve"/>
      <point x="283" y="0" type="line"/>
      <point x="217" y="0" type="line"/>
      <point x="188" y="-75" type="line"/>
      <point x="205" y="-101" type="line"/>
      <point x="205" y="-101"/>
      <point x="222" y="-97"/>
      <point x="239" y="-97" type="curve" smooth="yes"/>
      <point x="274" y="-97"/>
      <point x="292" y="-105"/>
      <point x="292" y="-122" type="curve" smooth="yes"/>
      <point x="292" y="-139"/>
      <point x="277" y="-147"/>
      <point x="241" y="-147" type="curve" smooth="yes"/>
      <point x="215" y="-147"/>
      <point x="187" y="-141"/>
      <point x="170" y="-131" type="curve"/>
    </contour>
  </outline>
</glyph>
<glyph name="onesuperior" format="1">
  <advance width="300"/>
  <unicode hex="00B9"/>
  <outline>
    <contour>
      <point x="287" y="390" type="line"/>
      <point x="287" y="476" type="line"/>
      <point x="209" y="476" type="line"/>
      <point x="209" y="779" type="line"/>
      <point x="133" y="779" type="line"/>
      <point x="11" y="697" type="line"/>
      <point x="61" y="626" type="line"/>
      <point x="109" y="658" type="line"/>
      <point x="109" y="476" type="line"/>
      <point x="30" y="476" type="line"/>
      <point x="30" y="390" type="line"/>
    </contour>
  </outline>
</glyph>
<glyph name="ordmasculine" format="1">
  <advance width="435"/>
  <unicode hex="00BA"/>
  <outline>
    <contour>
      <point x="401" y="572" type="curve" smooth="yes"/>
      <point x="401" y="599" type="line" smooth="yes"/>
      <point x="401" y="713"/>
      <point x="344" y="793"/>
      <point x="218" y="793" type="curve" smooth="yes"/>
      <point x="91" y="793"/>
      <point x="34" y="713"/>
      <point x="34" y="599" type="curve" smooth="yes"/>
      <point x="34" y="572" type="line" smooth="yes"/>
      <point x="34" y="458"/>
      <point x="91" y="378"/>
      <point x="218" y="378" type="curve" smooth="yes"/>
      <point x="344" y="378"/>
      <point x="401" y="458"/>
    </contour>
    <contour>
      <point x="43" y="191" type="line"/>
      <point x="393" y="191" type="line"/>
      <point x="393" y="290" type="line"/>
      <point x="43" y="290" type="line"/>
    </contour>
    <contour>
      <point x="148" y="572" type="curve" smooth="yes"/>
      <point x="148" y="599" type="line" smooth="yes"/>
      <point x="148" y="659"/>
      <point x="169" y="694"/>
      <point x="218" y="694" type="curve" smooth="yes"/>
      <point x="266" y="694"/>
      <point x="287" y="659"/>
      <point x="287" y="599" type="curve" smooth="yes"/>
      <point x="287" y="572" type="line" smooth="yes"/>
      <point x="287" y="512"/>
      <point x="266" y="476"/>
      <point x="218" y="476" type="curve" smooth="yes"/>
      <point x="169" y="476"/>
      <point x="148" y="512"/>
    </contour>
  </outline>
</glyph>
<glyph name="guillemotright" format="1">
  <advance width="550"/>
  <unicode hex="00BB"/>
  <outline>
    <contour>
      <point x="50" y="434" type="line"/>
      <point x="172" y="340" type="line"/>
      <point x="50" y="246" type="line"/>
      <point x="50" y="129" type="line"/>
      <point x="263" y="278" type="line"/>
      <point x="263" y="402" type="line"/>
      <point x="50" y="551" type="line"/>
    </contour>
    <contour>
      <point x="288" y="434" type="line"/>
      <point x="409" y="340" type="line"/>
      <point x="288" y="246" type="line"/>
      <point x="288" y="129" type="line"/>
      <point x="500" y="278" type="line"/>
      <point x="500" y="402" type="line"/>
      <point x="288" y="551" type="line"/>
    </contour>
  </outline>
</glyph>
<glyph name="onequarter" format="1">
  <advance width="800"/>
  <unicode hex="00BC"/>
  <outline>
    <contour>
      <point x="164" y="0" type="line"/>
      <point x="740" y="780" type="line"/>
      <point x="636" y="780" type="line"/>
      <point x="60" y="0" type="line"/>
    </contour>
    <contour>
      <point x="755" y="0" type="line"/>
      <point x="755" y="76" type="line"/>
      <point x="787" y="76" type="line"/>
      <point x="787" y="164" type="line"/>
      <point x="755" y="164" type="line"/>
      <point x="755" y="390" type="line"/>
      <point x="661" y="390" type="line"/>
      <point x="512" y="147" type="line"/>
      <point x="512" y="76" type="line"/>
      <point x="655" y="76" type="line"/>
      <point x="655" y="0" type="line"/>
    </contour>
    <contour>
      <point x="287" y="390" type="line"/>
      <point x="287" y="476" type="line"/>
      <point x="209" y="476" type="line"/>
      <point x="209" y="779" type="line"/>
      <point x="133" y="779" type="line"/>
      <point x="11" y="697" type="line"/>
      <point x="61" y="626" type="line"/>
      <point x="109" y="658" type="line"/>
      <point x="109" y="476" type="line"/>
      <point x="30" y="476" type="line"/>
      <point x="30" y="390" type="line"/>
    </contour>
    <contour>
      <point x="656" y="232" type="line"/>
      <point x="655" y="214" type="line"/>
      <point x="655" y="164" type="line"/>
      <point x="631" y="164" type="line"/>
      <point x="613" y="162" type="line"/>
    </contour>
  </outline>
</glyph>
<glyph name="onehalf" format="1">
  <advance width="800"/>
  <unicode hex="00BD"/>
  <outline>
    <contour>
      <point x="164" y="0" type="line"/>
      <point x="740" y="780" type="line"/>
      <point x="636" y="780" type="line"/>
      <point x="60" y="0" type="line"/>
    </contour>
    <contour>
      <point x="781" y="86" type="line"/>
      <point x="657" y="86" type="line"/>
      <point x="738" y="175" type="line" smooth="yes"/>
      <point x="764" y="205"/>
      <point x="781" y="228"/>
      <point x="781" y="276" type="curve" smooth="yes"/>
      <point x="781" y="287" type="line" smooth="yes"/>
      <point x="781" y="333"/>
      <point x="752" y="397"/>
      <point x="650" y="397" type="curve" smooth="yes"/>
      <point x="561" y="397"/>
      <point x="519" y="355"/>
      <point x="519" y="269" type="curve" smooth="yes"/>
      <point x="519" y="260" type="line"/>
      <point x="619" y="260" type="line"/>
      <point x="619" y="298"/>
      <point x="632" y="310"/>
      <point x="647" y="310" type="curve" smooth="yes"/>
      <point x="652" y="310" type="line" smooth="yes"/>
      <point x="668" y="310"/>
      <point x="681" y="298"/>
      <point x="681" y="268" type="curve" smooth="yes"/>
      <point x="681" y="263" type="line" smooth="yes"/>
      <point x="681" y="244"/>
      <point x="673" y="235"/>
      <point x="661" y="222" type="curve" smooth="yes"/>
      <point x="519" y="63" type="line"/>
      <point x="519" y="0" type="line"/>
      <point x="781" y="0" type="line"/>
    </contour>
    <contour>
      <point x="287" y="390" type="line"/>
      <point x="287" y="476" type="line"/>
      <point x="209" y="476" type="line"/>
      <point x="209" y="779" type="line"/>
      <point x="133" y="779" type="line"/>
      <point x="11" y="697" type="line"/>
      <point x="61" y="626" type="line"/>
      <point x="109" y="658" type="line"/>
      <point x="109" y="476" type="line"/>
      <point x="30" y="476" type="line"/>
      <point x="30" y="390" type="line"/>
    </contour>
  </outline>
</glyph>
<glyph name="threequarters" format="1">
  <advance width="800"/>
  <unicode hex="00BE"/>
  <outline>
    <contour>
      <point x="164" y="0" type="line"/>
      <point x="740" y="780" type="line"/>
      <point x="636" y="780" type="line"/>
      <point x="60" y="0" type="line"/>
    </contour>
    <contour>
      <point x="116" y="515" type="curve"/>
      <point x="16" y="515" type="line"/>
      <point x="16" y="507" type="line" smooth="yes"/>
      <point x="16" y="427"/>
      <point x="61" y="382"/>
      <point x="150" y="382" type="curve" smooth="yes"/>
      <point x="252" y="382"/>
      <point x="283" y="453"/>
      <point x="283" y="496" type="curve" smooth="yes"/>
      <point x="283" y="506" type="line" smooth="yes"/>
      <point x="283" y="546"/>
      <point x="264" y="573"/>
      <point x="240" y="589" type="curve"/>
      <point x="263" y="605"/>
      <point x="281" y="632"/>
      <point x="281" y="672" type="curve" smooth="yes"/>
      <point x="281" y="682" type="line" smooth="yes"/>
      <point x="281" y="723"/>
      <point x="252" y="787"/>
      <point x="150" y="787" type="curve" smooth="yes"/>
      <point x="61" y="787"/>
      <point x="19" y="745"/>
      <point x="19" y="659" type="curve" smooth="yes"/>
      <point x="19" y="650" type="line"/>
      <point x="119" y="650" type="line"/>
      <point x="119" y="688"/>
      <point x="132" y="700"/>
      <point x="147" y="700" type="curve" smooth="yes"/>
      <point x="152" y="700" type="line" smooth="yes"/>
      <point x="168" y="700"/>
      <point x="181" y="688"/>
      <point x="181" y="671" type="curve" smooth="yes"/>
      <point x="181" y="665" type="line" smooth="yes"/>
      <point x="181" y="644"/>
      <point x="172" y="633"/>
      <point x="151" y="633" type="curve" smooth="yes"/>
      <point x="100" y="633" type="line"/>
      <point x="100" y="545" type="line"/>
      <point x="152" y="545" type="line" smooth="yes"/>
      <point x="173" y="545"/>
      <point x="184" y="534"/>
      <point x="184" y="513" type="curve" smooth="yes"/>
      <point x="184" y="508" type="line" smooth="yes"/>
      <point x="184" y="481"/>
      <point x="169" y="469"/>
      <point x="152" y="469" type="curve" smooth="yes"/>
      <point x="147" y="469" type="line" smooth="yes"/>
      <point x="132" y="469"/>
      <point x="116" y="478"/>
    </contour>
    <contour>
      <point x="755" y="0" type="line"/>
      <point x="755" y="76" type="line"/>
      <point x="787" y="76" type="line"/>
      <point x="787" y="164" type="line"/>
      <point x="755" y="164" type="line"/>
      <point x="755" y="390" type="line"/>
      <point x="661" y="390" type="line"/>
      <point x="512" y="147" type="line"/>
      <point x="512" y="76" type="line"/>
      <point x="655" y="76" type="line"/>
      <point x="655" y="0" type="line"/>
    </contour>
    <contour>
      <point x="656" y="232" type="line"/>
      <point x="655" y="214" type="line"/>
      <point x="655" y="164" type="line"/>
      <point x="631" y="164" type="line"/>
      <point x="613" y="162" type="line"/>
    </contour>
  </outline>
</glyph>
<glyph name="questiondown" format="1">
  <advance width="484"/>
  <unicode hex="00BF"/>
  <outline>
    <contour>
      <point x="238" y="-97" type="curve" smooth="yes"/>
      <point x="177" y="-97"/>
      <point x="154" y="-66"/>
      <point x="154" y="-16" type="curve" smooth="yes"/>
      <point x="154" y="83"/>
      <point x="302" y="154"/>
      <point x="290" y="314" type="curve"/>
      <point x="200" y="314" type="line"/>
      <point x="189" y="154"/>
      <point x="21" y="168"/>
      <point x="21" y="-27" type="curve" smooth="yes"/>
      <point x="21" y="-124"/>
      <point x="77" y="-213"/>
      <point x="238" y="-213" type="curve" smooth="yes"/>
      <point x="407" y="-213"/>
      <point x="461" y="-115"/>
      <point x="461" y="44" type="curve" smooth="yes"/>
      <point x="461" y="60" type="line"/>
      <point x="329" y="60" type="line"/>
      <point x="329" y="-46"/>
      <point x="308" y="-97"/>
    </contour>
    <contour>
      <point x="174" y="389" type="line"/>
      <point x="316" y="389" type="line"/>
      <point x="316" y="530" type="line"/>
      <point x="174" y="530" type="line"/>
    </contour>
  </outline>
</glyph>
<glyph name="Atilde" format="1">
  <advance width="631"/>
  <unicode hex="00C3"/>
  <outline>
    <contour>
      <point x="223" y="784" type="line"/>
      <point x="18" y="0" type="line"/>
      <point x="163" y="0" type="line"/>
      <point x="206" y="178" type="line"/>
      <point x="426" y="178" type="line"/>
      <point x="469" y="0" type="line"/>
      <point x="613" y="0" type="line"/>
      <point x="408" y="784" type="line"/>
    </contour>
    <contour>
      <point x="417" y="943" type="line"/>
      <point x="417" y="916"/>
      <point x="401" y="907"/>
      <point x="382" y="907" type="curve" smooth="yes"/>
      <point x="344" y="907"/>
      <point x="300" y="957"/>
      <point x="237" y="957" type="curve" smooth="yes"/>
      <point x="185" y="957"/>
      <point x="142" y="928"/>
      <point x="142" y="847" type="curve"/>
      <point x="215" y="847" type="line"/>
      <point x="215" y="874"/>
      <point x="231" y="883"/>
      <point x="250" y="883" type="curve" smooth="yes"/>
      <point x="288" y="883"/>
      <point x="332" y="833"/>
      <point x="395" y="833" type="curve" smooth="yes"/>
      <point x="447" y="833"/>
      <point x="490" y="862"/>
      <point x="490" y="943" type="curve"/>
    </contour>
    <contour>
      <point x="316" y="631" type="line"/>
      <point x="397" y="295" type="line"/>
      <point x="234" y="295" type="line"/>
    </contour>
  </outline>
</glyph>
<glyph name="Aring" format="1">
  <advance width="631"/>
  <unicode hex="00C5"/>
  <outline>
    <contour>
      <point x="214" y="861" type="curve" smooth="yes"/>
      <point x="214" y="830"/>
      <point x="228" y="802"/>
      <point x="249" y="784" type="curve"/>
      <point x="223" y="784" type="line"/>
      <point x="18" y="0" type="line"/>
      <point x="163" y="0" type="line"/>
      <point x="206" y="178" type="line"/>
      <point x="426" y="178" type="line"/>
      <point x="469" y="0" type="line"/>
      <point x="613" y="0" type="line"/>
      <point x="408" y="784" type="line"/>
      <point x="382" y="784" type="line"/>
      <point x="404" y="802"/>
      <point x="418" y="830"/>
      <point x="418" y="861" type="curve" smooth="yes"/>
      <point x="418" y="917"/>
      <point x="372" y="963"/>
      <point x="316" y="963" type="curve" smooth="yes"/>
      <point x="260" y="963"/>
      <point x="214" y="917"/>
    </contour>
    <contour>
      <point x="316" y="631" type="line"/>
      <point x="397" y="295" type="line"/>
      <point x="234" y="295" type="line"/>
    </contour>
    <contour>
      <point x="264" y="861" type="curve" smooth="yes"/>
      <point x="264" y="889"/>
      <point x="287" y="913"/>
      <point x="316" y="913" type="curve" smooth="yes"/>
      <point x="345" y="913"/>
      <point x="368" y="889"/>
      <point x="368" y="861" type="curve" smooth="yes"/>
      <point x="368" y="832"/>
      <point x="345" y="808"/>
      <point x="316" y="808" type="curve" smooth="yes"/>
      <point x="287" y="808"/>
      <point x="264" y="832"/>
    </contour>
  </outline>
</glyph>
<glyph name="AE" format="1">
  <advance width="870"/>
  <unicode hex="00C6"/>
  <outline>
    <contour>
      <point x="289" y="780" type="line"/>
      <point x="11" y="0" type="line"/>
      <point x="155" y="0" type="line"/>
      <point x="216" y="182" type="line"/>
      <point x="418" y="182" type="line"/>
      <point x="440" y="0" type="line"/>
      <point x="830" y="0" type="line"/>
      <point x="830" y="117" type="line"/>
      <point x="566" y="117" type="line"/>
      <point x="535" y="340" type="line"/>
      <point x="780" y="340" type="line"/>
      <point x="780" y="456" type="line"/>
      <point x="519" y="456" type="line"/>
      <point x="490" y="663" type="line"/>
      <point x="830" y="663" type="line"/>
      <point x="830" y="780" type="line"/>
    </contour>
    <contour>
      <point x="365" y="628" type="line"/>
      <point x="404" y="298" type="line"/>
      <point x="255" y="298" type="line"/>
    </contour>
  </outline>
</glyph>
<glyph name="Ccedilla" format="1">
  <advance width="640"/>
  <unicode hex="00C7"/>
  <outline>
    <contour>
      <point x="237" y="-190" type="line"/>
      <point x="256" y="-203"/>
      <point x="294" y="-214"/>
      <point x="339" y="-214" type="curve" smooth="yes"/>
      <point x="413" y="-214"/>
      <point x="453" y="-186"/>
      <point x="453" y="-129" type="curve" smooth="yes"/>
      <point x="453" y="-73"/>
      <point x="406" y="-47"/>
      <point x="353" y="-45" type="curve"/>
      <point x="365" y="-11" type="line"/>
      <point x="520" y="0"/>
      <point x="598" y="82"/>
      <point x="598" y="253" type="curve" smooth="yes"/>
      <point x="598" y="263" type="line"/>
      <point x="463" y="263" type="line"/>
      <point x="463" y="165"/>
      <point x="428" y="104"/>
      <point x="337" y="104" type="curve" smooth="yes"/>
      <point x="328" y="104" type="line" smooth="yes"/>
      <point x="216" y="104"/>
      <point x="181" y="194"/>
      <point x="181" y="370" type="curve" smooth="yes"/>
      <point x="181" y="410" type="line" smooth="yes"/>
      <point x="181" y="586"/>
      <point x="217" y="676"/>
      <point x="328" y="676" type="curve" smooth="yes"/>
      <point x="337" y="676" type="line" smooth="yes"/>
      <point x="432" y="676"/>
      <point x="463" y="611"/>
      <point x="463" y="487" type="curve"/>
      <point x="598" y="487" type="line"/>
      <point x="598" y="521" type="line" smooth="yes"/>
      <point x="598" y="711"/>
      <point x="508" y="793"/>
      <point x="329" y="793" type="curve" smooth="yes"/>
      <point x="134" y="793"/>
      <point x="44" y="680"/>
      <point x="44" y="410" type="curve" smooth="yes"/>
      <point x="44" y="370" type="line" smooth="yes"/>
      <point x="44" y="114"/>
      <point x="125" y="-1"/>
      <point x="299" y="-12" type="curve"/>
      <point x="275" y="-75" type="line"/>
      <point x="292" y="-101" type="line"/>
      <point x="292" y="-101"/>
      <point x="309" y="-97"/>
      <point x="326" y="-97" type="curve" smooth="yes"/>
      <point x="361" y="-97"/>
      <point x="379" y="-105"/>
      <point x="379" y="-122" type="curve" smooth="yes"/>
      <point x="379" y="-139"/>
      <point x="364" y="-147"/>
      <point x="328" y="-147" type="curve" smooth="yes"/>
      <point x="302" y="-147"/>
      <point x="274" y="-141"/>
      <point x="257" y="-131" type="curve"/>
    </contour>
  </outline>
</glyph>
<glyph name="Eacute" format="1">
  <advance width="565"/>
  <unicode hex="00C9"/>
  <outline>
    <contour>
      <point x="61" y="780" type="line"/>
      <point x="61" y="0" type="line"/>
      <point x="525" y="0" type="line"/>
      <point x="525" y="117" type="line"/>
      <point x="195" y="117" type="line"/>
      <point x="195" y="340" type="line"/>
      <point x="475" y="340" type="line"/>
      <point x="475" y="456" type="line"/>
      <point x="195" y="456" type="line"/>
      <point x="195" y="663" type="line"/>
      <point x="525" y="663" type="line"/>
      <point x="525" y="780" type="line"/>
    </contour>
    <contour>
      <point x="288" y="950" type="line"/>
      <point x="232" y="840" type="line"/>
      <point x="362" y="840" type="line"/>
      <point x="425" y="950" type="line"/>
    </contour>
  </outline>
</glyph>
<glyph name="Ecircumflex" format="1">
  <advance width="565"/>
  <unicode hex="00CA"/>
  <outline>
    <contour>
      <point x="61" y="780" type="line"/>
      <point x="61" y="0" type="line"/>
      <point x="525" y="0" type="line"/>
      <point x="525" y="117" type="line"/>
      <point x="195" y="117" type="line"/>
      <point x="195" y="340" type="line"/>
      <point x="475" y="340" type="line"/>
      <point x="475" y="456" type="line"/>
      <point x="195" y="456" type="line"/>
      <point x="195" y="663" type="line"/>
      <point x="525" y="663" type="line"/>
      <point x="525" y="780" type="line"/>
    </contour>
    <contour>
      <point x="233" y="840" type="line"/>
      <point x="297" y="890" type="line"/>
      <point x="361" y="840" type="line"/>
      <point x="481" y="840" type="line"/>
      <point x="362" y="950" type="line"/>
      <point x="232" y="950" type="line"/>
      <point x="113" y="840" type="line"/>
    </contour>
  </outline>
</glyph>
<glyph name="Edieresis" format="1">
  <advance width="565"/>
  <unicode hex="00CB"/>
  <outline>
    <contour>
      <point x="61" y="780" type="line"/>
      <point x="61" y="0" type="line"/>
      <point x="525" y="0" type="line"/>
      <point x="525" y="117" type="line"/>
      <point x="195" y="117" type="line"/>
      <point x="195" y="340" type="line"/>
      <point x="475" y="340" type="line"/>
      <point x="475" y="456" type="line"/>
      <point x="195" y="456" type="line"/>
      <point x="195" y="663" type="line"/>
      <point x="525" y="663" type="line"/>
      <point x="525" y="780" type="line"/>
    </contour>
    <contour>
      <point x="271" y="941" type="line"/>
      <point x="154" y="941" type="line"/>
      <point x="154" y="849" type="line"/>
      <point x="271" y="849" type="line"/>
    </contour>
    <contour>
      <point x="440" y="941" type="line"/>
      <point x="323" y="941" type="line"/>
      <point x="323" y="849" type="line"/>
      <point x="440" y="849" type="line"/>
    </contour>
  </outline>
</glyph>
<glyph name="Igrave" format="1">
  <advance width="266"/>
  <unicode hex="00CC"/>
  <outline>
    <contour>
      <point x="200" y="780" type="line"/>
      <point x="66" y="780" type="line"/>
      <point x="66" y="0" type="line"/>
      <point x="200" y="0" type="line"/>
    </contour>
    <contour>
      <point x="5" y="950" type="line"/>
      <point x="68" y="840" type="line"/>
      <point x="198" y="840" type="line"/>
      <point x="142" y="950" type="line"/>
    </contour>
  </outline>
</glyph>
<glyph name="Iacute" format="1">
  <advance width="266"/>
  <unicode hex="00CD"/>
  <outline>
    <contour>
      <point x="200" y="780" type="line"/>
      <point x="66" y="780" type="line"/>
      <point x="66" y="0" type="line"/>
      <point x="200" y="0" type="line"/>
    </contour>
    <contour>
      <point x="124" y="950" type="line"/>
      <point x="68" y="840" type="line"/>
      <point x="198" y="840" type="line"/>
      <point x="261" y="950" type="line"/>
    </contour>
  </outline>
</glyph>
<glyph name="Icircumflex" format="1">
  <advance width="266"/>
  <unicode hex="00CE"/>
  <outline>
    <contour>
      <point x="200" y="780" type="line"/>
      <point x="66" y="780" type="line"/>
      <point x="66" y="0" type="line"/>
      <point x="200" y="0" type="line"/>
    </contour>
    <contour>
      <point x="69" y="840" type="line"/>
      <point x="133" y="890" type="line"/>
      <point x="197" y="840" type="line"/>
      <point x="317" y="840" type="line"/>
      <point x="198" y="950" type="line"/>
      <point x="68" y="950" type="line"/>
      <point x="-51" y="840" type="line"/>
    </contour>
  </outline>
</glyph>
<glyph name="Idieresis" format="1">
  <advance width="266"/>
  <unicode hex="00CF"/>
  <outline>
    <contour>
      <point x="200" y="780" type="line"/>
      <point x="66" y="780" type="line"/>
      <point x="66" y="0" type="line"/>
      <point x="200" y="0" type="line"/>
    </contour>
    <contour>
      <point x="276" y="941" type="line"/>
      <point x="159" y="941" type="line"/>
      <point x="159" y="849" type="line"/>
      <point x="276" y="849" type="line"/>
    </contour>
    <contour>
      <point x="107" y="941" type="line"/>
      <point x="-10" y="941" type="line"/>
      <point x="-10" y="849" type="line"/>
      <point x="107" y="849" type="line"/>
    </contour>
  </outline>
</glyph>
<glyph name="Ntilde" format="1">
  <advance width="675"/>
  <unicode hex="00D1"/>
  <outline>
    <contour>
      <point x="614" y="780" type="line"/>
      <point x="487" y="780" type="line"/>
      <point x="487" y="407" type="line"/>
      <point x="491" y="242" type="line"/>
      <point x="203" y="780" type="line"/>
      <point x="61" y="780" type="line"/>
      <point x="61" y="0" type="line"/>
      <point x="188" y="0" type="line"/>
      <point x="188" y="373" type="line"/>
      <point x="184" y="538" type="line"/>
      <point x="472" y="0" type="line"/>
      <point x="614" y="0" type="line"/>
    </contour>
    <contour>
      <point x="439" y="943" type="line"/>
      <point x="439" y="916"/>
      <point x="423" y="907"/>
      <point x="404" y="907" type="curve" smooth="yes"/>
      <point x="366" y="907"/>
      <point x="322" y="957"/>
      <point x="259" y="957" type="curve" smooth="yes"/>
      <point x="207" y="957"/>
      <point x="164" y="928"/>
      <point x="164" y="847" type="curve"/>
      <point x="237" y="847" type="line"/>
      <point x="237" y="874"/>
      <point x="253" y="883"/>
      <point x="272" y="883" type="curve" smooth="yes"/>
      <point x="310" y="883"/>
      <point x="354" y="833"/>
      <point x="417" y="833" type="curve" smooth="yes"/>
      <point x="469" y="833"/>
      <point x="512" y="862"/>
      <point x="512" y="943" type="curve"/>
    </contour>
  </outline>
</glyph>
<glyph name="Ograve" format="1">
  <advance width="665"/>
  <unicode hex="00D2"/>
  <outline>
    <contour>
      <point x="333" y="-13" type="curve" smooth="yes"/>
      <point x="528" y="-13"/>
      <point x="621" y="100"/>
      <point x="621" y="370" type="curve" smooth="yes"/>
      <point x="621" y="410" type="line" smooth="yes"/>
      <point x="621" y="680"/>
      <point x="528" y="793"/>
      <point x="333" y="793" type="curve" smooth="yes"/>
      <point x="137" y="793"/>
      <point x="44" y="680"/>
      <point x="44" y="410" type="curve" smooth="yes"/>
      <point x="44" y="370" type="line" smooth="yes"/>
      <point x="44" y="100"/>
      <point x="137" y="-13"/>
    </contour>
    <contour>
      <point x="328" y="104" type="line" smooth="yes"/>
      <point x="219" y="104"/>
      <point x="181" y="194"/>
      <point x="181" y="370" type="curve" smooth="yes"/>
      <point x="181" y="410" type="line" smooth="yes"/>
      <point x="181" y="586"/>
      <point x="219" y="676"/>
      <point x="328" y="676" type="curve" smooth="yes"/>
      <point x="337" y="676" type="line" smooth="yes"/>
      <point x="446" y="676"/>
      <point x="484" y="586"/>
      <point x="484" y="410" type="curve" smooth="yes"/>
      <point x="484" y="370" type="line" smooth="yes"/>
      <point x="484" y="194"/>
      <point x="446" y="104"/>
      <point x="337" y="104" type="curve" smooth="yes"/>
    </contour>
    <contour>
      <point x="205" y="950" type="line"/>
      <point x="268" y="840" type="line"/>
      <point x="398" y="840" type="line"/>
      <point x="342" y="950" type="line"/>
    </contour>
  </outline>
</glyph>
<glyph name="Otilde" format="1">
  <advance width="665"/>
  <unicode hex="00D5"/>
  <outline>
    <contour>
      <point x="333" y="-13" type="curve" smooth="yes"/>
      <point x="528" y="-13"/>
      <point x="621" y="100"/>
      <point x="621" y="370" type="curve" smooth="yes"/>
      <point x="621" y="410" type="line" smooth="yes"/>
      <point x="621" y="680"/>
      <point x="528" y="793"/>
      <point x="333" y="793" type="curve" smooth="yes"/>
      <point x="137" y="793"/>
      <point x="44" y="680"/>
      <point x="44" y="410" type="curve" smooth="yes"/>
      <point x="44" y="370" type="line" smooth="yes"/>
      <point x="44" y="100"/>
      <point x="137" y="-13"/>
    </contour>
    <contour>
      <point x="328" y="104" type="line" smooth="yes"/>
      <point x="219" y="104"/>
      <point x="181" y="194"/>
      <point x="181" y="370" type="curve" smooth="yes"/>
      <point x="181" y="410" type="line" smooth="yes"/>
      <point x="181" y="586"/>
      <point x="219" y="676"/>
      <point x="328" y="676" type="curve" smooth="yes"/>
      <point x="337" y="676" type="line" smooth="yes"/>
      <point x="446" y="676"/>
      <point x="484" y="586"/>
      <point x="484" y="410" type="curve" smooth="yes"/>
      <point x="484" y="370" type="line" smooth="yes"/>
      <point x="484" y="194"/>
      <point x="446" y="104"/>
      <point x="337" y="104" type="curve" smooth="yes"/>
    </contour>
    <contour>
      <point x="434" y="943" type="line"/>
      <point x="434" y="916"/>
      <point x="418" y="907"/>
      <point x="399" y="907" type="curve" smooth="yes"/>
      <point x="361" y="907"/>
      <point x="317" y="957"/>
      <point x="254" y="957" type="curve" smooth="yes"/>
      <point x="202" y="957"/>
      <point x="159" y="928"/>
      <point x="159" y="847" type="curve"/>
      <point x="232" y="847" type="line"/>
      <point x="232" y="874"/>
      <point x="248" y="883"/>
      <point x="267" y="883" type="curve" smooth="yes"/>
      <point x="305" y="883"/>
      <point x="349" y="833"/>
      <point x="412" y="833" type="curve" smooth="yes"/>
      <point x="464" y="833"/>
      <point x="507" y="862"/>
      <point x="507" y="943" type="curve"/>
    </contour>
  </outline>
</glyph>
<glyph name="Odieresis" format="1">
  <advance width="665"/>
  <unicode hex="00D6"/>
  <outline>
    <contour>
      <point x="333" y="-13" type="curve" smooth="yes"/>
      <point x="528" y="-13"/>
      <point x="621" y="100"/>
      <point x="621" y="370" type="curve" smooth="yes"/>
      <point x="621" y="410" type="line" smooth="yes"/>
      <point x="621" y="680"/>
      <point x="528" y="793"/>
      <point x="333" y="793" type="curve" smooth="yes"/>
      <point x="137" y="793"/>
      <point x="44" y="680"/>
      <point x="44" y="410" type="curve" smooth="yes"/>
      <point x="44" y="370" type="line" smooth="yes"/>
      <point x="44" y="100"/>
      <point x="137" y="-13"/>
    </contour>
    <contour>
      <point x="328" y="104" type="line" smooth="yes"/>
      <point x="219" y="104"/>
      <point x="181" y="194"/>
      <point x="181" y="370" type="curve" smooth="yes"/>
      <point x="181" y="410" type="line" smooth="yes"/>
      <point x="181" y="586"/>
      <point x="219" y="676"/>
      <point x="328" y="676" type="curve" smooth="yes"/>
      <point x="337" y="676" type="line" smooth="yes"/>
      <point x="446" y="676"/>
      <point x="484" y="586"/>
      <point x="484" y="410" type="curve" smooth="yes"/>
      <point x="484" y="370" type="line" smooth="yes"/>
      <point x="484" y="194"/>
      <point x="446" y="104"/>
      <point x="337" y="104" type="curve" smooth="yes"/>
    </contour>
    <contour>
      <point x="307" y="941" type="line"/>
      <point x="190" y="941" type="line"/>
      <point x="190" y="849" type="line"/>
      <point x="307" y="849" type="line"/>
    </contour>
    <contour>
      <point x="476" y="941" type="line"/>
      <point x="359" y="941" type="line"/>
      <point x="359" y="849" type="line"/>
      <point x="476" y="849" type="line"/>
    </contour>
  </outline>
</glyph>
<glyph name="multiply" format="1">
  <advance width="600"/>
  <unicode hex="00D7"/>
  <outline>
    <contour>
      <point x="115" y="121" type="line"/>
      <point x="300" y="306" type="line"/>
      <point x="485" y="121" type="line"/>
      <point x="569" y="205" type="line"/>
      <point x="384" y="390" type="line"/>
      <point x="569" y="575" type="line"/>
      <point x="485" y="659" type="line"/>
      <point x="300" y="474" type="line"/>
      <point x="115" y="659" type="line"/>
      <point x="31" y="575" type="line"/>
      <point x="216" y="390" type="line"/>
      <point x="31" y="205" type="line"/>
    </contour>
  </outline>
</glyph>
<glyph name="Oslash" format="1">
  <advance width="660"/>
  <unicode hex="00D8"/>
  <outline>
    <contour>
      <point x="44" y="410" type="curve" smooth="yes"/>
      <point x="44" y="370" type="line" smooth="yes"/>
      <point x="44" y="247"/>
      <point x="63" y="157"/>
      <point x="102" y="95" type="curve"/>
      <point x="43" y="0" type="line"/>
      <point x="128" y="0" type="line"/>
      <point x="152" y="39" type="line"/>
      <point x="198" y="3"/>
      <point x="258" y="-13"/>
      <point x="333" y="-13" type="curve" smooth="yes"/>
      <point x="528" y="-13"/>
      <point x="621" y="100"/>
      <point x="621" y="370" type="curve" smooth="yes"/>
      <point x="621" y="410" type="line" smooth="yes"/>
      <point x="621" y="535"/>
      <point x="601" y="626"/>
      <point x="560" y="688" type="curve"/>
      <point x="618" y="780" type="line"/>
      <point x="533" y="780" type="line"/>
      <point x="510" y="743" type="line"/>
      <point x="465" y="777"/>
      <point x="406" y="793"/>
      <point x="333" y="793" type="curve" smooth="yes"/>
      <point x="137" y="793"/>
      <point x="44" y="680"/>
    </contour>
    <contour>
      <point x="484" y="410" type="curve" smooth="yes"/>
      <point x="484" y="370" type="line" smooth="yes"/>
      <point x="484" y="194"/>
      <point x="446" y="104"/>
      <point x="337" y="104" type="curve" smooth="yes"/>
      <point x="328" y="104" type="line" smooth="yes"/>
      <point x="281" y="104"/>
      <point x="247" y="120"/>
      <point x="224" y="153" type="curve"/>
      <point x="472" y="548" type="line"/>
      <point x="480" y="510"/>
      <point x="484" y="464"/>
    </contour>
    <contour>
      <point x="181" y="370" type="curve" smooth="yes"/>
      <point x="181" y="410" type="line" smooth="yes"/>
      <point x="181" y="586"/>
      <point x="219" y="676"/>
      <point x="328" y="676" type="curve" smooth="yes"/>
      <point x="337" y="676" type="line" smooth="yes"/>
      <point x="382" y="676"/>
      <point x="415" y="660"/>
      <point x="438" y="629" type="curve"/>
      <point x="191" y="237" type="line"/>
      <point x="184" y="274"/>
      <point x="181" y="318"/>
    </contour>
  </outline>
</glyph>
<glyph name="Ugrave" format="1">
  <advance width="655"/>
  <unicode hex="00D9"/>
  <outline>
    <contour>
      <point x="328" y="-13" type="curve" smooth="yes"/>
      <point x="525" y="-13"/>
      <point x="599" y="70"/>
      <point x="599" y="245" type="curve" smooth="yes"/>
      <point x="599" y="780" type="line"/>
      <point x="465" y="780" type="line"/>
      <point x="465" y="250" type="line" smooth="yes"/>
      <point x="465" y="147"/>
      <point x="428" y="104"/>
      <point x="328" y="104" type="curve" smooth="yes"/>
      <point x="227" y="104"/>
      <point x="190" y="147"/>
      <point x="190" y="250" type="curve" smooth="yes"/>
      <point x="190" y="780" type="line"/>
      <point x="56" y="780" type="line"/>
      <point x="56" y="245" type="line" smooth="yes"/>
      <point x="56" y="70"/>
      <point x="130" y="-13"/>
    </contour>
    <contour>
      <point x="200" y="950" type="line"/>
      <point x="263" y="840" type="line"/>
      <point x="393" y="840" type="line"/>
      <point x="337" y="950" type="line"/>
    </contour>
  </outline>
</glyph>
<glyph name="Thorn" format="1">
  <advance width="598"/>
  <unicode hex="00DE"/>
  <outline>
    <contour>
      <point x="195" y="780" type="line"/>
      <point x="61" y="780" type="line"/>
      <point x="61" y="0" type="line"/>
      <point x="195" y="0" type="line"/>
      <point x="195" y="146" type="line"/>
      <point x="305" y="146" type="line" smooth="yes"/>
      <point x="427" y="146"/>
      <point x="566" y="181"/>
      <point x="566" y="380" type="curve" smooth="yes"/>
      <point x="566" y="400" type="line" smooth="yes"/>
      <point x="566" y="599"/>
      <point x="427" y="634"/>
      <point x="305" y="634" type="curve" smooth="yes"/>
      <point x="195" y="634" type="line"/>
    </contour>
    <contour>
      <point x="195" y="263" type="line"/>
      <point x="195" y="517" type="line"/>
      <point x="310" y="517" type="line" smooth="yes"/>
      <point x="362" y="517"/>
      <point x="430" y="498"/>
      <point x="430" y="395" type="curve" smooth="yes"/>
      <point x="430" y="385" type="line" smooth="yes"/>
      <point x="430" y="282"/>
      <point x="362" y="263"/>
      <point x="310" y="263" type="curve" smooth="yes"/>
    </contour>
  </outline>
</glyph>
<glyph name="germandbls" format="1">
  <advance width="613"/>
  <unicode hex="00DF"/>
  <outline>
    <contour>
      <point x="278" y="346" type="line"/>
      <point x="365" y="286" type="line" smooth="yes"/>
      <point x="433" y="242"/>
      <point x="460" y="202"/>
      <point x="460" y="162" type="curve" smooth="yes"/>
      <point x="460" y="124"/>
      <point x="454" y="88"/>
      <point x="398" y="88" type="curve" smooth="yes"/>
      <point x="353" y="88"/>
      <point x="343" y="123"/>
      <point x="343" y="166" type="curve"/>
      <point x="229" y="166" type="line"/>
      <point x="229" y="159" type="line" smooth="yes"/>
      <point x="229" y="61"/>
      <point x="261" y="-13"/>
      <point x="395" y="-13" type="curve" smooth="yes"/>
      <point x="547" y="-13"/>
      <point x="590" y="75"/>
      <point x="590" y="163" type="curve" smooth="yes"/>
      <point x="590" y="170" type="line" smooth="yes"/>
      <point x="590" y="252"/>
      <point x="539" y="314"/>
      <point x="446" y="376" type="curve" smooth="yes"/>
      <point x="414" y="397" type="line"/>
      <point x="485" y="447"/>
      <point x="524" y="503"/>
      <point x="524" y="590" type="curve" smooth="yes"/>
      <point x="524" y="599" type="line" smooth="yes"/>
      <point x="524" y="715"/>
      <point x="451" y="813"/>
      <point x="289" y="813" type="curve" smooth="yes"/>
      <point x="119" y="813"/>
      <point x="54" y="720"/>
      <point x="54" y="598" type="curve" smooth="yes"/>
      <point x="54" y="0" type="line"/>
      <point x="184" y="0" type="line"/>
      <point x="184" y="591" type="line" smooth="yes"/>
      <point x="184" y="649"/>
      <point x="214" y="699"/>
      <point x="289" y="699" type="curve" smooth="yes"/>
      <point x="364" y="699"/>
      <point x="394" y="653"/>
      <point x="394" y="585" type="curve" smooth="yes"/>
      <point x="394" y="517"/>
      <point x="352" y="469"/>
      <point x="278" y="428" type="curve"/>
    </contour>
  </outline>
</glyph>
<glyph name="aacute" format="1">
  <advance width="538"/>
  <unicode hex="00E1"/>
  <outline>
    <contour>
      <point x="377" y="0" type="line"/>
      <point x="492" y="0" type="line"/>
      <point x="484" y="150" type="line"/>
      <point x="484" y="342" type="line" smooth="yes"/>
      <point x="484" y="466"/>
      <point x="434" y="543"/>
      <point x="269" y="543" type="curve" smooth="yes"/>
      <point x="100" y="543"/>
      <point x="54" y="453"/>
      <point x="54" y="364" type="curve" smooth="yes"/>
      <point x="54" y="355" type="line"/>
      <point x="178" y="355" type="line"/>
      <point x="178" y="401"/>
      <point x="194" y="442"/>
      <point x="266" y="442" type="curve" smooth="yes"/>
      <point x="333" y="442"/>
      <point x="354" y="409"/>
      <point x="354" y="342" type="curve" smooth="yes"/>
      <point x="354" y="340" type="line"/>
      <point x="219" y="319" type="line" smooth="yes"/>
      <point x="116" y="304"/>
      <point x="34" y="268"/>
      <point x="34" y="153" type="curve" smooth="yes"/>
      <point x="34" y="143" type="line" smooth="yes"/>
      <point x="34" y="58"/>
      <point x="82" y="-13"/>
      <point x="194" y="-13" type="curve" smooth="yes"/>
      <point x="273" y="-13"/>
      <point x="330" y="18"/>
      <point x="367" y="61" type="curve"/>
    </contour>
    <contour>
      <point x="239" y="94" type="curve" smooth="yes"/>
      <point x="186" y="94"/>
      <point x="164" y="126"/>
      <point x="164" y="159" type="curve" smooth="yes"/>
      <point x="164" y="167" type="line" smooth="yes"/>
      <point x="164" y="208"/>
      <point x="188" y="234"/>
      <point x="243" y="243" type="curve" smooth="yes"/>
      <point x="354" y="261" type="line"/>
      <point x="354" y="149" type="line"/>
      <point x="337" y="126"/>
      <point x="300" y="94"/>
    </contour>
    <contour>
      <point x="295" y="780" type="line"/>
      <point x="204" y="601" type="line"/>
      <point x="334" y="601" type="line"/>
      <point x="437" y="780" type="line"/>
    </contour>
  </outline>
</glyph>
<glyph name="atilde" format="1">
  <advance width="538"/>
  <unicode hex="00E3"/>
  <outline>
    <contour>
      <point x="377" y="0" type="line"/>
      <point x="492" y="0" type="line"/>
      <point x="484" y="150" type="line"/>
      <point x="484" y="342" type="line" smooth="yes"/>
      <point x="484" y="466"/>
      <point x="434" y="543"/>
      <point x="269" y="543" type="curve" smooth="yes"/>
      <point x="100" y="543"/>
      <point x="54" y="453"/>
      <point x="54" y="364" type="curve" smooth="yes"/>
      <point x="54" y="355" type="line"/>
      <point x="178" y="355" type="line"/>
      <point x="178" y="401"/>
      <point x="194" y="442"/>
      <point x="266" y="442" type="curve" smooth="yes"/>
      <point x="333" y="442"/>
      <point x="354" y="409"/>
      <point x="354" y="342" type="curve" smooth="yes"/>
      <point x="354" y="340" type="line"/>
      <point x="219" y="319" type="line" smooth="yes"/>
      <point x="116" y="304"/>
      <point x="34" y="268"/>
      <point x="34" y="153" type="curve" smooth="yes"/>
      <point x="34" y="143" type="line" smooth="yes"/>
      <point x="34" y="58"/>
      <point x="82" y="-13"/>
      <point x="194" y="-13" type="curve" smooth="yes"/>
      <point x="273" y="-13"/>
      <point x="330" y="18"/>
      <point x="367" y="61" type="curve"/>
    </contour>
    <contour>
      <point x="367" y="764" type="line"/>
      <point x="367" y="735"/>
      <point x="353" y="725"/>
      <point x="334" y="725" type="curve" smooth="yes"/>
      <point x="294" y="725"/>
      <point x="247" y="778"/>
      <point x="183" y="778" type="curve" smooth="yes"/>
      <point x="126" y="778"/>
      <point x="82" y="736"/>
      <point x="82" y="636" type="curve"/>
      <point x="171" y="636" type="line"/>
      <point x="171" y="665"/>
      <point x="185" y="675"/>
      <point x="204" y="675" type="curve" smooth="yes"/>
      <point x="244" y="675"/>
      <point x="291" y="622"/>
      <point x="355" y="622" type="curve" smooth="yes"/>
      <point x="412" y="622"/>
      <point x="456" y="664"/>
      <point x="456" y="764" type="curve"/>
    </contour>
    <contour>
      <point x="239" y="94" type="curve" smooth="yes"/>
      <point x="186" y="94"/>
      <point x="164" y="126"/>
      <point x="164" y="159" type="curve" smooth="yes"/>
      <point x="164" y="167" type="line" smooth="yes"/>
      <point x="164" y="208"/>
      <point x="188" y="234"/>
      <point x="243" y="243" type="curve" smooth="yes"/>
      <point x="354" y="261" type="line"/>
      <point x="354" y="149" type="line"/>
      <point x="337" y="126"/>
      <point x="300" y="94"/>
    </contour>
  </outline>
</glyph>
<glyph name="ae" format="1">
  <advance width="863"/>
  <unicode hex="00E6"/>
  <outline>
    <contour>
      <point x="834" y="217" type="line"/>
      <point x="834" y="278" type="line" smooth="yes"/>
      <point x="834" y="429"/>
      <point x="760" y="543"/>
      <point x="596" y="543" type="curve" smooth="yes"/>
      <point x="522" y="543"/>
      <point x="469" y="516"/>
      <point x="434" y="474" type="curve"/>
      <point x="407" y="517"/>
      <point x="358" y="543"/>
      <point x="269" y="543" type="curve" smooth="yes"/>
      <point x="100" y="543"/>
      <point x="54" y="453"/>
      <point x="54" y="364" type="curve" smooth="yes"/>
      <point x="54" y="355" type="line"/>
      <point x="178" y="355" type="line"/>
      <point x="178" y="401"/>
      <point x="194" y="442"/>
      <point x="266" y="442" type="curve" smooth="yes"/>
      <point x="333" y="442"/>
      <point x="354" y="409"/>
      <point x="354" y="342" type="curve" smooth="yes"/>
      <point x="354" y="340" type="line"/>
      <point x="221" y="319" type="line" smooth="yes"/>
      <point x="118" y="304"/>
      <point x="34" y="268"/>
      <point x="34" y="153" type="curve" smooth="yes"/>
      <point x="34" y="143" type="line" smooth="yes"/>
      <point x="34" y="58"/>
      <point x="85" y="-13"/>
      <point x="203" y="-13" type="curve" smooth="yes"/>
      <point x="288" y="-13"/>
      <point x="361" y="22"/>
      <point x="409" y="69" type="curve"/>
      <point x="449" y="18"/>
      <point x="513" y="-13"/>
      <point x="602" y="-13" type="curve" smooth="yes"/>
      <point x="754" y="-13"/>
      <point x="834" y="71"/>
      <point x="834" y="166" type="curve" smooth="yes"/>
      <point x="834" y="170" type="line"/>
      <point x="711" y="170" type="line"/>
      <point x="711" y="130"/>
      <point x="674" y="88"/>
      <point x="603" y="88" type="curve" smooth="yes"/>
      <point x="528" y="88"/>
      <point x="489" y="130"/>
      <point x="484" y="217" type="curve"/>
    </contour>
    <contour>
      <point x="360" y="155" type="line"/>
      <point x="347" y="133"/>
      <point x="309" y="91"/>
      <point x="239" y="91" type="curve" smooth="yes"/>
      <point x="186" y="91"/>
      <point x="164" y="123"/>
      <point x="164" y="156" type="curve" smooth="yes"/>
      <point x="164" y="164" type="line" smooth="yes"/>
      <point x="164" y="205"/>
      <point x="189" y="230"/>
      <point x="244" y="240" type="curve" smooth="yes"/>
      <point x="354" y="258" type="line"/>
      <point x="354" y="252" type="line" smooth="yes"/>
      <point x="354" y="219"/>
      <point x="358" y="187"/>
      <point x="365" y="159" type="curve"/>
    </contour>
    <contour>
      <point x="594" y="442" type="curve" smooth="yes"/>
      <point x="664" y="442"/>
      <point x="699" y="397"/>
      <point x="703" y="313" type="curve"/>
      <point x="484" y="313" type="line"/>
      <point x="489" y="397"/>
      <point x="524" y="442"/>
    </contour>
  </outline>
</glyph>
<glyph name="ccedilla" format="1">
  <advance width="525"/>
  <unicode hex="00E7"/>
  <outline>
    <contour>
      <point x="173" y="-190" type="line"/>
      <point x="192" y="-203"/>
      <point x="230" y="-214"/>
      <point x="275" y="-214" type="curve" smooth="yes"/>
      <point x="349" y="-214"/>
      <point x="389" y="-186"/>
      <point x="389" y="-129" type="curve" smooth="yes"/>
      <point x="389" y="-73"/>
      <point x="342" y="-47"/>
      <point x="289" y="-45" type="curve"/>
      <point x="301" y="-11" type="line"/>
      <point x="430" y="0"/>
      <point x="490" y="78"/>
      <point x="490" y="172" type="curve" smooth="yes"/>
      <point x="490" y="193" type="line"/>
      <point x="367" y="193" type="line"/>
      <point x="367" y="141"/>
      <point x="339" y="101"/>
      <point x="273" y="101" type="curve" smooth="yes"/>
      <point x="197" y="101"/>
      <point x="166" y="158"/>
      <point x="166" y="249" type="curve" smooth="yes"/>
      <point x="166" y="281" type="line" smooth="yes"/>
      <point x="166" y="373"/>
      <point x="197" y="430"/>
      <point x="273" y="430" type="curve" smooth="yes"/>
      <point x="337" y="430"/>
      <point x="367" y="390"/>
      <point x="367" y="328" type="curve"/>
      <point x="490" y="328" type="line"/>
      <point x="490" y="350" type="line" smooth="yes"/>
      <point x="490" y="457"/>
      <point x="420" y="543"/>
      <point x="270" y="543" type="curve" smooth="yes"/>
      <point x="107" y="543"/>
      <point x="36" y="433"/>
      <point x="36" y="281" type="curve" smooth="yes"/>
      <point x="36" y="249" type="line" smooth="yes"/>
      <point x="36" y="109"/>
      <point x="97" y="4"/>
      <point x="235" y="-11" type="curve"/>
      <point x="211" y="-75" type="line"/>
      <point x="228" y="-101" type="line"/>
      <point x="228" y="-101"/>
      <point x="245" y="-97"/>
      <point x="262" y="-97" type="curve" smooth="yes"/>
      <point x="297" y="-97"/>
      <point x="315" y="-105"/>
      <point x="315" y="-122" type="curve" smooth="yes"/>
      <point x="315" y="-139"/>
      <point x="300" y="-147"/>
      <point x="264" y="-147" type="curve" smooth="yes"/>
      <point x="238" y="-147"/>
      <point x="210" y="-141"/>
      <point x="193" y="-131" type="curve"/>
    </contour>
  </outline>
</glyph>
<glyph name="edieresis" format="1">
  <advance width="553"/>
  <unicode hex="00EB"/>
  <outline>
    <contour>
      <point x="516" y="217" type="line"/>
      <point x="516" y="278" type="line" smooth="yes"/>
      <point x="516" y="429"/>
      <point x="442" y="543"/>
      <point x="279" y="543" type="curve" smooth="yes"/>
      <point x="115" y="543"/>
      <point x="36" y="429"/>
      <point x="36" y="278" type="curve" smooth="yes"/>
      <point x="36" y="252" type="line" smooth="yes"/>
      <point x="36" y="101"/>
      <point x="113" y="-13"/>
      <point x="284" y="-13" type="curve" smooth="yes"/>
      <point x="436" y="-13"/>
      <point x="516" y="71"/>
      <point x="516" y="166" type="curve" smooth="yes"/>
      <point x="516" y="170" type="line"/>
      <point x="393" y="170" type="line"/>
      <point x="393" y="130"/>
      <point x="356" y="88"/>
      <point x="285" y="88" type="curve" smooth="yes"/>
      <point x="211" y="88"/>
      <point x="171" y="130"/>
      <point x="166" y="217" type="curve"/>
    </contour>
    <contour>
      <point x="276" y="442" type="curve" smooth="yes"/>
      <point x="347" y="442"/>
      <point x="381" y="397"/>
      <point x="385" y="313" type="curve"/>
      <point x="166" y="313" type="line"/>
      <point x="171" y="397"/>
      <point x="206" y="442"/>
    </contour>
    <contour>
      <point x="450" y="763" type="line"/>
      <point x="308" y="763" type="line"/>
      <point x="308" y="622" type="line"/>
      <point x="450" y="622" type="line"/>
    </contour>
    <contour>
      <point x="250" y="763" type="line"/>
      <point x="108" y="763" type="line"/>
      <point x="108" y="622" type="line"/>
      <point x="250" y="622" type="line"/>
    </contour>
  </outline>
</glyph>
<glyph name="igrave" format="1">
  <advance width="250"/>
  <unicode hex="00EC"/>
  <outline>
    <contour>
      <point x="60" y="0" type="line"/>
      <point x="190" y="0" type="line"/>
      <point x="190" y="530" type="line"/>
      <point x="60" y="530" type="line"/>
    </contour>
    <contour>
      <point x="-43" y="780" type="line"/>
      <point x="60" y="601" type="line"/>
      <point x="190" y="601" type="line"/>
      <point x="99" y="780" type="line"/>
    </contour>
  </outline>
</glyph>
<glyph name="iacute" format="1">
  <advance width="250"/>
  <unicode hex="00ED"/>
  <outline>
    <contour>
      <point x="60" y="0" type="line"/>
      <point x="190" y="0" type="line"/>
      <point x="190" y="530" type="line"/>
      <point x="60" y="530" type="line"/>
    </contour>
    <contour>
      <point x="151" y="780" type="line"/>
      <point x="60" y="601" type="line"/>
      <point x="190" y="601" type="line"/>
      <point x="293" y="780" type="line"/>
    </contour>
  </outline>
</glyph>
<glyph name="icircumflex" format="1">
  <advance width="250"/>
  <unicode hex="00EE"/>
  <outline>
    <contour>
      <point x="60" y="0" type="line"/>
      <point x="190" y="0" type="line"/>
      <point x="190" y="530" type="line"/>
      <point x="60" y="530" type="line"/>
    </contour>
    <contour>
      <point x="47" y="601" type="line"/>
      <point x="125" y="693" type="line"/>
      <point x="203" y="601" type="line"/>
      <point x="320" y="601" type="line"/>
      <point x="187" y="780" type="line"/>
      <point x="63" y="780" type="line"/>
      <point x="-70" y="601" type="line"/>
    </contour>
  </outline>
</glyph>
<glyph name="idieresis" format="1">
  <advance width="250"/>
  <unicode hex="00EF"/>
  <outline>
    <contour>
      <point x="60" y="0" type="line"/>
      <point x="190" y="0" type="line"/>
      <point x="190" y="530" type="line"/>
      <point x="60" y="530" type="line"/>
    </contour>
    <contour>
      <point x="96" y="763" type="line"/>
      <point x="-46" y="763" type="line"/>
      <point x="-46" y="622" type="line"/>
      <point x="96" y="622" type="line"/>
    </contour>
    <contour>
      <point x="296" y="763" type="line"/>
      <point x="154" y="763" type="line"/>
      <point x="154" y="622" type="line"/>
      <point x="296" y="622" type="line"/>
    </contour>
  </outline>
</glyph>
<glyph name="eth" format="1">
  <advance width="553"/>
  <unicode hex="00F0"/>
  <outline>
    <contour>
      <point x="36" y="696" type="line"/>
      <point x="82" y="691"/>
      <point x="126" y="683"/>
      <point x="165" y="670" type="curve"/>
      <point x="68" y="615" type="line"/>
      <point x="68" y="536" type="line"/>
      <point x="243" y="634" type="line"/>
      <point x="266" y="620"/>
      <point x="288" y="603"/>
      <point x="306" y="583" type="curve" smooth="yes"/>
      <point x="321" y="566"/>
      <point x="335" y="547"/>
      <point x="346" y="526" type="curve"/>
      <point x="320" y="537"/>
      <point x="291" y="543"/>
      <point x="258" y="543" type="curve" smooth="yes"/>
      <point x="110" y="543"/>
      <point x="36" y="433"/>
      <point x="36" y="281" type="curve" smooth="yes"/>
      <point x="36" y="249" type="line" smooth="yes"/>
      <point x="36" y="98"/>
      <point x="110" y="-13"/>
      <point x="276" y="-13" type="curve" smooth="yes"/>
      <point x="442" y="-13"/>
      <point x="516" y="98"/>
      <point x="516" y="249" type="curve" smooth="yes"/>
      <point x="516" y="281" type="line" smooth="yes"/>
      <point x="516" y="402"/>
      <point x="495" y="550"/>
      <point x="407" y="657" type="curve" smooth="yes"/>
      <point x="393" y="673"/>
      <point x="379" y="688"/>
      <point x="363" y="702" type="curve"/>
      <point x="420" y="734" type="line"/>
      <point x="420" y="813" type="line"/>
      <point x="300" y="746" type="line"/>
      <point x="224" y="788"/>
      <point x="133" y="806"/>
      <point x="36" y="813" type="curve"/>
    </contour>
    <contour>
      <point x="276" y="101" type="curve" smooth="yes"/>
      <point x="200" y="101"/>
      <point x="166" y="158"/>
      <point x="166" y="249" type="curve" smooth="yes"/>
      <point x="166" y="281" type="line" smooth="yes"/>
      <point x="166" y="373"/>
      <point x="200" y="430"/>
      <point x="276" y="430" type="curve" smooth="yes"/>
      <point x="352" y="430"/>
      <point x="386" y="373"/>
      <point x="386" y="281" type="curve" smooth="yes"/>
      <point x="386" y="249" type="line" smooth="yes"/>
      <point x="386" y="158"/>
      <point x="352" y="101"/>
    </contour>
  </outline>
</glyph>
<glyph name="ntilde" format="1">
  <advance width="563"/>
  <unicode hex="00F1"/>
  <outline>
    <contour>
      <point x="511" y="0" type="line"/>
      <point x="511" y="363" type="line" smooth="yes"/>
      <point x="511" y="459"/>
      <point x="464" y="543"/>
      <point x="348" y="543" type="curve" smooth="yes"/>
      <point x="264" y="543"/>
      <point x="209" y="508"/>
      <point x="176" y="460" type="curve"/>
      <point x="164" y="530" type="line"/>
      <point x="49" y="530" type="line"/>
      <point x="58" y="380" type="line"/>
      <point x="58" y="0" type="line"/>
      <point x="188" y="0" type="line"/>
      <point x="188" y="369" type="line"/>
      <point x="203" y="394"/>
      <point x="237" y="430"/>
      <point x="298" y="430" type="curve" smooth="yes"/>
      <point x="357" y="430"/>
      <point x="382" y="393"/>
      <point x="382" y="342" type="curve" smooth="yes"/>
      <point x="382" y="0" type="line"/>
    </contour>
    <contour>
      <point x="383" y="764" type="line"/>
      <point x="383" y="735"/>
      <point x="369" y="725"/>
      <point x="350" y="725" type="curve" smooth="yes"/>
      <point x="310" y="725"/>
      <point x="263" y="778"/>
      <point x="199" y="778" type="curve" smooth="yes"/>
      <point x="142" y="778"/>
      <point x="98" y="736"/>
      <point x="98" y="636" type="curve"/>
      <point x="187" y="636" type="line"/>
      <point x="187" y="665"/>
      <point x="201" y="675"/>
      <point x="220" y="675" type="curve" smooth="yes"/>
      <point x="260" y="675"/>
      <point x="307" y="622"/>
      <point x="371" y="622" type="curve" smooth="yes"/>
      <point x="428" y="622"/>
      <point x="472" y="664"/>
      <point x="472" y="764" type="curve"/>
    </contour>
  </outline>
</glyph>
<glyph name="ograve" format="1">
  <advance width="553"/>
  <unicode hex="00F2"/>
  <outline>
    <contour>
      <point x="276" y="-13" type="curve" smooth="yes"/>
      <point x="442" y="-13"/>
      <point x="516" y="98"/>
      <point x="516" y="249" type="curve" smooth="yes"/>
      <point x="516" y="281" type="line" smooth="yes"/>
      <point x="516" y="433"/>
      <point x="442" y="543"/>
      <point x="276" y="543" type="curve" smooth="yes"/>
      <point x="110" y="543"/>
      <point x="36" y="433"/>
      <point x="36" y="281" type="curve" smooth="yes"/>
      <point x="36" y="249" type="line" smooth="yes"/>
      <point x="36" y="98"/>
      <point x="110" y="-13"/>
    </contour>
    <contour>
      <point x="276" y="101" type="curve" smooth="yes"/>
      <point x="200" y="101"/>
      <point x="166" y="158"/>
      <point x="166" y="249" type="curve" smooth="yes"/>
      <point x="166" y="281" type="line" smooth="yes"/>
      <point x="166" y="373"/>
      <point x="200" y="430"/>
      <point x="276" y="430" type="curve" smooth="yes"/>
      <point x="352" y="430"/>
      <point x="386" y="373"/>
      <point x="386" y="281" type="curve" smooth="yes"/>
      <point x="386" y="249" type="line" smooth="yes"/>
      <point x="386" y="158"/>
      <point x="352" y="101"/>
    </contour>
    <contour>
      <point x="108" y="780" type="line"/>
      <point x="211" y="601" type="line"/>
      <point x="341" y="601" type="line"/>
      <point x="250" y="780" type="line"/>
    </contour>
  </outline>
</glyph>
<glyph name="otilde" format="1">
  <advance width="553"/>
  <unicode hex="00F5"/>
  <outline>
    <contour>
      <point x="276" y="-13" type="curve" smooth="yes"/>
      <point x="442" y="-13"/>
      <point x="516" y="98"/>
      <point x="516" y="249" type="curve" smooth="yes"/>
      <point x="516" y="281" type="line" smooth="yes"/>
      <point x="516" y="433"/>
      <point x="442" y="543"/>
      <point x="276" y="543" type="curve" smooth="yes"/>
      <point x="110" y="543"/>
      <point x="36" y="433"/>
      <point x="36" y="281" type="curve" smooth="yes"/>
      <point x="36" y="249" type="line" smooth="yes"/>
      <point x="36" y="98"/>
      <point x="110" y="-13"/>
    </contour>
    <contour>
      <point x="276" y="101" type="curve" smooth="yes"/>
      <point x="200" y="101"/>
      <point x="166" y="158"/>
      <point x="166" y="249" type="curve" smooth="yes"/>
      <point x="166" y="281" type="line" smooth="yes"/>
      <point x="166" y="373"/>
      <point x="200" y="430"/>
      <point x="276" y="430" type="curve" smooth="yes"/>
      <point x="352" y="430"/>
      <point x="386" y="373"/>
      <point x="386" y="281" type="curve" smooth="yes"/>
      <point x="386" y="249" type="line" smooth="yes"/>
      <point x="386" y="158"/>
      <point x="352" y="101"/>
    </contour>
    <contour>
      <point x="374" y="764" type="line"/>
      <point x="374" y="735"/>
      <point x="360" y="725"/>
      <point x="341" y="725" type="curve" smooth="yes"/>
      <point x="301" y="725"/>
      <point x="254" y="778"/>
      <point x="190" y="778" type="curve" smooth="yes"/>
      <point x="133" y="778"/>
      <point x="89" y="736"/>
      <point x="89" y="636" type="curve"/>
      <point x="178" y="636" type="line"/>
      <point x="178" y="665"/>
      <point x="192" y="675"/>
      <point x="211" y="675" type="curve" smooth="yes"/>
      <point x="251" y="675"/>
      <point x="298" y="622"/>
      <point x="362" y="622" type="curve" smooth="yes"/>
      <point x="419" y="622"/>
      <point x="463" y="664"/>
      <point x="463" y="764" type="curve"/>
    </contour>
  </outline>
</glyph>
<glyph name="odieresis" format="1">
  <advance width="553"/>
  <unicode hex="00F6"/>
  <outline>
    <contour>
      <point x="276" y="-13" type="curve" smooth="yes"/>
      <point x="442" y="-13"/>
      <point x="516" y="98"/>
      <point x="516" y="249" type="curve" smooth="yes"/>
      <point x="516" y="281" type="line" smooth="yes"/>
      <point x="516" y="433"/>
      <point x="442" y="543"/>
      <point x="276" y="543" type="curve" smooth="yes"/>
      <point x="110" y="543"/>
      <point x="36" y="433"/>
      <point x="36" y="281" type="curve" smooth="yes"/>
      <point x="36" y="249" type="line" smooth="yes"/>
      <point x="36" y="98"/>
      <point x="110" y="-13"/>
    </contour>
    <contour>
      <point x="276" y="101" type="curve" smooth="yes"/>
      <point x="200" y="101"/>
      <point x="166" y="158"/>
      <point x="166" y="249" type="curve" smooth="yes"/>
      <point x="166" y="281" type="line" smooth="yes"/>
      <point x="166" y="373"/>
      <point x="200" y="430"/>
      <point x="276" y="430" type="curve" smooth="yes"/>
      <point x="352" y="430"/>
      <point x="386" y="373"/>
      <point x="386" y="281" type="curve" smooth="yes"/>
      <point x="386" y="249" type="line" smooth="yes"/>
      <point x="386" y="158"/>
      <point x="352" y="101"/>
    </contour>
    <contour>
      <point x="247" y="763" type="line"/>
      <point x="105" y="763" type="line"/>
      <point x="105" y="622" type="line"/>
      <point x="247" y="622" type="line"/>
    </contour>
    <contour>
      <point x="447" y="763" type="line"/>
      <point x="305" y="763" type="line"/>
      <point x="305" y="622" type="line"/>
      <point x="447" y="622" type="line"/>
    </contour>
  </outline>
</glyph>
<glyph name="divide" format="1">
  <advance width="600"/>
  <unicode hex="00F7"/>
  <outline>
    <contour>
      <point x="44" y="331" type="line"/>
      <point x="556" y="331" type="line"/>
      <point x="556" y="449" type="line"/>
      <point x="44" y="449" type="line"/>
    </contour>
    <contour>
      <point x="371" y="250" type="line"/>
      <point x="229" y="250" type="line"/>
      <point x="229" y="109" type="line"/>
      <point x="371" y="109" type="line"/>
    </contour>
    <contour>
      <point x="371" y="671" type="line"/>
      <point x="229" y="671" type="line"/>
      <point x="229" y="530" type="line"/>
      <point x="371" y="530" type="line"/>
    </contour>
  </outline>
</glyph>
<glyph name="oslash" format="1">
  <advance width="553"/>
  <unicode hex="00F8"/>
  <outline>
    <contour>
      <point x="516" y="530" type="line"/>
      <point x="444" y="530" type="line"/>
      <point x="422" y="502" type="line"/>
      <point x="385" y="528"/>
      <point x="337" y="543"/>
      <point x="276" y="543" type="curve" smooth="yes"/>
      <point x="110" y="543"/>
      <point x="36" y="433"/>
      <point x="36" y="281" type="curve" smooth="yes"/>
      <point x="36" y="249" type="line" smooth="yes"/>
      <point x="36" y="177"/>
      <point x="53" y="114"/>
      <point x="88" y="68" type="curve"/>
      <point x="36" y="0" type="line"/>
      <point x="108" y="0" type="line"/>
      <point x="129" y="28" type="line"/>
      <point x="166" y="1"/>
      <point x="215" y="-13"/>
      <point x="276" y="-13" type="curve" smooth="yes"/>
      <point x="442" y="-13"/>
      <point x="516" y="98"/>
      <point x="516" y="249" type="curve" smooth="yes"/>
      <point x="516" y="281" type="line" smooth="yes"/>
      <point x="516" y="353"/>
      <point x="499" y="416"/>
      <point x="464" y="462" type="curve"/>
    </contour>
    <contour>
      <point x="166" y="249" type="curve" smooth="yes"/>
      <point x="166" y="281" type="line" smooth="yes"/>
      <point x="166" y="373"/>
      <point x="200" y="430"/>
      <point x="276" y="430" type="curve" smooth="yes"/>
      <point x="306" y="430"/>
      <point x="329" y="421"/>
      <point x="347" y="404" type="curve"/>
      <point x="174" y="180" type="line"/>
      <point x="169" y="200"/>
      <point x="166" y="223"/>
    </contour>
    <contour>
      <point x="386" y="281" type="curve" smooth="yes"/>
      <point x="386" y="249" type="line" smooth="yes"/>
      <point x="386" y="158"/>
      <point x="352" y="101"/>
      <point x="276" y="101" type="curve" smooth="yes"/>
      <point x="246" y="101"/>
      <point x="222" y="110"/>
      <point x="205" y="126" type="curve"/>
      <point x="377" y="350" type="line"/>
      <point x="383" y="330"/>
      <point x="386" y="307"/>
    </contour>
  </outline>
</glyph>
<glyph name="yacute" format="1">
  <advance width="530"/>
  <unicode hex="00FD"/>
  <outline>
    <contour>
      <point x="268" y="162" type="line"/>
      <point x="152" y="530" type="line"/>
      <point x="11" y="530" type="line"/>
      <point x="198" y="26" type="line"/>
      <point x="114" y="-200" type="line"/>
      <point x="268" y="-200" type="line"/>
      <point x="338" y="26" type="line"/>
      <point x="525" y="530" type="line"/>
      <point x="385" y="530" type="line"/>
    </contour>
    <contour>
      <point x="294" y="780" type="line"/>
      <point x="203" y="601" type="line"/>
      <point x="333" y="601" type="line"/>
      <point x="436" y="780" type="line"/>
    </contour>
  </outline>
</glyph>
<glyph name="thorn" format="1">
  <advance width="563"/>
  <unicode hex="00FE"/>
  <outline>
    <contour>
      <point x="56" y="800" type="line"/>
      <point x="56" y="-200" type="line"/>
      <point x="186" y="-200" type="line"/>
      <point x="186" y="50" type="line"/>
      <point x="216" y="13"/>
      <point x="261" y="-13"/>
      <point x="328" y="-13" type="curve" smooth="yes"/>
      <point x="473" y="-13"/>
      <point x="526" y="98"/>
      <point x="526" y="249" type="curve" smooth="yes"/>
      <point x="526" y="281" type="line" smooth="yes"/>
      <point x="526" y="433"/>
      <point x="473" y="543"/>
      <point x="328" y="543" type="curve" smooth="yes"/>
      <point x="261" y="543"/>
      <point x="216" y="517"/>
      <point x="186" y="479" type="curve"/>
      <point x="186" y="800" type="line"/>
    </contour>
    <contour>
      <point x="187" y="161" type="curve"/>
      <point x="187" y="369" type="line"/>
      <point x="203" y="394"/>
      <point x="236" y="430"/>
      <point x="291" y="430" type="curve" smooth="yes"/>
      <point x="365" y="430"/>
      <point x="396" y="374"/>
      <point x="396" y="281" type="curve" smooth="yes"/>
      <point x="396" y="249" type="line" smooth="yes"/>
      <point x="396" y="156"/>
      <point x="365" y="101"/>
      <point x="291" y="101" type="curve" smooth="yes"/>
      <point x="236" y="101"/>
      <point x="203" y="136"/>
    </contour>
  </outline>
</glyph>
<glyph name="ydieresis" format="1">
  <advance width="530"/>
  <unicode hex="00FF"/>
  <outline>
    <contour>
      <point x="268" y="162" type="line"/>
      <point x="152" y="530" type="line"/>
      <point x="11" y="530" type="line"/>
      <point x="198" y="26" type="line"/>
      <point x="114" y="-200" type="line"/>
      <point x="268" y="-200" type="line"/>
      <point x="338" y="26" type="line"/>
      <point x="525" y="530" type="line"/>
      <point x="385" y="530" type="line"/>
    </contour>
    <contour>
      <point x="439" y="763" type="line"/>
      <point x="297" y="763" type="line"/>
      <point x="297" y="622" type="line"/>
      <point x="439" y="622" type="line"/>
    </contour>
    <contour>
      <point x="239" y="763" type="line"/>
      <point x="97" y="763" type="line"/>
      <point x="97" y="622" type="line"/>
      <point x="239" y="622" type="line"/>
    </contour>
  </outline>
</glyph>
<glyph name="Amacron" format="1">
  <advance width="631"/>
  <unicode hex="0100"/>
  <outline>
    <contour>
      <point x="223" y="784" type="line"/>
      <point x="18" y="0" type="line"/>
      <point x="163" y="0" type="line"/>
      <point x="206" y="178" type="line"/>
      <point x="426" y="178" type="line"/>
      <point x="469" y="0" type="line"/>
      <point x="613" y="0" type="line"/>
      <point x="408" y="784" type="line"/>
    </contour>
    <contour>
      <point x="316" y="631" type="line"/>
      <point x="397" y="295" type="line"/>
      <point x="234" y="295" type="line"/>
    </contour>
    <contour>
      <point x="178" y="853" type="line"/>
      <point x="454" y="853" type="line"/>
      <point x="454" y="937" type="line"/>
      <point x="178" y="937" type="line"/>
    </contour>
  </outline>
</glyph>
<glyph name="Abreve" format="1">
  <advance width="631"/>
  <unicode hex="0102"/>
  <outline>
    <contour>
      <point x="223" y="784" type="line"/>
      <point x="18" y="0" type="line"/>
      <point x="163" y="0" type="line"/>
      <point x="206" y="178" type="line"/>
      <point x="426" y="178" type="line"/>
      <point x="469" y="0" type="line"/>
      <point x="613" y="0" type="line"/>
      <point x="408" y="784" type="line"/>
    </contour>
    <contour>
      <point x="316" y="826" type="curve" smooth="yes"/>
      <point x="450" y="826"/>
      <point x="487" y="882"/>
      <point x="487" y="950" type="curve"/>
      <point x="395" y="950" type="line"/>
      <point x="395" y="919"/>
      <point x="372" y="901"/>
      <point x="316" y="901" type="curve" smooth="yes"/>
      <point x="260" y="901"/>
      <point x="237" y="919"/>
      <point x="237" y="950" type="curve"/>
      <point x="145" y="950" type="line"/>
      <point x="145" y="882"/>
      <point x="182" y="826"/>
    </contour>
    <contour>
      <point x="316" y="631" type="line"/>
      <point x="397" y="295" type="line"/>
      <point x="234" y="295" type="line"/>
    </contour>
  </outline>
</glyph>
<glyph name="Aogonek" format="1">
  <advance width="631"/>
  <unicode hex="0104"/>
  <outline>
    <contour>
      <point x="545" y="-79" type="curve" smooth="yes"/>
      <point x="545" y="-43"/>
      <point x="572" y="-18"/>
      <point x="613" y="0" type="curve"/>
      <point x="408" y="784" type="line"/>
      <point x="223" y="784" type="line"/>
      <point x="18" y="0" type="line"/>
      <point x="163" y="0" type="line"/>
      <point x="206" y="178" type="line"/>
      <point x="426" y="178" type="line"/>
      <point x="474" y="-20" type="line"/>
      <point x="456" y="-45"/>
      <point x="445" y="-75"/>
      <point x="445" y="-109" type="curve" smooth="yes"/>
      <point x="445" y="-181"/>
      <point x="496" y="-214"/>
      <point x="572" y="-214" type="curve" smooth="yes"/>
      <point x="611" y="-214"/>
      <point x="650" y="-203"/>
      <point x="671" y="-190" type="curve"/>
      <point x="640" y="-108" type="line"/>
      <point x="630" y="-114"/>
      <point x="613" y="-120"/>
      <point x="592" y="-120" type="curve" smooth="yes"/>
      <point x="562" y="-120"/>
      <point x="545" y="-103"/>
    </contour>
    <contour>
      <point x="316" y="631" type="line"/>
      <point x="397" y="295" type="line"/>
      <point x="234" y="295" type="line"/>
    </contour>
  </outline>
</glyph>
<glyph name="ccircumflex" format="1">
  <advance width="525"/>
  <unicode hex="0109"/>
  <outline>
    <contour>
      <point x="166" y="249" type="curve" smooth="yes"/>
      <point x="166" y="281" type="line" smooth="yes"/>
      <point x="166" y="373"/>
      <point x="197" y="430"/>
      <point x="273" y="430" type="curve" smooth="yes"/>
      <point x="337" y="430"/>
      <point x="367" y="390"/>
      <point x="367" y="328" type="curve"/>
      <point x="490" y="328" type="line"/>
      <point x="490" y="350" type="line" smooth="yes"/>
      <point x="490" y="457"/>
      <point x="420" y="543"/>
      <point x="270" y="543" type="curve" smooth="yes"/>
      <point x="107" y="543"/>
      <point x="36" y="433"/>
      <point x="36" y="281" type="curve" smooth="yes"/>
      <point x="36" y="249" type="line" smooth="yes"/>
      <point x="36" y="98"/>
      <point x="107" y="-13"/>
      <point x="270" y="-13" type="curve" smooth="yes"/>
      <point x="420" y="-13"/>
      <point x="490" y="71"/>
      <point x="490" y="172" type="curve" smooth="yes"/>
      <point x="490" y="193" type="line"/>
      <point x="367" y="193" type="line"/>
      <point x="367" y="141"/>
      <point x="339" y="101"/>
      <point x="273" y="101" type="curve" smooth="yes"/>
      <point x="197" y="101"/>
      <point x="166" y="158"/>
    </contour>
    <contour>
      <point x="192" y="601" type="line"/>
      <point x="270" y="693" type="line"/>
      <point x="348" y="601" type="line"/>
      <point x="465" y="601" type="line"/>
      <point x="332" y="780" type="line"/>
      <point x="208" y="780" type="line"/>
      <point x="75" y="601" type="line"/>
    </contour>
  </outline>
</glyph>
<glyph name="Cdotaccent" format="1">
  <advance width="640"/>
  <unicode hex="010A"/>
  <outline>
    <contour>
      <point x="181" y="370" type="curve" smooth="yes"/>
      <point x="181" y="410" type="line" smooth="yes"/>
      <point x="181" y="586"/>
      <point x="217" y="676"/>
      <point x="328" y="676" type="curve" smooth="yes"/>
      <point x="337" y="676" type="line" smooth="yes"/>
      <point x="432" y="676"/>
      <point x="463" y="611"/>
      <point x="463" y="487" type="curve"/>
      <point x="598" y="487" type="line"/>
      <point x="598" y="521" type="line" smooth="yes"/>
      <point x="598" y="711"/>
      <point x="508" y="793"/>
      <point x="329" y="793" type="curve" smooth="yes"/>
      <point x="134" y="793"/>
      <point x="44" y="680"/>
      <point x="44" y="410" type="curve" smooth="yes"/>
      <point x="44" y="370" type="line" smooth="yes"/>
      <point x="44" y="100"/>
      <point x="134" y="-13"/>
      <point x="329" y="-13" type="curve" smooth="yes"/>
      <point x="508" y="-13"/>
      <point x="598" y="69"/>
      <point x="598" y="253" type="curve" smooth="yes"/>
      <point x="598" y="263" type="line"/>
      <point x="463" y="263" type="line"/>
      <point x="463" y="165"/>
      <point x="428" y="104"/>
      <point x="337" y="104" type="curve" smooth="yes"/>
      <point x="328" y="104" type="line" smooth="yes"/>
      <point x="216" y="104"/>
      <point x="181" y="194"/>
    </contour>
    <contour>
      <point x="387" y="941" type="line"/>
      <point x="271" y="941" type="line"/>
      <point x="271" y="849" type="line"/>
      <point x="387" y="849" type="line"/>
    </contour>
  </outline>
</glyph>
<glyph name="Dcaron" format="1">
  <advance width="655"/>
  <unicode hex="010E"/>
  <outline>
    <contour>
      <point x="611" y="370" type="curve" smooth="yes"/>
      <point x="611" y="410" type="line" smooth="yes"/>
      <point x="611" y="680"/>
      <point x="510" y="780"/>
      <point x="291" y="780" type="curve" smooth="yes"/>
      <point x="61" y="780" type="line"/>
      <point x="61" y="0" type="line"/>
      <point x="291" y="0" type="line" smooth="yes"/>
      <point x="510" y="0"/>
      <point x="611" y="100"/>
    </contour>
    <contour>
      <point x="195" y="117" type="line"/>
      <point x="195" y="663" type="line"/>
      <point x="283" y="663" type="line" smooth="yes"/>
      <point x="422" y="663"/>
      <point x="474" y="586"/>
      <point x="474" y="410" type="curve" smooth="yes"/>
      <point x="474" y="370" type="line" smooth="yes"/>
      <point x="474" y="194"/>
      <point x="422" y="117"/>
      <point x="283" y="117" type="curve" smooth="yes"/>
    </contour>
    <contour>
      <point x="123" y="950" type="line"/>
      <point x="242" y="840" type="line"/>
      <point x="372" y="840" type="line"/>
      <point x="491" y="950" type="line"/>
      <point x="371" y="950" type="line"/>
      <point x="307" y="899" type="line"/>
      <point x="243" y="950" type="line"/>
    </contour>
  </outline>
</glyph>
<glyph name="Dcroat" format="1">
  <advance width="715"/>
  <unicode hex="0110"/>
  <outline>
    <contour>
      <point x="14" y="348" type="line"/>
      <point x="121" y="348" type="line"/>
      <point x="121" y="0" type="line"/>
      <point x="351" y="0" type="line" smooth="yes"/>
      <point x="570" y="0"/>
      <point x="671" y="100"/>
      <point x="671" y="370" type="curve" smooth="yes"/>
      <point x="671" y="410" type="line" smooth="yes"/>
      <point x="671" y="680"/>
      <point x="570" y="780"/>
      <point x="351" y="780" type="curve" smooth="yes"/>
      <point x="121" y="780" type="line"/>
      <point x="121" y="450" type="line"/>
      <point x="14" y="450" type="line"/>
    </contour>
    <contour>
      <point x="255" y="663" type="line"/>
      <point x="343" y="663" type="line" smooth="yes"/>
      <point x="482" y="663"/>
      <point x="534" y="586"/>
      <point x="534" y="410" type="curve" smooth="yes"/>
      <point x="534" y="370" type="line" smooth="yes"/>
      <point x="534" y="194"/>
      <point x="482" y="117"/>
      <point x="343" y="117" type="curve" smooth="yes"/>
      <point x="255" y="117" type="line"/>
      <point x="255" y="348" type="line"/>
      <point x="435" y="348" type="line"/>
      <point x="435" y="450" type="line"/>
      <point x="255" y="450" type="line"/>
    </contour>
  </outline>
</glyph>
<glyph name="dcroat" format="1">
  <advance width="569"/>
  <unicode hex="0111"/>
  <outline>
    <contour>
      <point x="586" y="713" type="line"/>
      <point x="511" y="713" type="line"/>
      <point x="511" y="800" type="line"/>
      <point x="381" y="800" type="line"/>
      <point x="381" y="713" type="line"/>
      <point x="262" y="713" type="line"/>
      <point x="262" y="617" type="line"/>
      <point x="381" y="617" type="line"/>
      <point x="381" y="481" type="line"/>
      <point x="351" y="517"/>
      <point x="306" y="543"/>
      <point x="241" y="543" type="curve" smooth="yes"/>
      <point x="96" y="543"/>
      <point x="42" y="433"/>
      <point x="42" y="281" type="curve" smooth="yes"/>
      <point x="42" y="249" type="line" smooth="yes"/>
      <point x="42" y="98"/>
      <point x="96" y="-13"/>
      <point x="241" y="-13" type="curve" smooth="yes"/>
      <point x="316" y="-13"/>
      <point x="364" y="21"/>
      <point x="393" y="66" type="curve"/>
      <point x="404" y="0" type="line"/>
      <point x="519" y="0" type="line"/>
      <point x="511" y="150" type="line"/>
      <point x="511" y="617" type="line"/>
      <point x="586" y="617" type="line"/>
    </contour>
    <contour>
      <point x="381" y="369" type="curve"/>
      <point x="381" y="161" type="line"/>
      <point x="366" y="136"/>
      <point x="332" y="101"/>
      <point x="277" y="101" type="curve" smooth="yes"/>
      <point x="203" y="101"/>
      <point x="172" y="156"/>
      <point x="172" y="249" type="curve" smooth="yes"/>
      <point x="172" y="281" type="line" smooth="yes"/>
      <point x="172" y="374"/>
      <point x="203" y="430"/>
      <point x="277" y="430" type="curve" smooth="yes"/>
      <point x="332" y="430"/>
      <point x="366" y="394"/>
    </contour>
  </outline>
</glyph>
<glyph name="Emacron" format="1">
  <advance width="565"/>
  <unicode hex="0112"/>
  <outline>
    <contour>
      <point x="61" y="780" type="line"/>
      <point x="61" y="0" type="line"/>
      <point x="525" y="0" type="line"/>
      <point x="525" y="117" type="line"/>
      <point x="195" y="117" type="line"/>
      <point x="195" y="340" type="line"/>
      <point x="475" y="340" type="line"/>
      <point x="475" y="456" type="line"/>
      <point x="195" y="456" type="line"/>
      <point x="195" y="663" type="line"/>
      <point x="525" y="663" type="line"/>
      <point x="525" y="780" type="line"/>
    </contour>
    <contour>
      <point x="159" y="853" type="line"/>
      <point x="435" y="853" type="line"/>
      <point x="435" y="937" type="line"/>
      <point x="159" y="937" type="line"/>
    </contour>
  </outline>
</glyph>
<glyph name="Ebreve" format="1">
  <advance width="565"/>
  <unicode hex="0114"/>
  <outline>
    <contour>
      <point x="297" y="826" type="curve" smooth="yes"/>
      <point x="431" y="826"/>
      <point x="468" y="882"/>
      <point x="468" y="950" type="curve"/>
      <point x="376" y="950" type="line"/>
      <point x="376" y="919"/>
      <point x="353" y="901"/>
      <point x="297" y="901" type="curve" smooth="yes"/>
      <point x="241" y="901"/>
      <point x="218" y="919"/>
      <point x="218" y="950" type="curve"/>
      <point x="126" y="950" type="line"/>
      <point x="126" y="882"/>
      <point x="163" y="826"/>
    </contour>
    <contour>
      <point x="61" y="780" type="line"/>
      <point x="61" y="0" type="line"/>
      <point x="525" y="0" type="line"/>
      <point x="525" y="117" type="line"/>
      <point x="195" y="117" type="line"/>
      <point x="195" y="340" type="line"/>
      <point x="475" y="340" type="line"/>
      <point x="475" y="456" type="line"/>
      <point x="195" y="456" type="line"/>
      <point x="195" y="663" type="line"/>
      <point x="525" y="663" type="line"/>
      <point x="525" y="780" type="line"/>
    </contour>
  </outline>
</glyph>
<glyph name="ebreve" format="1">
  <advance width="553"/>
  <unicode hex="0115"/>
  <outline>
    <contour>
      <point x="516" y="217" type="line"/>
      <point x="516" y="278" type="line" smooth="yes"/>
      <point x="516" y="429"/>
      <point x="442" y="543"/>
      <point x="279" y="543" type="curve" smooth="yes"/>
      <point x="115" y="543"/>
      <point x="36" y="429"/>
      <point x="36" y="278" type="curve" smooth="yes"/>
      <point x="36" y="252" type="line" smooth="yes"/>
      <point x="36" y="101"/>
      <point x="113" y="-13"/>
      <point x="284" y="-13" type="curve" smooth="yes"/>
      <point x="436" y="-13"/>
      <point x="516" y="71"/>
      <point x="516" y="166" type="curve" smooth="yes"/>
      <point x="516" y="170" type="line"/>
      <point x="393" y="170" type="line"/>
      <point x="393" y="130"/>
      <point x="356" y="88"/>
      <point x="285" y="88" type="curve" smooth="yes"/>
      <point x="211" y="88"/>
      <point x="171" y="130"/>
      <point x="166" y="217" type="curve"/>
    </contour>
    <contour>
      <point x="279" y="589" type="curve" smooth="yes"/>
      <point x="411" y="589"/>
      <point x="460" y="669"/>
      <point x="458" y="780" type="curve"/>
      <point x="362" y="780" type="line"/>
      <point x="362" y="718"/>
      <point x="331" y="689"/>
      <point x="279" y="689" type="curve" smooth="yes"/>
      <point x="227" y="689"/>
      <point x="196" y="718"/>
      <point x="196" y="780" type="curve"/>
      <point x="100" y="780" type="line"/>
      <point x="98" y="669"/>
      <point x="147" y="589"/>
    </contour>
    <contour>
      <point x="276" y="442" type="curve" smooth="yes"/>
      <point x="347" y="442"/>
      <point x="381" y="397"/>
      <point x="385" y="313" type="curve"/>
      <point x="166" y="313" type="line"/>
      <point x="171" y="397"/>
      <point x="206" y="442"/>
    </contour>
  </outline>
</glyph>
<glyph name="Edotaccent" format="1">
  <advance width="565"/>
  <unicode hex="0116"/>
  <outline>
    <contour>
      <point x="61" y="780" type="line"/>
      <point x="61" y="0" type="line"/>
      <point x="525" y="0" type="line"/>
      <point x="525" y="117" type="line"/>
      <point x="195" y="117" type="line"/>
      <point x="195" y="340" type="line"/>
      <point x="475" y="340" type="line"/>
      <point x="475" y="456" type="line"/>
      <point x="195" y="456" type="line"/>
      <point x="195" y="663" type="line"/>
      <point x="525" y="663" type="line"/>
      <point x="525" y="780" type="line"/>
    </contour>
    <contour>
      <point x="355" y="941" type="line"/>
      <point x="239" y="941" type="line"/>
      <point x="239" y="849" type="line"/>
      <point x="355" y="849" type="line"/>
    </contour>
  </outline>
</glyph>
<glyph name="Eogonek" format="1">
  <advance width="565"/>
  <unicode hex="0118"/>
  <outline>
    <contour>
      <point x="61" y="780" type="line"/>
      <point x="61" y="0" type="line"/>
      <point x="403" y="0" type="line"/>
      <point x="376" y="-28"/>
      <point x="357" y="-65"/>
      <point x="357" y="-109" type="curve" smooth="yes"/>
      <point x="357" y="-181"/>
      <point x="408" y="-214"/>
      <point x="484" y="-214" type="curve" smooth="yes"/>
      <point x="523" y="-214"/>
      <point x="562" y="-203"/>
      <point x="583" y="-190" type="curve"/>
      <point x="552" y="-108" type="line"/>
      <point x="542" y="-114"/>
      <point x="525" y="-120"/>
      <point x="504" y="-120" type="curve" smooth="yes"/>
      <point x="474" y="-120"/>
      <point x="457" y="-103"/>
      <point x="457" y="-79" type="curve" smooth="yes"/>
      <point x="457" y="-43"/>
      <point x="484" y="-18"/>
      <point x="525" y="0" type="curve"/>
      <point x="525" y="117" type="line"/>
      <point x="195" y="117" type="line"/>
      <point x="195" y="340" type="line"/>
      <point x="475" y="340" type="line"/>
      <point x="475" y="456" type="line"/>
      <point x="195" y="456" type="line"/>
      <point x="195" y="663" type="line"/>
      <point x="525" y="663" type="line"/>
      <point x="525" y="780" type="line"/>
    </contour>
  </outline>
</glyph>
<glyph name="eogonek" format="1">
  <advance width="553"/>
  <unicode hex="0119"/>
  <outline>
    <contour>
      <point x="516" y="217" type="line"/>
      <point x="516" y="278" type="line" smooth="yes"/>
      <point x="516" y="429"/>
      <point x="442" y="543"/>
      <point x="279" y="543" type="curve" smooth="yes"/>
      <point x="115" y="543"/>
      <point x="36" y="429"/>
      <point x="36" y="278" type="curve" smooth="yes"/>
      <point x="36" y="252" type="line" smooth="yes"/>
      <point x="36" y="112"/>
      <point x="101" y="4"/>
      <point x="246" y="-11" type="curve"/>
      <point x="224" y="-37"/>
      <point x="210" y="-70"/>
      <point x="210" y="-109" type="curve" smooth="yes"/>
      <point x="210" y="-181"/>
      <point x="261" y="-214"/>
      <point x="337" y="-214" type="curve" smooth="yes"/>
      <point x="376" y="-214"/>
      <point x="415" y="-203"/>
      <point x="436" y="-190" type="curve"/>
      <point x="405" y="-108" type="line"/>
      <point x="395" y="-114"/>
      <point x="378" y="-120"/>
      <point x="357" y="-120" type="curve" smooth="yes"/>
      <point x="327" y="-120"/>
      <point x="310" y="-103"/>
      <point x="310" y="-79" type="curve" smooth="yes"/>
      <point x="310" y="-43"/>
      <point x="337" y="-13"/>
      <point x="379" y="0" type="curve" smooth="yes"/>
      <point x="468" y="27"/>
      <point x="516" y="92"/>
      <point x="516" y="166" type="curve" smooth="yes"/>
      <point x="516" y="170" type="line"/>
      <point x="393" y="170" type="line"/>
      <point x="393" y="130"/>
      <point x="356" y="88"/>
      <point x="285" y="88" type="curve" smooth="yes"/>
      <point x="211" y="88"/>
      <point x="171" y="130"/>
      <point x="166" y="217" type="curve"/>
    </contour>
    <contour>
      <point x="276" y="442" type="curve" smooth="yes"/>
      <point x="347" y="442"/>
      <point x="381" y="397"/>
      <point x="385" y="313" type="curve"/>
      <point x="166" y="313" type="line"/>
      <point x="171" y="397"/>
      <point x="206" y="442"/>
    </contour>
  </outline>
</glyph>
<glyph name="Ecaron" format="1">
  <advance width="565"/>
  <unicode hex="011A"/>
  <outline>
    <contour>
      <point x="61" y="780" type="line"/>
      <point x="61" y="0" type="line"/>
      <point x="525" y="0" type="line"/>
      <point x="525" y="117" type="line"/>
      <point x="195" y="117" type="line"/>
      <point x="195" y="340" type="line"/>
      <point x="475" y="340" type="line"/>
      <point x="475" y="456" type="line"/>
      <point x="195" y="456" type="line"/>
      <point x="195" y="663" type="line"/>
      <point x="525" y="663" type="line"/>
      <point x="525" y="780" type="line"/>
    </contour>
    <contour>
      <point x="113" y="950" type="line"/>
      <point x="232" y="840" type="line"/>
      <point x="362" y="840" type="line"/>
      <point x="481" y="950" type="line"/>
      <point x="361" y="950" type="line"/>
      <point x="297" y="899" type="line"/>
      <point x="233" y="950" type="line"/>
    </contour>
  </outline>
</glyph>
<glyph name="ecaron" format="1">
  <advance width="553"/>
  <unicode hex="011B"/>
  <outline>
    <contour>
      <point x="516" y="217" type="line"/>
      <point x="516" y="278" type="line" smooth="yes"/>
      <point x="516" y="429"/>
      <point x="442" y="543"/>
      <point x="279" y="543" type="curve" smooth="yes"/>
      <point x="115" y="543"/>
      <point x="36" y="429"/>
      <point x="36" y="278" type="curve" smooth="yes"/>
      <point x="36" y="252" type="line" smooth="yes"/>
      <point x="36" y="101"/>
      <point x="113" y="-13"/>
      <point x="284" y="-13" type="curve" smooth="yes"/>
      <point x="436" y="-13"/>
      <point x="516" y="71"/>
      <point x="516" y="166" type="curve" smooth="yes"/>
      <point x="516" y="170" type="line"/>
      <point x="393" y="170" type="line"/>
      <point x="393" y="130"/>
      <point x="356" y="88"/>
      <point x="285" y="88" type="curve" smooth="yes"/>
      <point x="211" y="88"/>
      <point x="171" y="130"/>
      <point x="166" y="217" type="curve"/>
    </contour>
    <contour>
      <point x="84" y="780" type="line"/>
      <point x="217" y="601" type="line"/>
      <point x="341" y="601" type="line"/>
      <point x="474" y="780" type="line"/>
      <point x="357" y="780" type="line"/>
      <point x="279" y="688" type="line"/>
      <point x="201" y="780" type="line"/>
    </contour>
    <contour>
      <point x="276" y="442" type="curve" smooth="yes"/>
      <point x="347" y="442"/>
      <point x="381" y="397"/>
      <point x="385" y="313" type="curve"/>
      <point x="166" y="313" type="line"/>
      <point x="171" y="397"/>
      <point x="206" y="442"/>
    </contour>
  </outline>
</glyph>
<glyph name="gcircumflex" format="1">
  <advance width="563"/>
  <unicode hex="011D"/>
  <outline>
    <contour>
      <point x="376" y="8" type="line" smooth="yes"/>
      <point x="376" y="-73"/>
      <point x="344" y="-106"/>
      <point x="270" y="-106" type="curve" smooth="yes"/>
      <point x="193" y="-106"/>
      <point x="169" y="-66"/>
      <point x="169" y="0" type="curve"/>
      <point x="46" y="0" type="line"/>
      <point x="46" y="-19" type="line" smooth="yes"/>
      <point x="46" y="-126"/>
      <point x="103" y="-213"/>
      <point x="273" y="-213" type="curve" smooth="yes"/>
      <point x="434" y="-213"/>
      <point x="506" y="-133"/>
      <point x="506" y="6" type="curve" smooth="yes"/>
      <point x="506" y="380" type="line"/>
      <point x="514" y="530" type="line"/>
      <point x="399" y="530" type="line"/>
      <point x="388" y="465" type="line"/>
      <point x="359" y="510"/>
      <point x="311" y="543"/>
      <point x="235" y="543" type="curve" smooth="yes"/>
      <point x="93" y="543"/>
      <point x="36" y="434"/>
      <point x="36" y="295" type="curve" smooth="yes"/>
      <point x="36" y="269" type="line" smooth="yes"/>
      <point x="36" y="123"/>
      <point x="93" y="21"/>
      <point x="235" y="21" type="curve" smooth="yes"/>
      <point x="301" y="21"/>
      <point x="346" y="46"/>
      <point x="376" y="82" type="curve"/>
    </contour>
    <contour>
      <point x="376" y="194" type="line"/>
      <point x="360" y="170"/>
      <point x="327" y="134"/>
      <point x="271" y="134" type="curve" smooth="yes"/>
      <point x="201" y="134"/>
      <point x="166" y="182"/>
      <point x="166" y="269" type="curve" smooth="yes"/>
      <point x="166" y="295" type="line" smooth="yes"/>
      <point x="166" y="376"/>
      <point x="201" y="430"/>
      <point x="271" y="430" type="curve" smooth="yes"/>
      <point x="327" y="430"/>
      <point x="360" y="394"/>
      <point x="376" y="369" type="curve"/>
    </contour>
    <contour>
      <point x="198" y="601" type="line"/>
      <point x="276" y="693" type="line"/>
      <point x="354" y="601" type="line"/>
      <point x="471" y="601" type="line"/>
      <point x="338" y="780" type="line"/>
      <point x="214" y="780" type="line"/>
      <point x="81" y="601" type="line"/>
    </contour>
  </outline>
</glyph>
<glyph name="Gbreve" format="1">
  <advance width="664"/>
  <unicode hex="011E"/>
  <outline>
    <contour>
      <point x="346" y="-13" type="curve" smooth="yes"/>
      <point x="478" y="-13"/>
      <point x="555" y="31"/>
      <point x="608" y="78" type="curve"/>
      <point x="608" y="410" type="line"/>
      <point x="361" y="410" type="line"/>
      <point x="361" y="294" type="line"/>
      <point x="474" y="294" type="line"/>
      <point x="474" y="143" type="line"/>
      <point x="448" y="122"/>
      <point x="406" y="104"/>
      <point x="351" y="104" type="curve" smooth="yes"/>
      <point x="342" y="104" type="line" smooth="yes"/>
      <point x="219" y="104"/>
      <point x="181" y="194"/>
      <point x="181" y="370" type="curve" smooth="yes"/>
      <point x="181" y="410" type="line" smooth="yes"/>
      <point x="181" y="586"/>
      <point x="220" y="676"/>
      <point x="335" y="676" type="curve" smooth="yes"/>
      <point x="344" y="676" type="line" smooth="yes"/>
      <point x="442" y="676"/>
      <point x="474" y="611"/>
      <point x="474" y="487" type="curve"/>
      <point x="608" y="487" type="line"/>
      <point x="608" y="521" type="line" smooth="yes"/>
      <point x="608" y="711"/>
      <point x="515" y="793"/>
      <point x="336" y="793" type="curve" smooth="yes"/>
      <point x="141" y="793"/>
      <point x="44" y="680"/>
      <point x="44" y="410" type="curve" smooth="yes"/>
      <point x="44" y="370" type="line" smooth="yes"/>
      <point x="44" y="100"/>
      <point x="141" y="-13"/>
    </contour>
    <contour>
      <point x="336" y="826" type="curve" smooth="yes"/>
      <point x="470" y="826"/>
      <point x="507" y="882"/>
      <point x="507" y="950" type="curve"/>
      <point x="415" y="950" type="line"/>
      <point x="415" y="919"/>
      <point x="392" y="901"/>
      <point x="336" y="901" type="curve" smooth="yes"/>
      <point x="280" y="901"/>
      <point x="257" y="919"/>
      <point x="257" y="950" type="curve"/>
      <point x="165" y="950" type="line"/>
      <point x="165" y="882"/>
      <point x="202" y="826"/>
    </contour>
  </outline>
</glyph>
<glyph name="gbreve" format="1">
  <advance width="563"/>
  <unicode hex="011F"/>
  <outline>
    <contour>
      <point x="376" y="8" type="line" smooth="yes"/>
      <point x="376" y="-73"/>
      <point x="344" y="-106"/>
      <point x="270" y="-106" type="curve" smooth="yes"/>
      <point x="193" y="-106"/>
      <point x="169" y="-66"/>
      <point x="169" y="0" type="curve"/>
      <point x="46" y="0" type="line"/>
      <point x="46" y="-19" type="line" smooth="yes"/>
      <point x="46" y="-126"/>
      <point x="103" y="-213"/>
      <point x="273" y="-213" type="curve" smooth="yes"/>
      <point x="434" y="-213"/>
      <point x="506" y="-133"/>
      <point x="506" y="6" type="curve" smooth="yes"/>
      <point x="506" y="380" type="line"/>
      <point x="514" y="530" type="line"/>
      <point x="399" y="530" type="line"/>
      <point x="388" y="465" type="line"/>
      <point x="359" y="510"/>
      <point x="311" y="543"/>
      <point x="235" y="543" type="curve" smooth="yes"/>
      <point x="93" y="543"/>
      <point x="36" y="434"/>
      <point x="36" y="295" type="curve" smooth="yes"/>
      <point x="36" y="269" type="line" smooth="yes"/>
      <point x="36" y="123"/>
      <point x="93" y="21"/>
      <point x="235" y="21" type="curve" smooth="yes"/>
      <point x="301" y="21"/>
      <point x="346" y="46"/>
      <point x="376" y="82" type="curve"/>
    </contour>
    <contour>
      <point x="376" y="369" type="curve"/>
      <point x="376" y="194" type="line"/>
      <point x="360" y="170"/>
      <point x="327" y="134"/>
      <point x="271" y="134" type="curve" smooth="yes"/>
      <point x="201" y="134"/>
      <point x="166" y="182"/>
      <point x="166" y="269" type="curve" smooth="yes"/>
      <point x="166" y="295" type="line" smooth="yes"/>
      <point x="166" y="376"/>
      <point x="201" y="430"/>
      <point x="271" y="430" type="curve" smooth="yes"/>
      <point x="327" y="430"/>
      <point x="360" y="394"/>
    </contour>
    <contour>
      <point x="276" y="589" type="curve" smooth="yes"/>
      <point x="408" y="589"/>
      <point x="457" y="669"/>
      <point x="455" y="780" type="curve"/>
      <point x="359" y="780" type="line"/>
      <point x="359" y="718"/>
      <point x="328" y="689"/>
      <point x="276" y="689" type="curve" smooth="yes"/>
      <point x="224" y="689"/>
      <point x="193" y="718"/>
      <point x="193" y="780" type="curve"/>
      <point x="97" y="780" type="line"/>
      <point x="95" y="669"/>
      <point x="144" y="589"/>
    </contour>
  </outline>
</glyph>
<glyph name="gcommaaccent" format="1">
  <advance width="563"/>
  <unicode hex="0123"/>
  <outline>
    <contour>
      <point x="376" y="8" type="line" smooth="yes"/>
      <point x="376" y="-73"/>
      <point x="344" y="-106"/>
      <point x="270" y="-106" type="curve" smooth="yes"/>
      <point x="193" y="-106"/>
      <point x="169" y="-66"/>
      <point x="169" y="0" type="curve"/>
      <point x="46" y="0" type="line"/>
      <point x="46" y="-19" type="line" smooth="yes"/>
      <point x="46" y="-126"/>
      <point x="103" y="-213"/>
      <point x="273" y="-213" type="curve" smooth="yes"/>
      <point x="434" y="-213"/>
      <point x="506" y="-133"/>
      <point x="506" y="6" type="curve" smooth="yes"/>
      <point x="506" y="380" type="line"/>
      <point x="514" y="530" type="line"/>
      <point x="399" y="530" type="line"/>
      <point x="388" y="465" type="line"/>
      <point x="359" y="510"/>
      <point x="311" y="543"/>
      <point x="235" y="543" type="curve" smooth="yes"/>
      <point x="93" y="543"/>
      <point x="36" y="434"/>
      <point x="36" y="295" type="curve" smooth="yes"/>
      <point x="36" y="269" type="line" smooth="yes"/>
      <point x="36" y="123"/>
      <point x="93" y="21"/>
      <point x="235" y="21" type="curve" smooth="yes"/>
      <point x="301" y="21"/>
      <point x="346" y="46"/>
      <point x="376" y="82" type="curve"/>
    </contour>
    <contour>
      <point x="376" y="194" type="line"/>
      <point x="360" y="170"/>
      <point x="327" y="134"/>
      <point x="271" y="134" type="curve" smooth="yes"/>
      <point x="201" y="134"/>
      <point x="166" y="182"/>
      <point x="166" y="269" type="curve" smooth="yes"/>
      <point x="166" y="295" type="line" smooth="yes"/>
      <point x="166" y="376"/>
      <point x="201" y="430"/>
      <point x="271" y="430" type="curve" smooth="yes"/>
      <point x="327" y="430"/>
      <point x="360" y="394"/>
      <point x="376" y="369" type="curve"/>
    </contour>
    <contour>
      <point x="211" y="601" type="line"/>
      <point x="334" y="601" type="line"/>
      <point x="334" y="693" type="line"/>
      <point x="263" y="693" type="line"/>
      <point x="273" y="731"/>
      <point x="300" y="744"/>
      <point x="345" y="744" type="curve"/>
      <point x="345" y="793" type="line"/>
      <point x="254" y="793"/>
      <point x="211" y="753"/>
      <point x="211" y="663" type="curve" smooth="yes"/>
    </contour>
  </outline>
</glyph>
<glyph name="Hcircumflex" format="1">
  <advance width="655"/>
  <unicode hex="0124"/>
  <outline>
    <contour>
      <point x="460" y="780" type="line"/>
      <point x="460" y="456" type="line"/>
      <point x="195" y="456" type="line"/>
      <point x="195" y="780" type="line"/>
      <point x="61" y="780" type="line"/>
      <point x="61" y="0" type="line"/>
      <point x="195" y="0" type="line"/>
      <point x="195" y="340" type="line"/>
      <point x="460" y="340" type="line"/>
      <point x="460" y="0" type="line"/>
      <point x="594" y="0" type="line"/>
      <point x="594" y="780" type="line"/>
    </contour>
    <contour>
      <point x="264" y="840" type="line"/>
      <point x="328" y="890" type="line"/>
      <point x="392" y="840" type="line"/>
      <point x="512" y="840" type="line"/>
      <point x="393" y="950" type="line"/>
      <point x="263" y="950" type="line"/>
      <point x="144" y="840" type="line"/>
    </contour>
  </outline>
</glyph>
<glyph name="Hbar" format="1">
  <advance width="655"/>
  <unicode hex="0126"/>
  <outline>
    <contour>
      <point x="460" y="780" type="line"/>
      <point x="460" y="670" type="line"/>
      <point x="195" y="670" type="line"/>
      <point x="195" y="780" type="line"/>
      <point x="61" y="780" type="line"/>
      <point x="61" y="0" type="line"/>
      <point x="195" y="0" type="line"/>
      <point x="195" y="340" type="line"/>
      <point x="460" y="340" type="line"/>
      <point x="460" y="0" type="line"/>
      <point x="594" y="0" type="line"/>
      <point x="594" y="780" type="line"/>
    </contour>
    <contour>
      <point x="195" y="456" type="line"/>
      <point x="195" y="568" type="line"/>
      <point x="460" y="568" type="line"/>
      <point x="460" y="456" type="line"/>
    </contour>
  </outline>
</glyph>
<glyph name="hbar" format="1">
  <advance width="563"/>
  <unicode hex="0127"/>
  <outline>
    <contour>
      <point x="188" y="800" type="line"/>
      <point x="58" y="800" type="line"/>
      <point x="58" y="713" type="line"/>
      <point x="-18" y="713" type="line"/>
      <point x="-18" y="617" type="line"/>
      <point x="58" y="617" type="line"/>
      <point x="58" y="0" type="line"/>
      <point x="188" y="0" type="line"/>
      <point x="188" y="369" type="line"/>
      <point x="203" y="394"/>
      <point x="237" y="430"/>
      <point x="298" y="430" type="curve" smooth="yes"/>
      <point x="357" y="430"/>
      <point x="382" y="393"/>
      <point x="382" y="342" type="curve" smooth="yes"/>
      <point x="382" y="0" type="line"/>
      <point x="511" y="0" type="line"/>
      <point x="511" y="363" type="line" smooth="yes"/>
      <point x="511" y="459"/>
      <point x="464" y="543"/>
      <point x="348" y="543" type="curve" smooth="yes"/>
      <point x="273" y="543"/>
      <point x="221" y="515"/>
      <point x="188" y="476" type="curve"/>
      <point x="188" y="617" type="line"/>
      <point x="307" y="617" type="line"/>
      <point x="307" y="713" type="line"/>
      <point x="188" y="713" type="line"/>
    </contour>
  </outline>
</glyph>
<glyph name="Itilde" format="1">
  <advance width="266"/>
  <unicode hex="0128"/>
  <outline>
    <contour>
      <point x="200" y="780" type="line"/>
      <point x="66" y="780" type="line"/>
      <point x="66" y="0" type="line"/>
      <point x="200" y="0" type="line"/>
    </contour>
    <contour>
      <point x="234" y="943" type="line"/>
      <point x="234" y="916"/>
      <point x="218" y="907"/>
      <point x="199" y="907" type="curve" smooth="yes"/>
      <point x="161" y="907"/>
      <point x="117" y="957"/>
      <point x="54" y="957" type="curve" smooth="yes"/>
      <point x="2" y="957"/>
      <point x="-41" y="928"/>
      <point x="-41" y="847" type="curve"/>
      <point x="32" y="847" type="line"/>
      <point x="32" y="874"/>
      <point x="48" y="883"/>
      <point x="67" y="883" type="curve" smooth="yes"/>
      <point x="105" y="883"/>
      <point x="149" y="833"/>
      <point x="212" y="833" type="curve" smooth="yes"/>
      <point x="264" y="833"/>
      <point x="307" y="862"/>
      <point x="307" y="943" type="curve"/>
    </contour>
  </outline>
</glyph>
<glyph name="itilde" format="1">
  <advance width="250"/>
  <unicode hex="0129"/>
  <outline>
    <contour>
      <point x="60" y="0" type="line"/>
      <point x="190" y="0" type="line"/>
      <point x="190" y="530" type="line"/>
      <point x="60" y="530" type="line"/>
    </contour>
    <contour>
      <point x="223" y="764" type="line"/>
      <point x="223" y="735"/>
      <point x="209" y="725"/>
      <point x="190" y="725" type="curve" smooth="yes"/>
      <point x="150" y="725"/>
      <point x="103" y="778"/>
      <point x="39" y="778" type="curve" smooth="yes"/>
      <point x="-18" y="778"/>
      <point x="-62" y="736"/>
      <point x="-62" y="636" type="curve"/>
      <point x="27" y="636" type="line"/>
      <point x="27" y="665"/>
      <point x="41" y="675"/>
      <point x="60" y="675" type="curve" smooth="yes"/>
      <point x="100" y="675"/>
      <point x="147" y="622"/>
      <point x="211" y="622" type="curve" smooth="yes"/>
      <point x="268" y="622"/>
      <point x="312" y="664"/>
      <point x="312" y="764" type="curve"/>
    </contour>
  </outline>
</glyph>
<glyph name="Imacron" format="1">
  <advance width="266"/>
  <unicode hex="012A"/>
  <outline>
    <contour>
      <point x="200" y="780" type="line"/>
      <point x="66" y="780" type="line"/>
      <point x="66" y="0" type="line"/>
      <point x="200" y="0" type="line"/>
    </contour>
    <contour>
      <point x="-5" y="853" type="line"/>
      <point x="271" y="853" type="line"/>
      <point x="271" y="937" type="line"/>
      <point x="-5" y="937" type="line"/>
    </contour>
  </outline>
</glyph>
<glyph name="imacron" format="1">
  <advance width="250"/>
  <unicode hex="012B"/>
  <outline>
    <contour>
      <point x="60" y="0" type="line"/>
      <point x="190" y="0" type="line"/>
      <point x="190" y="530" type="line"/>
      <point x="60" y="530" type="line"/>
    </contour>
    <contour>
      <point x="-14" y="633" type="line"/>
      <point x="264" y="633" type="line"/>
      <point x="264" y="748" type="line"/>
      <point x="-14" y="748" type="line"/>
    </contour>
  </outline>
</glyph>
